<?xml version="1.0" encoding="UTF-8"?>
<svg id="Layer_2" data-name="Layer 2" xmlns="http://www.w3.org/2000/svg" viewBox="0 0 102.58 149.34">
  <defs>
    <style>
      .cls-1, .cls-2 {
        stroke-width: 3.2px;
      }

      .cls-1, .cls-2, .cls-3 {
        fill: none;
        stroke: #67308f;
        stroke-miterlimit: 10;
      }

      .cls-1, .cls-3 {
        stroke-linecap: round;
      }

      .cls-3 {
        stroke-width: 2px;
      }
    </style>
  </defs>
  <g id="Layer_1-2" data-name="Layer 1">
    <line class="cls-2" x1="51.25" y1="116.08" x2="51.25" y2="116.07"/>
    <path class="cls-2" d="M66.4,124.41c4.03,7.51,1.39,16.92-6.05,21.21-7.58,4.37-17.27,1.77-21.65-5.81-2.78-4.82-2.74-10.48-.39-15.1"/>
    <path class="cls-2" d="M85.12,97.94h.01c1.25,2.48,1.95,5.29,1.95,8.25,0,10.14-8.22,18.37-18.37,18.37-.78,0-1.55-.05-2.31-.15-5.55-.69-10.32-3.86-13.19-8.36-.37-.56-.7-1.14-.99-1.75h0"/>
    <path class="cls-2" d="M52.13,98.26h0s0-.03.02-.05"/>
    <path class="cls-2" d="M69.59,69.9c3.2-4.17,8.24-6.86,13.9-6.86,9.66,0,17.49,7.83,17.49,17.49,0,9.11-6.96,16.59-15.85,17.41h-.01c-.54.05-1.08.08-1.63.08-6.25,0-11.73-3.27-14.82-8.2"/>
    <path class="cls-2" d="M18.86,98.01c-1.27,2.51-1.99,5.35-1.99,8.36,0,10.25,8.31,18.56,18.56,18.56.98,0,1.94-.08,2.88-.22,5.48-.85,10.15-4.1,12.94-8.63h0c.36-.58.68-1.17.97-1.78h0c1.13-2.41,1.77-5.1,1.77-7.93s-.67-5.66-1.86-8.11h0s-.02-.04-.03-.06"/>
    <path class="cls-2" d="M34.98,87.82c.15-.01.3-.01.45-.01.14,0,.27,0,.41.01"/>
    <path class="cls-2" d="M34.79,72.83c-2.84-5.8-8.8-9.79-15.7-9.79-9.66,0-17.49,7.83-17.49,17.49s7.71,17.36,17.26,17.48c.08.01.15.01.23.01,7.06,0,13.14-4.18,15.89-10.2.15-.31.29-.62.4-.94"/>
    <circle class="cls-2" cx="52.84" cy="79.11" r="19.11"/>
    <path class="cls-1" d="M90.21,17.1h0c2.95,16.72-8.84,32.77-26.34,35.86l-7.37,1.3h0c-2.95-16.72,8.84-32.77,26.34-35.86l7.37-1.3h0Z"/>
    <path class="cls-3" d="M75.19,33.46c-11.98,6.42-14.99,14.57-15.69,16.63"/>
    <path class="cls-1" d="M49.79,59.57S57.75,12.72,27.44,1.6"/>
  </g>
</svg>