<?xml version="1.0" encoding="UTF-8"?>
<svg id="Layer_2" data-name="Layer 2" xmlns="http://www.w3.org/2000/svg" viewBox="0 0 73.41 109.29">
  <defs>
    <style>
      .cls-1 {
        stroke-linecap: round;
      }

      .cls-1, .cls-2 {
        fill: none;
        stroke: #67308f;
        stroke-miterlimit: 10;
        stroke-width: 3.2px;
      }
    </style>
  </defs>
  <g id="Layer_1-2" data-name="Layer 1">
    <path class="cls-2" d="M51.12,84.36c4.04,7.52,1.39,16.92-6.04,21.21-7.58,4.37-17.27,1.78-21.65-5.81-2.78-4.82-2.75-10.48-.4-15.1"/>
    <path class="cls-2" d="M35.97,76.04h.01c.65-.06,1.31-.07,1.96-.03"/>
    <path class="cls-2" d="M36.94,74.25c.3.61.63,1.19,1,1.76,2.87,4.5,7.64,7.66,13.18,8.35.76.1,1.53.15,2.31.15,10.15,0,18.38-8.22,18.38-18.37s-8.23-18.38-18.38-18.38c-7.3,0-13.61,4.27-16.57,10.44"/>
    <circle class="cls-2" cx="20.16" cy="66.32" r="18.56"/>
    <ellipse class="cls-2" cx="23.13" cy="31.19" rx="10.46" ry="7.87"/>
    <path class="cls-1" d="M38.62,54.51s1.09-6.05-4.14-23.47c-1.47-4.9-3.14-9.69-5-13.95C25.56,8.14,20.76,1.6,15.14,1.6"/>
  </g>
</svg>