<?xml version="1.0" encoding="UTF-8"?>
<svg id="Layer_2" data-name="Layer 2" xmlns="http://www.w3.org/2000/svg" viewBox="0 0 271.7 275.23">
  <defs>
    <style>
      .cls-1 {
        fill: none;
        stroke: #FF4172;
        stroke-miterlimit: 10;
        stroke-width: 20px;
      }
    </style>
  </defs>
  <g id="Layer_1-2" data-name="Layer 1">
    <path class="cls-1" d="M132.39,39.6l15.33,37.11c10.49,25.38,30.65,45.55,56.04,56.04l37.11,15.33c2.89,1.2,2.89,5.29,0,6.49l-37.11,15.33c-25.38,10.49-45.55,30.65-56.04,56.04l-15.33,37.11c-1.2,2.89-5.29,2.89-6.49,0l-15.33-37.11c-10.49-25.38-30.65-45.55-56.04-56.04l-37.11-15.33c-2.89-1.2-2.89-5.29,0-6.49l37.11-15.33c25.38-10.49,45.55-30.65,56.04-56.04l15.33-37.11c1.2-2.89,5.29-2.89,6.49,0Z"/>
    <polygon class="cls-1" points="216.67 87.18 210.53 68.23 192.4 63.31 210.03 56.84 214.51 37.43 220.65 56.38 238.78 61.3 221.15 67.77 216.67 87.18"/>
    <circle class="cls-1" cx="32.72" cy="231.63" r="22.72"/>
  </g>
</svg>