<svg width="32" height="32" viewBox="0 0 32 32" fill="none" xmlns="http://www.w3.org/2000/svg">
<path d="M22.6666 25.3334C22.313 25.3334 21.9739 25.1929 21.7238 24.9429C21.4738 24.6928 21.3333 24.3537 21.3333 24.0001V21.3334C21.3333 20.6262 21.6143 19.9479 22.1144 19.4478C22.6145 18.9477 23.2927 18.6667 24 18.6667H26.6666C27.3739 18.6667 28.0522 18.9477 28.5523 19.4478C29.0524 19.9479 29.3333 20.6262 29.3333 21.3334V24.0001C29.3333 24.3537 29.1928 24.6928 28.9428 24.9429C28.6927 25.1929 28.3536 25.3334 28 25.3334H22.6666Z" stroke="#FF4172" stroke-width="2.66667" stroke-linecap="round" stroke-linejoin="round"/>
<path d="M22.6667 27.9999V25.3333" stroke="#FF4172" stroke-width="2.66667" stroke-linecap="round" stroke-linejoin="round"/>
<path d="M25.3334 18.6667V8.66667C25.3334 7.42899 24.8417 6.24201 23.9665 5.36684C23.0913 4.49167 21.9044 4 20.6667 4C19.429 4 18.242 4.49167 17.3669 5.36684C16.4917 6.24201 16 7.42899 16 8.66667V23.3333C16 24.571 15.5084 25.758 14.6332 26.6332C13.758 27.5083 12.571 28 11.3334 28C10.0957 28 8.90869 27.5083 8.03352 26.6332C7.15835 25.758 6.66669 24.571 6.66669 23.3333V13.3333" stroke="#FF4172" stroke-width="2.66667" stroke-linecap="round" stroke-linejoin="round"/>
<path d="M28 27.9999V25.3333" stroke="#FF4172" stroke-width="2.66667" stroke-linecap="round" stroke-linejoin="round"/>
<path d="M4 6.66667V4" stroke="#FF4172" stroke-width="2.66667" stroke-linecap="round" stroke-linejoin="round"/>
<path d="M5.33335 13.3334C4.62611 13.3334 3.94783 13.0525 3.44774 12.5524C2.94764 12.0523 2.66669 11.374 2.66669 10.6667V8.00008C2.66669 7.64646 2.80716 7.30732 3.05721 7.05727C3.30726 6.80722 3.6464 6.66675 4.00002 6.66675H9.33335C9.68698 6.66675 10.0261 6.80722 10.2762 7.05727C10.5262 7.30732 10.6667 7.64646 10.6667 8.00008V10.6667C10.6667 11.374 10.3857 12.0523 9.88564 12.5524C9.38554 13.0525 8.70726 13.3334 8.00002 13.3334H5.33335Z" stroke="#FF4172" stroke-width="2.66667" stroke-linecap="round" stroke-linejoin="round"/>
<path d="M9.33331 6.66667V4" stroke="#FF4172" stroke-width="2.66667" stroke-linecap="round" stroke-linejoin="round"/>
</svg>
