<svg width="32" height="32" viewBox="0 0 32 32" fill="none" xmlns="http://www.w3.org/2000/svg">
<path d="M5.13335 11.4934C4.93873 10.6168 4.96862 9.70517 5.22022 8.84317C5.47183 7.98116 5.93701 7.19664 6.57264 6.56234C7.20827 5.92805 7.99376 5.46451 8.85629 5.21471C9.71882 4.96491 10.6305 4.93694 11.5067 5.13338C11.989 4.37912 12.6534 3.75839 13.4386 3.32843C14.2239 2.89847 15.1047 2.6731 16 2.6731C16.8953 2.6731 17.7761 2.89847 18.5614 3.32843C19.3467 3.75839 20.0111 4.37912 20.4933 5.13338C21.3709 4.93608 22.2841 4.96393 23.148 5.21433C24.0119 5.46474 24.7985 5.92957 25.4345 6.56559C26.0705 7.2016 26.5353 7.98815 26.7857 8.85205C27.0361 9.71596 27.064 10.6292 26.8667 11.5067C27.6209 11.989 28.2417 12.6534 28.6716 13.4386C29.1016 14.2239 29.327 15.1048 29.327 16C29.327 16.8953 29.1016 17.7762 28.6716 18.5614C28.2417 19.3467 27.6209 20.0111 26.8667 20.4934C27.0631 21.3696 27.0352 22.2812 26.7854 23.1438C26.5356 24.0063 26.072 24.7918 25.4377 25.4274C24.8034 26.0631 24.0189 26.5282 23.1569 26.7798C22.2949 27.0314 21.3833 27.0613 20.5067 26.8667C20.025 27.6239 19.3601 28.2473 18.5735 28.6791C17.7869 29.111 16.904 29.3375 16.0067 29.3375C15.1093 29.3375 14.2264 29.111 13.4398 28.6791C12.6532 28.2473 11.9883 27.6239 11.5067 26.8667C10.6305 27.0632 9.71882 27.0352 8.85629 26.7854C7.99376 26.5356 7.20827 26.0721 6.57264 25.4378C5.93701 24.8035 5.47183 24.0189 5.22022 23.1569C4.96862 22.2949 4.93873 21.3833 5.13335 20.5067C4.37329 20.0257 3.74723 19.3603 3.31341 18.5723C2.87959 17.7844 2.6521 16.8995 2.6521 16C2.6521 15.1006 2.87959 14.2157 3.31341 13.4278C3.74723 12.6398 4.37329 11.9744 5.13335 11.4934Z" stroke="#FF4172" stroke-width="2.66667" stroke-linecap="round" stroke-linejoin="round"/>
<path d="M12 15.9999L14.6667 18.6666L20 13.3333" stroke="#FF4172" stroke-width="2.66667" stroke-linecap="round" stroke-linejoin="round"/>
</svg>
