<svg width="32" height="32" viewBox="0 0 32 32" fill="none" xmlns="http://www.w3.org/2000/svg">
<path d="M14.6667 22.6667L17.3334 25.3333C17.5961 25.596 17.9079 25.8043 18.251 25.9465C18.5942 26.0886 18.962 26.1618 19.3334 26.1618C19.7048 26.1618 20.0726 26.0886 20.4158 25.9465C20.759 25.8043 21.0708 25.596 21.3334 25.3333C21.5961 25.0707 21.8044 24.7589 21.9465 24.4157C22.0887 24.0726 22.1618 23.7048 22.1618 23.3333C22.1618 22.9619 22.0887 22.5941 21.9465 22.251C21.8044 21.9078 21.5961 21.596 21.3334 21.3333" stroke="#7871FF" stroke-width="2.66667" stroke-linecap="round" stroke-linejoin="round"/>
<path d="M18.6667 18.6667L22.0001 22C22.5305 22.5305 23.2499 22.8285 24.0001 22.8285C24.7502 22.8285 25.4696 22.5305 26.0001 22C26.5305 21.4696 26.8285 20.7502 26.8285 20C26.8285 19.2499 26.5305 18.5305 26.0001 18L20.8267 12.8267C20.0767 12.0776 19.0601 11.6569 18.0001 11.6569C16.9401 11.6569 15.9234 12.0776 15.1734 12.8267L14.0001 14C13.4696 14.5305 12.7502 14.8285 12.0001 14.8285C11.2499 14.8285 10.5305 14.5305 10.0001 14C9.46962 13.4696 9.17163 12.7502 9.17163 12C9.17163 11.2499 9.46962 10.5305 10.0001 10L13.7467 6.25336C14.963 5.04022 16.5493 4.26743 18.2542 4.05733C19.9592 3.84722 21.6856 4.21181 23.1601 5.09336L23.7867 5.4667C24.3544 5.80935 25.0295 5.92819 25.6801 5.80003L28.0001 5.33336" stroke="#7871FF" stroke-width="2.66667" stroke-linecap="round" stroke-linejoin="round"/>
<path d="M28.0001 4L29.3334 18.6667H26.6667" stroke="#7871FF" stroke-width="2.66667" stroke-linecap="round" stroke-linejoin="round"/>
<path d="M4.00008 4L2.66675 18.6667L11.3334 27.3333C11.8638 27.8638 12.5833 28.1618 13.3334 28.1618C14.0836 28.1618 14.803 27.8638 15.3334 27.3333C15.8638 26.8029 16.1618 26.0835 16.1618 25.3333C16.1618 24.5832 15.8638 23.8638 15.3334 23.3333" stroke="#7871FF" stroke-width="2.66667" stroke-linecap="round" stroke-linejoin="round"/>
<path d="M4 5.33334H14.6667" stroke="#7871FF" stroke-width="2.66667" stroke-linecap="round" stroke-linejoin="round"/>
</svg>
