<svg width="32" height="41" viewBox="0 0 32 41" fill="none" xmlns="http://www.w3.org/2000/svg">
<path d="M26.6667 19.3334C26.6667 25.9907 19.2814 32.924 16.8014 35.0654C16.5703 35.2391 16.2891 35.333 16 35.333C15.711 35.333 15.4297 35.2391 15.1987 35.0654C12.7187 32.924 5.33337 25.9907 5.33337 19.3334C5.33337 16.5044 6.45718 13.7913 8.45757 11.7909C10.458 9.79049 13.1711 8.66669 16 8.66669C18.829 8.66669 21.5421 9.79049 23.5425 11.7909C25.5429 13.7913 26.6667 16.5044 26.6667 19.3334Z" stroke="#FF4172" stroke-width="2.66667" stroke-linecap="round" stroke-linejoin="round"/>
<path d="M16 23.3333C18.2091 23.3333 20 21.5425 20 19.3333C20 17.1242 18.2091 15.3333 16 15.3333C13.7909 15.3333 12 17.1242 12 19.3333C12 21.5425 13.7909 23.3333 16 23.3333Z" stroke="#FF4172" stroke-width="2.66667" stroke-linecap="round" stroke-linejoin="round"/>
</svg>
