<svg width="32" height="40" viewBox="0 0 32 40" fill="none" xmlns="http://www.w3.org/2000/svg">
<path d="M9.33337 22V16.6667C9.33337 14.8986 10.0358 13.2029 11.286 11.9526C12.5362 10.7024 14.2319 10 16 10C17.7682 10 19.4638 10.7024 20.7141 11.9526C21.9643 13.2029 22.6667 14.8986 22.6667 16.6667V22" stroke="#FF4172" stroke-width="2.66667" stroke-linecap="round" stroke-linejoin="round"/>
<path d="M25.3333 22H6.66667C5.19391 22 4 23.1939 4 24.6667V34C4 35.4728 5.19391 36.6667 6.66667 36.6667H25.3333C26.8061 36.6667 28 35.4728 28 34V24.6667C28 23.1939 26.8061 22 25.3333 22Z" stroke="#FF4172" stroke-width="2.66667" stroke-linecap="round" stroke-linejoin="round"/>
</svg>
