<svg width="32" height="32" viewBox="0 0 32 32" fill="none" xmlns="http://www.w3.org/2000/svg">
<path d="M13.3334 29.3333V9.33333C13.3334 8.97971 13.1929 8.64057 12.9429 8.39052C12.6928 8.14048 12.3537 8 12.0001 8H5.33341C4.62617 8 3.94789 8.28095 3.4478 8.78105C2.9477 9.28115 2.66675 9.95942 2.66675 10.6667V26.6667C2.66675 27.3739 2.9477 28.0522 3.4478 28.5523C3.94789 29.0524 4.62617 29.3333 5.33341 29.3333H21.3334C22.0407 29.3333 22.7189 29.0524 23.219 28.5523C23.7191 28.0522 24.0001 27.3739 24.0001 26.6667V20C24.0001 19.6464 23.8596 19.3072 23.6096 19.0572C23.3595 18.8071 23.0204 18.6667 22.6667 18.6667H2.66675" stroke="#FF4172" stroke-width="2.66667" stroke-linecap="round" stroke-linejoin="round"/>
<path d="M28.0001 2.66669H20.0001C19.2637 2.66669 18.6667 3.26364 18.6667 4.00002V12C18.6667 12.7364 19.2637 13.3334 20.0001 13.3334H28.0001C28.7365 13.3334 29.3334 12.7364 29.3334 12V4.00002C29.3334 3.26364 28.7365 2.66669 28.0001 2.66669Z" stroke="#FF4172" stroke-width="2.66667" stroke-linecap="round" stroke-linejoin="round"/>
</svg>
