<svg width="9" height="15" viewBox="0 0 9 15" fill="none" xmlns="http://www.w3.org/2000/svg">
<path d="M0 14.375C0 14.2057 0.061849 14.0592 0.185547 13.9355L6.61133 7.5L0.185547 1.06445C0.061849 0.940755 0 0.794271 0 0.625C0 0.455729 0.061849 0.309245 0.185547 0.185547C0.309245 0.061849 0.455729 0 0.625 0C0.794271 0 0.940755 0.061849 1.06445 0.185547L7.93945 7.06055C8.06315 7.18424 8.125 7.33073 8.125 7.5C8.125 7.66927 8.06315 7.81576 7.93945 7.93945L1.06445 14.8145C0.940755 14.9382 0.794271 15 0.625 15C0.455729 15 0.309245 14.9382 0.185547 14.8145C0.061849 14.6908 0 14.5443 0 14.375Z" fill="white"/>
</svg>
