<svg width="20" height="15" viewBox="0 0 20 15" fill="none" xmlns="http://www.w3.org/2000/svg">
<mask id="path-1-outside-1_260_741" maskUnits="userSpaceOnUse" x="-0.25" y="-0.25" width="20" height="15" fill="black">
<rect fill="white" x="-0.25" y="-0.25" width="20" height="15"/>
<path d="M0.75 7.5C0.75 7.29688 0.824219 7.12109 0.972656 6.97266C1.12109 6.82422 1.29688 6.75 1.5 6.75C1.70312 6.75 1.87891 6.82422 2.02734 6.97266L6.75 11.6836L17.4727 0.972656C17.6211 0.824219 17.7969 0.75 18 0.75C18.2031 0.75 18.3789 0.824219 18.5273 0.972656C18.6758 1.12109 18.75 1.29688 18.75 1.5C18.75 1.70312 18.6758 1.87891 18.5273 2.02734L7.27734 13.2773C7.12891 13.4258 6.95312 13.5 6.75 13.5C6.54688 13.5 6.37109 13.4258 6.22266 13.2773L0.972656 8.02734C0.824219 7.87891 0.75 7.70312 0.75 7.5Z"/>
</mask>
<path d="M0.75 7.5C0.75 7.29688 0.824219 7.12109 0.972656 6.97266C1.12109 6.82422 1.29688 6.75 1.5 6.75C1.70312 6.75 1.87891 6.82422 2.02734 6.97266L6.75 11.6836L17.4727 0.972656C17.6211 0.824219 17.7969 0.75 18 0.75C18.2031 0.75 18.3789 0.824219 18.5273 0.972656C18.6758 1.12109 18.75 1.29688 18.75 1.5C18.75 1.70312 18.6758 1.87891 18.5273 2.02734L7.27734 13.2773C7.12891 13.4258 6.95312 13.5 6.75 13.5C6.54688 13.5 6.37109 13.4258 6.22266 13.2773L0.972656 8.02734C0.824219 7.87891 0.75 7.70312 0.75 7.5Z" fill="#F9C500"/>
<path d="M0.75 7.5C0.75 7.29688 0.824219 7.12109 0.972656 6.97266C1.12109 6.82422 1.29688 6.75 1.5 6.75C1.70312 6.75 1.87891 6.82422 2.02734 6.97266L6.75 11.6836L17.4727 0.972656C17.6211 0.824219 17.7969 0.75 18 0.75C18.2031 0.75 18.3789 0.824219 18.5273 0.972656C18.6758 1.12109 18.75 1.29688 18.75 1.5C18.75 1.70312 18.6758 1.87891 18.5273 2.02734L7.27734 13.2773C7.12891 13.4258 6.95312 13.5 6.75 13.5C6.54688 13.5 6.37109 13.4258 6.22266 13.2773L0.972656 8.02734C0.824219 7.87891 0.75 7.70312 0.75 7.5Z" fill="#F9C500"/>
<path d="M2.02734 6.97266L1.49701 7.50299L1.49767 7.50364L2.02734 6.97266ZM6.75 11.6836L6.22033 12.2146L6.75037 12.7433L7.28004 12.2142L6.75 11.6836ZM17.4727 0.972656L18.0027 1.50328L18.003 1.50299L17.4727 0.972656ZM0.75 7.5H1.5C1.5 7.4951 1.50042 7.49442 1.49993 7.49695C1.49941 7.49959 1.49834 7.50343 1.4966 7.50755C1.49488 7.51163 1.49343 7.51378 1.49349 7.51369C1.49364 7.51348 1.49619 7.50978 1.50299 7.50299L0.972656 6.97266L0.442326 6.44233C0.158496 6.72616 0 7.09065 0 7.5H0.75ZM0.972656 6.97266L1.50299 7.50299C1.50978 7.49619 1.51348 7.49364 1.51369 7.49349C1.51378 7.49343 1.51163 7.49488 1.50755 7.4966C1.50343 7.49834 1.49959 7.49941 1.49695 7.49993C1.49442 7.50043 1.4951 7.5 1.5 7.5V6.75V6C1.09065 6 0.726156 6.1585 0.442326 6.44233L0.972656 6.97266ZM1.5 6.75V7.5C1.5049 7.5 1.50558 7.50043 1.50305 7.49993C1.50041 7.49941 1.49657 7.49834 1.49245 7.4966C1.48837 7.49488 1.48622 7.49343 1.48631 7.49349C1.48652 7.49364 1.49022 7.49619 1.49701 7.50299L2.02734 6.97266L2.55767 6.44233C2.27384 6.1585 1.90935 6 1.5 6V6.75ZM2.02734 6.97266L1.49767 7.50364L6.22033 12.2146L6.75 11.6836L7.27967 11.1526L2.55701 6.44167L2.02734 6.97266ZM6.75 11.6836L7.28004 12.2142L18.0027 1.50328L17.4727 0.972656L16.9426 0.442036L6.21996 11.153L6.75 11.6836ZM17.4727 0.972656L18.003 1.50299C18.0098 1.49619 18.0135 1.49364 18.0137 1.49349C18.0138 1.49343 18.0116 1.49488 18.0075 1.4966C18.0034 1.49834 17.9996 1.49941 17.997 1.49993C17.9944 1.50043 17.9951 1.5 18 1.5V0.75V0C17.5906 0 17.2262 0.158497 16.9423 0.442326L17.4727 0.972656ZM18 0.75V1.5C18.0049 1.5 18.0056 1.50043 18.003 1.49993C18.0004 1.49941 17.9966 1.49834 17.9925 1.4966C17.9884 1.49488 17.9862 1.49343 17.9863 1.49349C17.9865 1.49364 17.9902 1.49619 17.997 1.50299L18.5273 0.972656L19.0577 0.442326C18.7738 0.158497 18.4094 0 18 0V0.75ZM18.5273 0.972656L17.997 1.50299C18.0038 1.50978 18.0064 1.51348 18.0065 1.51369C18.0066 1.51378 18.0051 1.51163 18.0034 1.50755C18.0017 1.50343 18.0006 1.4996 18.0001 1.49695C17.9996 1.49442 18 1.4951 18 1.5H18.75H19.5C19.5 1.09064 19.3415 0.726156 19.0577 0.442326L18.5273 0.972656ZM18.75 1.5H18C18 1.5049 17.9996 1.50558 18.0001 1.50305C18.0006 1.5004 18.0017 1.49657 18.0034 1.49245C18.0051 1.48837 18.0066 1.48622 18.0065 1.48631C18.0064 1.48652 18.0038 1.49022 17.997 1.49701L18.5273 2.02734L19.0577 2.55767C19.3415 2.27384 19.5 1.90936 19.5 1.5H18.75ZM18.5273 2.02734L17.997 1.49701L6.74701 12.747L7.27734 13.2773L7.80767 13.8077L19.0577 2.55767L18.5273 2.02734ZM7.27734 13.2773L6.74701 12.747C6.74022 12.7538 6.73652 12.7564 6.73631 12.7565C6.73622 12.7566 6.73837 12.7551 6.74245 12.7534C6.74657 12.7517 6.75041 12.7506 6.75305 12.7501C6.75558 12.7496 6.7549 12.75 6.75 12.75V13.5V14.25C7.15935 14.25 7.52384 14.0915 7.80767 13.8077L7.27734 13.2773ZM6.75 13.5V12.75C6.7451 12.75 6.74442 12.7496 6.74695 12.7501C6.74959 12.7506 6.75343 12.7517 6.75755 12.7534C6.76163 12.7551 6.76378 12.7566 6.76369 12.7565C6.76348 12.7564 6.75978 12.7538 6.75299 12.747L6.22266 13.2773L5.69233 13.8077C5.97616 14.0915 6.34065 14.25 6.75 14.25V13.5ZM6.22266 13.2773L6.75299 12.747L1.50299 7.49701L0.972656 8.02734L0.442326 8.55767L5.69233 13.8077L6.22266 13.2773ZM0.972656 8.02734L1.50299 7.49701C1.49619 7.49022 1.49364 7.48652 1.49349 7.48631C1.49343 7.48622 1.49488 7.48837 1.4966 7.49245C1.49834 7.49657 1.49941 7.50041 1.49993 7.50305C1.50042 7.50558 1.5 7.5049 1.5 7.5H0.75H0C0 7.90935 0.158496 8.27384 0.442326 8.55767L0.972656 8.02734Z" fill="#F9C500" mask="url(#path-1-outside-1_260_741)"/>
</svg>
