<svg width="111" height="36" viewBox="0 0 111 36" fill="none" xmlns="http://www.w3.org/2000/svg">
<path d="M10.2956 35.8635C8.35238 35.8635 6.61375 35.4715 5.07966 34.6874C3.55693 33.8919 2.34102 32.801 1.43193 31.4146C0.534202 30.0283 0.0569293 28.443 0.000111103 26.659H3.08534C3.18761 28.5112 3.91488 30.034 5.26716 31.2271C6.61943 32.409 8.29557 32.9999 10.2956 32.9999C11.8524 32.9999 13.2387 32.6305 14.4547 31.8919C15.6706 31.1419 16.6194 30.1192 17.3012 28.8237C17.9944 27.5169 18.341 26.0453 18.341 24.409C18.3297 22.7044 17.9603 21.2044 17.2331 19.909C16.5058 18.6021 15.5172 17.5794 14.2672 16.8408C13.0285 16.1021 11.6365 15.7328 10.091 15.7328C8.92057 15.7215 7.77284 15.9146 6.64784 16.3124C5.52284 16.7101 4.58534 17.2215 3.83534 17.8465L0.647838 17.4374L2.74443 0.477139H19.9944V3.34077H5.42057L4.02284 15.0169H4.19329C4.96602 14.3692 5.90352 13.8408 7.00579 13.4317C8.11943 13.0226 9.29557 12.818 10.5342 12.818C12.591 12.818 14.4376 13.3124 16.074 14.301C17.7217 15.2896 19.0228 16.6533 19.9774 18.3919C20.9433 20.1192 21.4262 22.1078 21.4262 24.3578C21.4262 26.5624 20.9433 28.534 19.9774 30.2726C19.0228 31.9999 17.7047 33.3635 16.0228 34.3635C14.3524 35.3635 12.4433 35.8635 10.2956 35.8635ZM39.52 35.8635C37.0655 35.8635 34.9689 35.159 33.2302 33.7499C31.503 32.3294 30.1734 30.2783 29.2416 27.5965C28.3211 24.9146 27.8609 21.693 27.8609 17.9317C27.8609 14.1817 28.3211 10.9715 29.2416 8.301C30.1734 5.61918 31.5086 3.56805 33.2473 2.14759C34.9973 0.715775 37.0882 -0.000134468 39.52 -0.000134468C41.9518 -0.000134468 44.037 0.715775 45.7757 2.14759C47.5257 3.56805 48.8609 5.61918 49.7814 8.301C50.7132 10.9715 51.1791 14.1817 51.1791 17.9317C51.1791 21.693 50.7132 24.9146 49.7814 27.5965C48.8609 30.2783 47.5314 32.3294 45.7927 33.7499C44.0655 35.159 41.9745 35.8635 39.52 35.8635ZM39.52 32.9999C42.2132 32.9999 44.3155 31.6874 45.8268 29.0624C47.3382 26.426 48.0939 22.7158 48.0939 17.9317C48.0939 14.7499 47.7473 12.034 47.0541 9.78396C46.3723 7.52259 45.3893 5.79532 44.1052 4.60214C42.8325 3.40896 41.3041 2.81237 39.52 2.81237C36.8495 2.81237 34.753 4.14191 33.2302 6.801C31.7075 9.44873 30.9461 13.159 30.9461 17.9317C30.9461 21.1135 31.287 23.8294 31.9689 26.0794C32.662 28.3294 33.645 30.0453 34.9177 31.2271C36.2018 32.409 37.7359 32.9999 39.52 32.9999ZM68.9575 35.8635C66.503 35.8635 64.4064 35.159 62.6677 33.7499C60.9405 32.3294 59.6109 30.2783 58.6791 27.5965C57.7586 24.9146 57.2984 21.693 57.2984 17.9317C57.2984 14.1817 57.7586 10.9715 58.6791 8.301C59.6109 5.61918 60.9461 3.56805 62.6848 2.14759C64.4348 0.715775 66.5257 -0.000134468 68.9575 -0.000134468C71.3893 -0.000134468 73.4745 0.715775 75.2132 2.14759C76.9632 3.56805 78.2984 5.61918 79.2189 8.301C80.1507 10.9715 80.6166 14.1817 80.6166 17.9317C80.6166 21.693 80.1507 24.9146 79.2189 27.5965C78.2984 30.2783 76.9689 32.3294 75.2302 33.7499C73.503 35.159 71.412 35.8635 68.9575 35.8635ZM68.9575 32.9999C71.6507 32.9999 73.753 31.6874 75.2643 29.0624C76.7757 26.426 77.5314 22.7158 77.5314 17.9317C77.5314 14.7499 77.1848 12.034 76.4916 9.78396C75.8098 7.52259 74.8268 5.79532 73.5427 4.60214C72.27 3.40896 70.7416 2.81237 68.9575 2.81237C66.287 2.81237 64.1905 4.14191 62.6677 6.801C61.145 9.44873 60.3836 13.159 60.3836 17.9317C60.3836 21.1135 60.7245 23.8294 61.4064 26.0794C62.0995 28.3294 63.0825 30.0453 64.3552 31.2271C65.6393 32.409 67.1734 32.9999 68.9575 32.9999ZM97.8495 28.7726V7.176H100.764V28.7726H97.8495ZM88.5086 19.4317V16.5169H110.105V19.4317H88.5086Z" fill="white"/>
</svg>
