<svg width="43" height="32" viewBox="0 0 43 32" fill="none" xmlns="http://www.w3.org/2000/svg">
<path d="M39.6969 4.64363C38.1965 3.11908 36.6452 1.54351 35.0361 0.098556C34.389 -0.163904 33.81 0.135292 33.52 0.555717C33.2522 0.945121 33.1279 1.59208 33.6593 2.13537L38.6346 7.14455L29.5016 7.14251C24.4586 7.5311 20.6335 11.3566 20.216 16.4445C20.1956 16.6919 20.1943 16.9388 20.1931 17.1776C20.1913 17.5605 20.1894 17.956 20.1121 18.385C19.4657 21.9709 16.1787 24.6305 12.6324 24.4391L12.4795 24.4309L12.4414 24.2828C11.9865 22.5215 10.8335 21.0251 9.27818 20.1773C8.35345 19.6736 7.34056 19.4185 6.31133 19.4185C5.63518 19.4185 4.9521 19.5283 4.28227 19.7504C2.40567 20.3716 0.965611 21.8178 0.330891 23.7174C-0.301584 25.6106 -0.0189167 27.6274 1.10643 29.2507C2.56302 31.352 4.90638 32.3427 7.37484 31.8937C9.86984 31.4427 11.8111 29.6185 12.441 27.1335L12.4812 26.9751L12.6446 26.9759H12.6975C17.693 26.9759 21.9495 23.3048 22.6105 18.4152C22.665 18.0127 22.6744 17.5944 22.6836 17.1898C22.694 16.7237 22.705 16.2412 22.7832 15.7653C23.3163 12.5166 26.2303 9.87324 29.5614 9.6169L38.634 9.61608L33.5175 14.7747C33.0201 15.3833 33.1757 16.0641 33.5565 16.4625C33.9045 16.8262 34.5592 17.0666 35.2574 16.5453C36.1317 15.6453 37.0683 14.7269 37.9742 13.8387C39.609 12.2354 41.299 10.5782 42.8256 8.84544C43.0087 8.39073 42.9115 7.89357 42.5628 7.50906C41.5995 6.57637 40.6323 5.59387 39.6969 4.64363Z" fill="white"/>
</svg>
