<svg width="68" height="68" viewBox="0 0 68 68" fill="none" xmlns="http://www.w3.org/2000/svg">
<rect width="68" height="68" rx="6" fill="#3B3B3B"/>
<path d="M34 24V52" stroke="white" stroke-width="4" stroke-linecap="round" stroke-linejoin="round"/>
<path d="M16 46C15.4696 46 14.9609 45.7893 14.5858 45.4142C14.2107 45.0391 14 44.5304 14 44V18C14 17.4696 14.2107 16.9609 14.5858 16.5858C14.9609 16.2107 15.4696 16 16 16H26C28.1217 16 30.1566 16.8429 31.6569 18.3431C33.1571 19.8434 34 21.8783 34 24C34 21.8783 34.8429 19.8434 36.3431 18.3431C37.8434 16.8429 39.8783 16 42 16H52C52.5304 16 53.0391 16.2107 53.4142 16.5858C53.7893 16.9609 54 17.4696 54 18V44C54 44.5304 53.7893 45.0391 53.4142 45.4142C53.0391 45.7893 52.5304 46 52 46H40C38.4087 46 36.8826 46.6321 35.7574 47.7574C34.6321 48.8826 34 50.4087 34 52C34 50.4087 33.3679 48.8826 32.2426 47.7574C31.1174 46.6321 29.5913 46 28 46H16Z" stroke="white" stroke-width="4" stroke-linecap="round" stroke-linejoin="round"/>
</svg>
