<svg width="15" height="18" viewBox="0 0 15 18" fill="none" xmlns="http://www.w3.org/2000/svg">
<path opacity="0.6" d="M13.5977 9.59869C13.5977 13.598 10.7981 15.5977 7.47069 16.7575C7.29645 16.8165 7.10718 16.8137 6.93478 16.7495C3.59934 15.5977 0.799805 13.598 0.799805 9.59869V3.99963C0.799805 3.78749 0.884076 3.58404 1.03408 3.43404C1.18408 3.28403 1.38753 3.19976 1.59967 3.19976C3.1994 3.19976 5.19907 2.23992 6.59083 1.02413C6.76029 0.87935 6.97585 0.799805 7.19873 0.799805C7.42161 0.799805 7.63718 0.87935 7.80663 1.02413C9.2064 2.24792 11.1981 3.19976 12.7978 3.19976C13.0099 3.19976 13.2134 3.28403 13.3634 3.43404C13.5134 3.58404 13.5977 3.78749 13.5977 3.99963V9.59869Z" stroke="white" stroke-width="1.59973" stroke-linecap="round" stroke-linejoin="round"/>
</svg>
