<?xml version="1.0" encoding="UTF-8"?>
<svg data-bbox="2 2.075 20 19.849" aria-hidden="true" class="lucide lucide-container w-12 h-12 text-primary" stroke-linejoin="round" stroke-linecap="round" stroke-width="2" stroke="currentColor" viewBox="0 0 24 24" height="24" width="24" xmlns="http://www.w3.org/2000/svg" data-type="ugc">
    <g>
        <path d="M22 7.7c0-.6-.4-1.2-.8-1.5l-6.3-3.9a1.72 1.72 0 0 0-1.7 0l-10.3 6c-.5.2-.9.8-.9 1.4v6.6c0 .5.4 1.2.8 1.5l6.3 3.9a1.72 1.72 0 0 0 1.7 0l10.3-6c.5-.3.9-1 .9-1.5Z" fill="none"/>
        <path d="M10 21.9V14L2.1 9.1" fill="none"/>
        <path d="m10 14 11.9-6.9" fill="none"/>
        <path d="M14 19.8v-8.1" fill="none"/>
        <path d="M18 17.5V9.4" fill="none"/>
    </g>
</svg>
