<svg width="64" height="64" viewBox="0 0 64 64" fill="none" xmlns="http://www.w3.org/2000/svg">
<path d="M58.6666 20.5332C58.6666 18.9332 57.5999 17.3332 56.5333 16.5332L39.7332 6.13316C39.0424 5.74042 38.2613 5.53394 37.4666 5.53394C36.6719 5.53394 35.8908 5.74042 35.1999 6.13316L7.73325 22.1332C6.39992 22.6665 5.33325 24.2665 5.33325 25.8665V43.4665C5.33325 44.7998 6.39992 46.6665 7.46659 47.4665L24.2666 57.8665C24.9575 58.2592 25.7385 58.4657 26.5333 58.4657C27.328 58.4657 28.109 58.2592 28.7999 57.8665L56.2666 41.8665C57.5999 41.0665 58.6666 39.1998 58.6666 37.8665V20.5332Z" stroke="white" stroke-width="5.33333" stroke-linecap="round" stroke-linejoin="round"/>
<path d="M26.6668 58.4002V37.3335L5.6001 24.2668" stroke="white" stroke-width="5.33333" stroke-linecap="round" stroke-linejoin="round"/>
<path d="M26.6667 37.3336L58.4001 18.9336" stroke="white" stroke-width="5.33333" stroke-linecap="round" stroke-linejoin="round"/>
<path d="M37.3333 52.8V31.2" stroke="white" stroke-width="5.33333" stroke-linecap="round" stroke-linejoin="round"/>
<path d="M48 46.6664V25.0664" stroke="white" stroke-width="5.33333" stroke-linecap="round" stroke-linejoin="round"/>
</svg>
