<svg width="59" height="59" viewBox="0 0 59 59" fill="none" xmlns="http://www.w3.org/2000/svg">
<path d="M27.7454 0.549489C50.8579 -0.764851 66.3209 24.3656 54.3469 44.3416C43.1069 63.0933 15.8569 63.0887 4.61936 44.3416C-6.5303 25.7411 6.21641 1.77378 27.7454 0.549489ZM27.8359 4.44C9.27568 5.46622 -1.57581 26.2345 7.87654 42.2606C17.7014 58.9185 42.1936 58.5334 51.4847 41.5698C61.0661 24.0759 47.5659 3.3491 27.8359 4.44ZM25.2212 35.2111L24.8913 35.4336L18.7432 29.3044L18.4861 29.3797L16.0086 32.0417L24.8236 41.0549L42.9244 22.689L42.8792 22.4608L40.2952 19.8866C39.0471 21.0657 37.8936 22.3427 36.6896 23.563C32.8637 27.441 29.0029 31.2883 25.2212 35.2111Z" fill="white" stroke="white"/>
</svg>
