<?xml version="1.0" encoding="UTF-8"?>
<svg data-bbox="0.75 0.857 29 28.952" xmlns="http://www.w3.org/2000/svg" viewBox="0 0 31 31" height="31" width="31" data-type="ugc">
    <g>
        <path stroke="#169000" fill="#169000" d="M14.372.882C25.93.225 33.66 12.79 27.673 22.778c-5.62 9.376-19.245 9.374-24.864 0-5.575-9.3.799-21.284 11.563-21.896Zm.046 1.945c-9.28.514-14.706 10.898-9.98 18.91 4.912 8.33 17.159 8.137 21.804-.345 4.79-8.747-1.96-19.11-11.824-18.565ZM13.11 18.213l-.165.111-3.074-3.064-.128.037-1.24 1.331 4.408 4.507 9.05-9.183-.022-.114-1.292-1.287c-.624.59-1.2 1.228-1.802 1.838-1.913 1.939-3.844 3.863-5.735 5.824Z"/>
    </g>
</svg>
