<?xml version="1.0" encoding="UTF-8"?>
<svg data-bbox="3 3.048 58 57.903" viewBox="0 0 64 64" xmlns="http://www.w3.org/2000/svg" data-type="shape">
    <g>
        <path d="M30.245 3.098C53.357 1.783 68.82 26.914 56.846 46.89c-11.24 18.751-38.49 18.747-49.727 0-11.15-18.6 1.597-42.568 23.126-43.792m.09 3.89C11.775 8.014.923 28.783 10.375 44.808c9.826 16.659 34.318 16.274 43.609-.69 9.581-17.494-3.919-38.22-23.649-37.13M27.721 37.76l-.33.223-6.149-6.13-.257.076-2.477 2.662 8.815 9.013 18.1-18.366-.045-.228-2.584-2.574c-1.248 1.179-2.401 2.456-3.605 3.676-3.826 3.878-7.687 7.725-11.468 11.648"/>
    </g>
</svg>
