<svg width="48" height="48" viewBox="0 0 48 48" fill="none" xmlns="http://www.w3.org/2000/svg">
<path d="M22.6835 2.32325C40.0179 1.33749 51.6151 20.1854 42.6347 35.1674C34.2046 49.2311 13.7671 49.2276 5.33897 35.1674C-3.02327 21.217 6.53676 3.24147 22.6835 2.32325ZM22.7514 5.24113C8.83121 6.0108 0.692595 21.587 7.78185 33.6066C15.1505 46.1 33.5197 45.8112 40.4879 33.0885C47.674 19.9681 37.5489 4.42296 22.7514 5.24113ZM20.7904 28.3195L20.5429 28.4863L15.9319 23.8895L15.739 23.9459L13.8809 25.9424L20.4921 32.7023L34.0677 18.9279L34.0338 18.7568L32.0958 16.8261C31.1597 17.7104 30.2947 18.6682 29.3917 19.5834C26.5222 22.4919 23.6266 25.3774 20.7904 28.3195Z" fill="white"/>
</svg>
