<svg width="16" height="14" viewBox="0 0 16 14" fill="none" xmlns="http://www.w3.org/2000/svg">
<path d="M14.5 0C14.7031 0 14.8958 0.0390625 15.0781 0.117188C15.2604 0.195312 15.4193 0.304688 15.5547 0.445312C15.6953 0.580729 15.8047 0.739583 15.8828 0.921875C15.9609 1.10417 16 1.29688 16 1.5V8.5C16 8.70312 15.9609 8.89583 15.8828 9.07812C15.8047 9.26042 15.6953 9.42188 15.5547 9.5625C15.4193 9.69792 15.2604 9.80469 15.0781 9.88281C14.8958 9.96094 14.7031 10 14.5 10H12V12.5C12 12.7031 11.9609 12.8958 11.8828 13.0781C11.8047 13.2604 11.6953 13.4219 11.5547 13.5625C11.4193 13.6979 11.2604 13.8047 11.0781 13.8828C10.8958 13.9609 10.7031 14 10.5 14H1.5C1.29688 14 1.10417 13.9609 0.921875 13.8828C0.739583 13.8047 0.578125 13.6979 0.4375 13.5625C0.302083 13.4219 0.195312 13.2604 0.117188 13.0781C0.0390625 12.8958 0 12.7031 0 12.5V5.5C0 5.29688 0.0390625 5.10417 0.117188 4.92188C0.195312 4.73958 0.302083 4.58073 0.4375 4.44531C0.578125 4.30469 0.739583 4.19531 0.921875 4.11719C1.10417 4.03906 1.29688 4 1.5 4H4V1.5C4 1.29688 4.03906 1.10417 4.11719 0.921875C4.19531 0.739583 4.30208 0.580729 4.4375 0.445312C4.57812 0.304688 4.73958 0.195312 4.92188 0.117188C5.10417 0.0390625 5.29688 0 5.5 0H14.5ZM15 1.5C15 1.36458 14.9505 1.2474 14.8516 1.14844C14.7526 1.04948 14.6354 1 14.5 1H5.5C5.36458 1 5.2474 1.04948 5.14844 1.14844C5.04948 1.2474 5 1.36458 5 1.5V8.5C5 8.63542 5.04948 8.7526 5.14844 8.85156C5.2474 8.95052 5.36458 9 5.5 9H14.5C14.6354 9 14.7526 8.95052 14.8516 8.85156C14.9505 8.7526 15 8.63542 15 8.5V1.5ZM11 10H5.5C5.29688 10 5.10417 9.96094 4.92188 9.88281C4.73958 9.80469 4.57812 9.69792 4.4375 9.5625C4.30208 9.42188 4.19531 9.26042 4.11719 9.07812C4.03906 8.89583 4 8.70312 4 8.5V5H1.5C1.36458 5 1.2474 5.04948 1.14844 5.14844C1.04948 5.2474 1 5.36458 1 5.5V12.5C1 12.6354 1.04948 12.7526 1.14844 12.8516C1.2474 12.9505 1.36458 13 1.5 13H10.5C10.6354 13 10.7526 12.9505 10.8516 12.8516C10.9505 12.7526 11 12.6354 11 12.5V10Z" fill="white"/>
</svg>
