<svg width="66" height="64" viewBox="0 0 66 64" fill="none" xmlns="http://www.w3.org/2000/svg">
<path d="M17.8266 61.2144H0.830322V59.1807C0.830322 52.4645 6.27483 47.02 12.991 47.02C15.9992 47.02 18.7524 48.1123 20.8754 49.922" stroke="white" stroke-width="1.66063" stroke-miterlimit="10"/>
<path d="M12.9909 46.7235C16.9572 46.7235 20.1724 43.5082 20.1724 39.5419C20.1724 35.5756 16.9572 32.3604 12.9909 32.3604C9.02462 32.3604 5.80933 35.5756 5.80933 39.5419C5.80933 43.5082 9.02462 46.7235 12.9909 46.7235Z" stroke="white" stroke-width="1.66063" stroke-miterlimit="10"/>
<path d="M20.6505 49.942C23.3748 46.1622 27.8152 43.7017 32.8303 43.7017C41.1166 43.7017 47.834 50.419 47.834 58.7053V61.2145H17.8267V58.7053C17.8267 55.4341 18.8735 52.4074 20.6505 49.942Z" stroke="white" stroke-width="1.66063" stroke-miterlimit="10"/>
<path d="M32.8302 43.5823C38.0245 43.5823 42.2353 39.3714 42.2353 34.1771C42.2353 28.9828 38.0245 24.772 32.8302 24.772C27.6359 24.772 23.425 28.9828 23.425 34.1771C23.425 39.3714 27.6359 43.5823 32.8302 43.5823Z" stroke="white" stroke-width="1.66063" stroke-miterlimit="10"/>
<path d="M44.8916 49.8323C46.9998 48.0763 49.7114 47.02 52.6696 47.02C59.3858 47.02 64.8303 52.4645 64.8303 59.1807V61.2144H47.9073" stroke="white" stroke-width="1.66063" stroke-miterlimit="10"/>
<path d="M52.6696 46.7235C56.6359 46.7235 59.8512 43.5082 59.8512 39.5419C59.8512 35.5756 56.6359 32.3604 52.6696 32.3604C48.7033 32.3604 45.488 35.5756 45.488 39.5419C45.488 43.5082 48.7033 46.7235 52.6696 46.7235Z" stroke="white" stroke-width="1.66063" stroke-miterlimit="10"/>
<path d="M13.6564 18.8942L16.7026 18.8079C17.2743 18.7917 17.5328 19.5166 17.0797 19.8658L14.6661 21.7261C14.4635 21.8822 14.3845 22.1511 14.4704 22.392L15.4938 25.2624C15.6858 25.8012 15.0763 26.271 14.6042 25.948L12.0891 24.2273C11.878 24.0829 11.5979 24.0909 11.3953 24.247L8.98164 26.1073C8.5286 26.4565 7.89343 26.0219 8.05471 25.4731L8.91394 22.5494C8.98606 22.304 8.89195 22.0401 8.68083 21.8956L6.16574 20.175C5.69366 19.852 5.91065 19.1137 6.4824 19.0975L9.52853 19.0112C9.78423 19.0039 10.0062 18.8329 10.0783 18.5874L10.9375 15.6637C11.0988 15.1149 11.8681 15.0932 12.0602 15.6319L13.0836 18.5023C13.1695 18.7432 13.4007 18.9015 13.6564 18.8942Z" stroke="white" stroke-width="1.66063" stroke-miterlimit="10"/>
<path d="M35.6342 8.95985L41.3544 8.79778C41.9261 8.78159 42.1846 9.50649 41.7315 9.85566L37.1991 13.349C36.9965 13.5051 36.9175 13.774 37.0034 14.0149L38.9251 19.405C39.1172 19.9438 38.5077 20.4136 38.0356 20.0906L33.3126 16.8595C33.1015 16.7151 32.8214 16.723 32.6188 16.8792L28.0864 20.3725C27.6333 20.7217 26.9981 20.2871 27.1594 19.7384L28.7729 14.2481C28.845 14.0027 28.7509 13.7387 28.5398 13.5943L23.8169 10.3632C23.3448 10.0402 23.5618 9.30187 24.1335 9.28567L29.8537 9.12361C30.1094 9.11637 30.3313 8.9453 30.4034 8.69988L32.0169 3.20962C32.1782 2.66085 32.9475 2.63905 33.1396 3.17781L35.0613 8.56792C35.1472 8.80886 35.3785 8.96709 35.6342 8.95985Z" stroke="white" stroke-width="1.66063" stroke-miterlimit="10"/>
<path d="M56.0983 18.8942L59.1445 18.8079C59.7162 18.7917 59.9747 19.5166 59.5216 19.8658L57.108 21.7261C56.9054 21.8822 56.8264 22.1511 56.9123 22.392L57.9357 25.2624C58.1277 25.8012 57.5182 26.271 57.0461 25.948L54.531 24.2273C54.3199 24.0829 54.0398 24.0909 53.8372 24.247L51.4235 26.1073C50.9705 26.4565 50.3353 26.0219 50.4966 25.4731L51.3558 22.5494C51.428 22.304 51.3338 22.0401 51.1227 21.8956L48.6076 20.175C48.1356 19.852 48.3525 19.1137 48.9243 19.0975L51.9704 19.0112C52.2261 19.0039 52.4481 18.8329 52.5202 18.5874L53.3794 15.6637C53.5407 15.1149 54.31 15.0932 54.5021 15.6319L55.5255 18.5023C55.6114 18.7432 55.8426 18.9015 56.0983 18.8942Z" stroke="white" stroke-width="1.66063" stroke-miterlimit="10"/>
</svg>
