<svg width="64" height="64" viewBox="0 0 64 64" fill="none" xmlns="http://www.w3.org/2000/svg">
<path d="M58.1217 38.0317C57.1255 35.0732 56.0955 32.0139 54.9438 29.0696C54.9084 28.9793 54.8731 28.8806 54.8365 28.7777C54.6861 28.356 54.4991 27.8311 54.1957 27.6876C54.0785 27.6323 53.9383 27.6341 53.7675 27.6944L46.1477 30.933C45.7561 31.3998 45.8907 31.7796 46.2593 32.4559L46.2983 32.5273L46.2926 32.6087C46.2847 32.7204 46.2605 33.0601 44.9882 33.1937C43.0024 33.4015 41.1346 32.8226 39.1567 32.2098C36.6803 31.4422 34.1193 30.6487 31.2848 31.5268C30.9489 31.631 30.302 32.0282 29.8738 32.2911C29.4677 32.5405 29.396 32.5815 29.3077 32.5947C28.9069 32.6549 28.2467 32.5526 27.482 32.4344C26.8147 32.3312 26.1238 32.2243 25.6544 32.2414C24.2635 32.2914 23.5686 32.6372 22.6889 33.075C22.2916 33.2728 21.8808 33.4773 21.3609 33.679C19.9344 34.2334 19.0583 33.9912 17.7322 33.6249L17.4723 33.5531L17.5095 33.3088C17.5609 32.9719 17.6856 32.6624 17.8063 32.363C18.0988 31.6366 18.2135 31.27 17.6244 30.8781C16.635 30.2201 15.2035 29.7148 13.8192 29.2261C12.524 28.7691 11.1851 28.2964 10.1566 27.6855C9.966 27.6184 9.74758 27.6368 9.56543 27.7325L2.66675 47.5792C2.73602 47.7666 2.83857 47.8893 2.97223 47.9445L10.5852 51.1362C10.9561 51.1584 11.1631 50.7478 11.343 50.3244C11.441 50.0943 11.5116 49.928 11.7035 49.8968C12.0483 49.8362 13.4297 50.6341 13.5421 50.7588C13.8422 51.0921 13.7565 51.4167 13.6998 51.6316C13.6754 51.7238 13.6543 51.8036 13.6611 51.8712C13.7725 52.9891 14.2448 53.6932 15.1046 54.0241C15.2402 54.0761 15.4879 54.114 15.7066 54.1474C16.0676 54.2026 16.2784 54.2383 16.4144 54.3312C16.502 54.3911 16.5497 54.4821 16.6649 54.702C16.833 55.0229 17.1142 55.5599 17.4555 55.7962C17.7398 55.993 18.1571 56.0783 18.5252 56.1537C18.886 56.2276 19.1709 56.2858 19.3531 56.4403C19.491 56.5572 19.5631 56.7449 19.6394 56.9436C19.6927 57.0826 19.748 57.2262 19.8176 57.3233C20.3221 58.0254 20.9783 58.1411 21.5056 58.234C21.8077 58.2873 22.0686 58.3332 22.247 58.4893C22.3283 58.5604 22.3746 58.6654 22.4807 58.917C22.5874 59.1698 22.7483 59.5516 22.9193 59.7308C23.5077 60.3467 24.2058 60.4273 24.6865 60.3864C25.598 60.309 26.5384 59.7377 27.082 58.931L27.2905 58.6213L27.5275 58.9098C28.247 59.7851 29.6799 61.2713 31.1942 61.3909C31.8784 61.4452 32.5248 61.2085 33.1124 60.6874C33.3511 60.4759 33.5574 60.0505 33.6806 59.7964C33.7757 59.6002 33.8113 59.5269 33.8916 59.4709C33.9963 59.3982 34.1059 59.4038 34.3724 59.4173C34.839 59.4414 35.7075 59.4853 36.3232 59.1031C36.672 58.8864 37.0814 58.2891 37.326 57.9321C37.5174 57.653 37.5764 57.5702 37.6626 57.5179C37.7824 57.4451 37.8795 57.4639 38.3452 57.5538C38.6755 57.6175 39.1728 57.7145 39.39 57.6963C40.598 57.5965 41.7379 56.5578 41.9851 55.3315L42.0389 55.0647L42.3068 55.1127C43.4688 55.3201 44.3434 55.2699 45.1109 54.3789C45.3918 54.0528 45.5893 53.7669 45.7804 53.4903C46.1227 52.9951 46.4461 52.5273 47.1661 51.9204C48.7708 50.5682 50.371 49.6327 51.9224 49.1399L52.1337 49.0728L52.2463 49.2639C52.3802 49.4915 52.4681 49.7661 52.5533 50.0315C52.7797 50.7385 52.9282 51.0551 53.3751 51.0209C54.4593 50.524 55.6078 50.075 56.7191 49.6406C58.0172 49.133 59.3597 48.6082 60.5957 48.0078C60.6694 47.9719 60.7381 47.9395 60.8023 47.9093C61.3795 47.6372 61.3973 47.6289 61.2675 46.9137C60.1277 43.9895 59.1079 40.9608 58.1217 38.0317ZM10.2969 49.5808L4.0806 46.9264L10.1757 29.2321L16.6081 31.6601L10.2969 49.5808ZM16.9372 52.6183C16.6911 52.8459 16.3291 52.9885 15.98 52.9885C15.7122 52.9885 15.4519 52.9045 15.2574 52.7105C14.8964 52.3501 14.9883 51.6905 15.1309 51.3595C15.262 51.056 16.3291 49.7392 16.4503 49.5901C17.6818 48.0753 17.8508 48.0238 17.9417 47.9961C18.4021 47.8561 18.8723 47.963 19.1675 48.2762C19.4483 48.5738 19.521 49.008 19.3622 49.4378C19.2458 49.7527 17.1389 52.4318 16.9372 52.6183ZM19.7641 54.6481C19.4427 54.893 19.0956 55.0183 18.7772 55.0183C18.5415 55.0183 18.3216 54.9497 18.1396 54.81C17.7508 54.5117 17.652 53.979 17.8815 53.4198C18.0146 53.0954 19.6218 51.1004 19.8737 50.8268L19.8898 50.8094C20.3533 50.3055 20.728 49.9637 21.0492 49.9337C21.3861 49.9014 21.7095 50.0537 21.9363 50.3491C22.2201 50.7185 22.3009 51.2344 22.1424 51.6637C22.0182 51.9998 20.0242 54.4499 19.7641 54.6481ZM22.5868 56.7956L22.5651 56.8419L22.5284 56.8774C22.3424 57.0569 22.1023 57.1481 21.8468 57.1481C21.6353 57.1481 21.4132 57.0857 21.2023 56.9597C20.7448 56.6864 20.5163 56.2229 20.6337 55.8063C20.7824 55.2778 21.3797 54.6067 22.0121 53.8962C22.4872 53.3622 22.9787 52.8102 23.1652 52.424L23.1904 52.3717L23.2344 52.3338C23.503 52.1033 23.9314 51.83 24.5451 52.1183C24.9714 52.3186 25.1119 52.6173 25.1547 52.8325C25.3265 53.6981 24.304 54.8187 23.4018 55.8074C23.0301 56.2148 22.679 56.5995 22.5868 56.7956ZM27.9916 55.5568C27.8614 55.9002 25.8804 58.4042 25.6291 58.6538C25.4447 58.8367 25.0451 59.2333 24.5584 59.2333C24.3538 59.2333 24.1338 59.1633 23.9079 58.9777C23.5405 58.6758 23.3418 57.978 23.6462 57.5645L26.1108 54.477L26.1347 54.4578C26.6154 54.071 27.256 54.1518 27.6402 54.4307C28.0168 54.7041 28.1514 55.1356 27.9916 55.5568ZM43.7759 53.907C43.1313 54.2183 42.2518 53.8122 41.3639 52.795C40.203 51.4651 39.436 49.8393 38.6941 48.2671C38.4666 47.7846 38.2316 47.2868 37.9906 46.8103C37.6579 46.6587 37.3459 46.6544 37.1625 46.8024C36.981 46.9491 36.9347 47.2431 37.0354 47.609C37.142 47.9969 37.5219 48.895 38.726 50.9704C38.8559 51.1941 39.1121 51.5629 39.3833 51.9532C40.1444 53.049 40.6863 53.8569 40.7267 54.2759C40.8087 55.1285 40.2587 56.1418 39.309 56.2913C37.965 56.5022 37.7271 55.8316 37.4979 55.1822C37.4196 54.9608 37.3387 54.7318 37.2111 54.501C36.7034 53.5825 36.0003 52.6541 35.3204 51.7562C34.6715 50.8993 34.0009 50.0137 33.4815 49.1167C33.1632 48.8377 32.8305 48.8967 32.6383 49.0357C32.4444 49.1761 32.2845 49.4805 32.4678 49.8788C32.9202 50.7037 33.5524 51.5574 34.1636 52.383C34.8501 53.3101 35.5598 54.2687 36.0366 55.2118C36.742 56.6075 36.2471 57.6039 35.609 58.0331C34.9816 58.4552 33.9838 58.4655 33.2904 57.6688L33.2648 57.6345L30.0201 52.4865C29.7971 52.363 29.5435 52.3711 29.3323 52.5111C29.1557 52.628 28.9878 52.8683 29.0462 53.192L29.1216 53.6105L29.0768 53.5999L32.2358 58.4136C32.4583 58.7896 32.4591 59.4531 32.1379 59.7953C31.8909 60.0582 31.4952 60.175 31.0989 60.175C30.8069 60.175 30.5145 60.1116 30.2809 59.9964C30.0506 59.8827 28.2746 58.1633 28.1694 57.9522C27.9531 57.5182 28.329 57.1274 28.5779 56.8688C28.664 56.7793 28.7531 56.6867 28.7894 56.6251C29.1853 55.9547 29.2839 55.2292 29.067 54.5824L28.7079 53.5119C28.4643 53.4539 28.2776 53.3466 28.0969 53.2427C27.937 53.1509 27.786 53.0641 27.5996 53.0161C27.4979 52.9899 27.3439 52.9855 27.1949 52.9813C26.9394 52.974 26.6981 52.9671 26.5277 52.8554C26.3725 52.7537 26.2851 52.5649 26.1744 52.3257C25.9652 51.8736 25.6786 51.2544 24.8713 50.9951C24.6996 50.9399 24.3316 50.9148 24.088 50.8981C23.7638 50.876 23.6866 50.8707 23.5989 50.7954C23.5073 50.7165 23.4912 50.6179 23.4667 50.4687C23.4559 50.4015 23.4329 50.2617 23.4101 50.2185C23.0922 49.6182 22.3981 48.936 21.6864 48.7941C21.613 48.7796 21.4344 48.7892 21.304 48.7963C21.0068 48.8122 20.8107 48.8229 20.6778 48.7082C20.6055 48.646 20.5837 48.5793 20.5193 48.3814C20.4505 48.1697 20.3351 47.8153 20.2028 47.6361C19.7369 47.0059 18.8607 46.6286 18.018 46.7022C16.8265 46.8038 16.0805 47.8816 15.3591 48.9238C15.1398 49.2408 14.9326 49.5402 14.7135 49.8117L14.6467 49.8946L14.5416 49.9117C14.4534 49.9261 14.2872 49.9535 13.2348 49.3431C12.183 48.7331 12.1371 48.5905 12.1097 48.5053L12.0811 48.417L16.7714 34.8283L17.2667 34.9523C18.9273 35.3702 19.8423 35.5999 21.4821 35.005C21.7244 34.917 22.0865 34.7294 22.47 34.5307C23.1923 34.1563 23.9393 33.7694 24.3917 33.7694H27.6257L27.7043 33.8381C28 34.0966 27.6613 34.5367 27.3622 34.925L27.3232 34.9759C27.0351 35.3609 26.5267 35.946 25.9379 36.6236C24.6909 38.0586 22.8066 40.2271 22.6817 41.0102C22.5761 41.6729 22.7279 42.2338 23.1331 42.6772C23.7457 43.3477 24.943 43.7269 26.1794 43.6426C27.9573 43.5218 29.302 42.4402 30.6026 41.3942C32.7633 39.6561 34.8045 38.0146 38.1591 41.5725C39.8013 43.3141 43.9359 48.5689 44.4232 51.2379C44.6744 52.6149 44.4386 53.5877 43.7759 53.907ZM51.1211 48.1238C49.9706 48.6375 48.8838 49.1228 47.8552 49.8011C47.6874 49.9118 47.382 50.1771 47.0867 50.4338C46.6289 50.8317 46.362 51.0602 46.1993 51.1313C46.1193 51.1662 46.0444 51.1838 45.9754 51.1838C45.9106 51.1838 45.851 51.1684 45.7968 51.1374C45.6373 51.0463 45.6174 50.8806 45.6079 50.801C45.6068 50.7928 45.6061 50.7847 45.6049 50.777C44.5977 48.2127 43.7152 46.5727 42.2356 44.5145C41.1065 42.9436 38.2965 39.2178 36.5976 38.5506C33.649 37.3928 32.101 38.6708 30.309 40.1511C29.6604 40.6868 28.9897 41.2409 28.2138 41.7168C27.4586 42.1798 25.0377 42.7505 24.2884 42.012C24.0721 41.7988 23.8985 41.403 24.2994 40.7277L24.3212 40.6907L24.3533 40.6622C25.1092 39.987 25.9464 38.8667 26.8329 37.6806C28.4545 35.5106 30.1315 33.2668 31.9283 32.7671C34.3981 32.0803 36.8825 32.8203 39.2855 33.536C41.825 34.2925 44.224 35.0071 46.6258 34.2006L46.8868 34.113L51.6633 47.8812L51.1211 48.1238ZM53.7214 49.5833L47.3561 31.8695L53.8353 29.2283L60.004 46.9192L53.7214 49.5833ZM30.7768 27.79L30.9644 27.8678C31.6288 28.1443 32.3321 28.1326 33.0744 27.8329C40.287 24.9183 43.3864 18.608 42.5496 8.5416L42.5433 8.45617C42.5361 8.35524 42.518 8.10179 42.4677 8.01078C42.2351 7.92928 41.2445 7.80119 40.642 7.72323C40.1028 7.65341 39.6372 7.5931 39.4215 7.54461C37.0382 7.00808 34.8054 5.7071 33.2954 3.97526C33.1359 3.7923 33.0133 3.58163 32.8946 3.37788C32.6213 2.90886 32.4333 2.62063 32.0271 2.60406C31.5401 2.58382 31.3498 2.86336 31.0625 3.359C30.9421 3.56655 30.8177 3.7813 30.6489 3.97512C29.264 5.56461 27.238 6.8133 25.0904 7.40131C24.7916 7.48308 24.0468 7.59568 23.2585 7.7148C22.5973 7.81478 21.7074 7.94925 21.4727 8.01798C21.4256 8.11333 21.4088 8.34818 21.4011 8.45535L21.3946 8.54174C20.5503 18.6762 23.5315 24.7923 30.7768 27.79ZM22.6671 11.4074C22.6892 10.7488 22.7122 10.0679 22.7137 9.41907L22.7142 9.17539L22.9559 9.14387C26.7131 8.65366 29.8131 7.0639 31.685 4.66745L31.7438 4.5922L31.8366 4.56884C32.2082 4.47688 32.4651 4.85666 32.6715 5.16296C32.7359 5.25831 32.8089 5.36657 32.8533 5.40895C34.8683 7.3353 37.7593 8.66195 40.9937 9.14428L41.2299 9.1796L41.2309 9.41839C41.2332 10.0541 41.2555 10.7195 41.2769 11.3631C41.3457 13.4254 41.4167 15.5579 40.9043 17.5353C39.8674 21.5359 36.6689 24.9494 32.1289 26.9004L32.0205 26.947L31.9116 26.9014C27.2163 24.9367 23.961 21.4409 22.98 17.3101C22.5318 15.4225 22.6005 13.3814 22.6671 11.4074ZM26.8649 17.3984C26.8077 17.1819 26.882 16.9293 27.0574 16.7487C27.2137 16.5878 27.4135 16.5207 27.5919 16.5704C27.8197 16.633 28.5208 17.3882 28.9847 17.8879C29.9112 18.8859 30.2358 19.2066 30.5405 19.1506L30.5993 19.1404L30.6487 19.1068C31.0804 18.8138 32.0528 17.7922 33.1787 16.6095C34.3167 15.4141 36.0344 13.6097 36.4092 13.4949C36.6356 13.474 36.8892 13.6276 37.0261 13.87C37.0813 13.9675 37.1898 14.2163 37.0273 14.4451L30.9626 20.5573C30.5014 20.8852 30.3771 20.8889 29.9768 20.6059C29.6223 20.3552 27.0878 17.7408 26.8649 17.3984Z" fill="white"/>
</svg>
