<svg width="64" height="64" viewBox="0 0 64 64" fill="none" xmlns="http://www.w3.org/2000/svg">
<mask id="path-1-outside-1_825_4" maskUnits="userSpaceOnUse" x="2.11597" y="2.48584" width="60" height="59" fill="black">
<rect fill="white" x="2.11597" y="2.48584" width="60" height="59"/>
<path d="M26.274 25.9016C26.1872 25.9327 26.1001 25.9643 26.0151 25.9989C24.9242 26.4405 23.7429 26.8229 22.6003 27.1922C18.0233 28.6727 13.2905 30.2036 12.8767 36.0258C12.8503 36.4016 12.7876 37.2812 13.1169 37.6504C13.2213 37.767 13.3626 37.8281 13.5495 37.8358C13.7652 37.846 13.9243 37.7996 14.0318 37.6967C14.2867 37.4518 14.2847 36.8707 14.2829 36.4037C14.2821 36.2132 14.2821 36.0354 14.2956 35.8867C14.5551 33.0714 16.3223 30.9522 19.4063 29.7585L19.9841 29.5339C22.0505 28.7307 24.8804 27.6307 26.7054 27.2192L26.7635 27.2034C26.8921 27.1677 27.0858 27.1143 27.2684 27.2212C27.3423 27.2645 27.3759 27.3149 27.6101 27.6816C27.7359 27.8787 27.9086 28.1486 27.9779 28.2281C29.1304 29.541 30.7537 30.2066 32.4288 30.0472C34.195 29.8822 35.8142 28.8285 36.7605 27.2283L36.8725 27.0389L37.0783 27.1178C38.2186 27.5553 39.4256 27.95 40.5929 28.332C42.024 28.8 43.5037 29.2838 44.8895 29.8552C47.7428 31.0302 49.4517 33.1722 49.702 35.8867C49.715 36.0278 49.7157 36.1994 49.7162 36.3843C49.7178 36.8747 49.7196 37.4859 49.9915 37.7242C50.1074 37.8256 50.279 37.8597 50.5161 37.8291C50.6903 37.8067 50.8171 37.7339 50.9154 37.6C51.3218 37.0474 51.0862 35.7039 50.9856 35.1304C50.0717 29.9164 45.8291 28.5683 41.3372 27.1413C40.0044 26.7175 38.626 26.2795 37.3661 25.7351C37.1213 25.6338 36.7834 25.345 36.676 25.0791C36.5443 24.7517 36.5201 22.6045 36.6143 22.2867C36.6416 22.1945 36.7152 22.0952 37.1758 21.5304C37.4251 21.2244 37.735 20.8444 37.8259 20.6952C39.8374 17.3945 40.354 9.84638 38.1264 6.65111C35.9227 3.49048 32.5166 3.08865 30.0644 3.7655C26.9109 4.63689 24.7276 7.29282 24.5017 10.5319C24.3507 12.6938 24.2389 18.0581 26.4513 21.1658C26.5093 21.2473 26.6838 21.4367 26.8376 21.6043C27.2424 22.0443 27.3489 22.1706 27.3833 22.2872C27.4795 22.6122 27.4551 24.4456 27.4141 24.796C27.3298 25.5232 26.7444 25.7331 26.274 25.9016ZM25.9193 10.4947C26.0846 8.12499 27.5936 6.12196 29.8571 5.26789C32.1321 4.41076 34.6006 4.92056 36.3006 6.6012C36.6816 6.97757 38.4384 9.47002 37.9222 10.3002C37.7213 10.623 35.8593 10.9877 35.8412 10.9907C33.9961 11.2805 31.4896 10.8639 29.7464 9.97625C29.5243 9.86318 29.2982 9.69614 29.0794 9.5352C28.4683 9.08448 28.0362 8.80692 27.6191 9.04527C27.383 9.18074 27.259 9.33047 27.2508 9.49141C27.2361 9.78526 27.5791 10.2202 28.1464 10.6266C30.5803 12.3694 34.6128 12.9316 37.736 11.9645L38.0482 11.8677L38.0732 12.1937C38.4007 16.4646 37.3225 21.4591 33.3147 22.6682C33.0931 22.7349 32.8385 22.7619 32.5688 22.7899C31.8161 22.8683 31.3544 22.9524 31.2903 23.4494C31.2383 23.8502 31.3916 23.9979 31.5115 24.0743C32.1991 24.5118 34.1504 23.9154 34.7659 23.5258L35.1522 23.2814L35.1662 23.7382C35.1705 23.8828 35.1682 24.028 35.1659 24.1731C35.1619 24.4252 35.1583 24.6636 35.1899 24.8983C35.2092 25.0415 35.3271 25.3389 35.4218 25.5782C35.6006 26.029 35.6602 26.1996 35.6296 26.3447C35.5909 26.5306 35.1122 27.1484 35.1074 27.1545C34.3261 28.1272 33.1886 28.6844 31.9837 28.6844H31.9625C30.7687 28.6778 29.6483 28.1191 28.8887 27.1514C28.2694 26.3631 28.3634 26.033 28.5923 25.5833C28.6875 25.3959 28.7955 25.1836 28.8307 24.8337C28.8882 24.2617 28.916 22.2801 28.8167 21.837C28.7703 21.6298 28.4113 21.2717 28.1492 21.0099C27.9684 20.8292 27.7976 20.6585 27.6802 20.5037C25.819 18.0474 25.6955 13.7052 25.9193 10.4947ZM4.85267 36.3945C4.14502 36.013 3.67647 35.6356 3.37446 34.8356C2.86136 33.4763 3.1738 29.9464 3.77247 28.58C4.78901 26.2607 6.71513 25.4346 8.75457 24.5602C9.42072 24.2745 10.1098 23.9791 10.7854 23.6256L10.8773 23.5773L10.9111 23.479C10.9865 23.259 10.9618 21.2116 10.9076 21.0268C10.8808 20.9371 10.8093 20.8424 10.4561 20.4008C10.1513 20.0194 9.73367 19.4974 9.61501 19.2575C8.80906 17.6278 8.70058 13.4786 9.41791 11.7328C10.2325 9.74961 12.0845 8.4438 14.2516 8.32412C14.3588 8.31801 14.4655 8.31495 14.5719 8.31495C16.6045 8.31495 18.4399 9.39006 19.4147 11.1741C20.4037 12.9831 20.4539 17.3721 19.5074 19.2712C19.3831 19.5208 18.925 20.082 18.6217 20.4538C18.2815 20.8704 18.225 20.9437 18.2003 21.0268C18.1221 21.2911 18.1275 23.1041 18.1741 23.3578C18.1914 23.4515 18.2319 23.672 18.4799 23.783L21.475 25.0868C21.7595 25.374 21.8529 25.7096 21.719 25.9709C21.5792 26.2429 21.2189 26.361 20.7791 26.2775C20.3597 26.198 17.7552 25.0639 17.2179 24.7939C17.1242 24.7451 16.8237 24.4542 16.7529 24.3366V21.6832L16.3386 21.9847C15.9852 22.2419 15.4392 22.2709 15.0957 22.0484C14.8673 21.9007 14.7835 21.6735 14.8467 21.3736C14.9253 20.9993 15.1573 20.9223 15.5951 20.8078C15.7443 20.7685 15.8945 20.7283 16.0356 20.6708C17.9403 19.8951 18.9821 17.8941 18.6897 15.5723L18.661 15.3436L18.4305 15.3441H18.4117C16.9403 15.3441 15.4741 14.9479 14.1655 14.1952C13.7224 13.94 12.9804 13.5132 12.8828 13.0442C12.8487 12.8792 12.8979 12.7106 13.0331 12.5288C13.3893 12.049 13.7632 12.2334 14.4739 12.7325C14.6391 12.8491 14.798 12.9602 14.9452 13.0401C16.1823 13.7159 17.3605 14.0144 18.4516 13.9263L18.705 13.9059L18.691 13.6523C18.5599 11.2668 16.7504 9.98999 15.0152 9.78221C13.3048 9.58206 11.2735 10.3827 10.5923 12.6419C10.3107 13.5769 10.299 17.1383 10.5748 18.0097C10.8123 18.7594 11.2745 19.2738 11.7217 19.7714C11.9307 20.0046 12.1467 20.2445 12.3338 20.5052L12.3119 24.3804C12.2516 24.4991 12.0204 24.7293 11.8897 24.7945C11.273 25.1046 10.5977 25.3582 9.88289 25.6266C7.70849 26.4425 5.46025 27.2869 4.77526 29.8033C4.52265 30.7312 4.48802 33.1381 4.60108 34.1007C4.66499 34.6451 4.9339 34.8457 5.3067 35.0698C5.78797 35.3586 6.47474 35.6234 7.13911 35.8791C7.93003 36.1836 8.74795 36.4984 9.18568 36.8391C9.45152 37.0464 9.53836 37.354 9.40671 37.6229C9.28371 37.8745 8.92823 38.1128 8.33593 37.9646C7.71103 37.8062 5.56898 36.7815 4.85267 36.3945ZM42.6494 25.9679C42.4925 25.7972 42.4543 25.5406 42.5422 25.2457C42.6333 24.9381 43.6904 24.5434 44.3219 24.3071C44.8513 24.1095 45.3084 23.9389 45.5645 23.7565C45.7153 23.6491 45.7848 23.5696 45.8235 23.3573C45.8701 23.1041 45.8755 21.2916 45.7973 21.0268C45.7705 20.9371 45.699 20.8424 45.3458 20.4008C45.041 20.0194 44.6234 19.4974 44.5047 19.2575C43.6659 17.5616 43.5951 13.4165 44.3741 11.6111C45.232 9.6228 47.1487 8.37047 49.3766 8.34297C49.4018 8.34246 49.4265 8.34246 49.4517 8.34246C51.6493 8.34246 53.5629 9.53979 54.458 11.4807C55.2991 13.3049 55.2662 17.5274 54.3974 19.2712C54.2731 19.5208 53.815 20.082 53.5117 20.4538C53.1715 20.8704 53.115 20.9437 53.0903 21.0268C53.0358 21.2106 53.0108 23.259 53.087 23.4795L53.1208 23.5773L53.2125 23.6256C53.8881 23.9791 54.5771 24.2745 55.2433 24.5602C57.2825 25.4346 59.2086 26.2607 60.2251 28.58C60.9419 30.2158 61.314 34.4887 60.0657 35.7798C59.6382 36.2223 56.5572 37.6672 55.7862 37.9167C55.2845 38.0797 54.8404 38.0206 54.6543 37.7675C54.4985 37.5546 54.5507 37.2175 54.7926 36.8595C55.3477 36.5208 56.0398 36.2488 56.71 35.9855C57.4276 35.7039 58.1696 35.4126 58.7617 35.0326C59.215 34.7418 59.3522 34.5198 59.3996 33.9998C59.4834 33.0846 59.4879 30.7669 59.2432 29.8782C58.5261 27.2726 56.3072 26.4445 54.1613 25.6439C53.4674 25.3852 52.7501 25.1173 52.1084 24.7945C52.0144 24.7456 51.7137 24.4542 51.6429 24.3366V21.6883L51.2304 21.9837C50.8846 22.2317 50.3478 22.2674 50.0081 22.0657C49.7819 21.9312 49.6849 21.7168 49.7203 21.4291C49.7702 21.0232 50.1267 20.8928 50.7043 20.7146C50.9747 20.631 51.2546 20.545 51.4883 20.4019C54.0052 18.8623 53.7516 15.6339 53.5838 13.498C53.3811 10.9194 51.2984 9.74503 49.4486 9.74503C47.5943 9.74503 45.5065 10.9194 45.3035 13.498C45.1625 15.2942 45.0963 17.8483 46.1489 19.2804C46.2717 19.4475 46.4471 19.6145 46.633 19.7912C46.8897 20.0352 47.2095 20.3387 47.2424 20.546C47.3437 21.1851 47.2951 22.0117 47.248 22.8113C47.2149 23.3725 47.1838 23.9037 47.1996 24.3845C47.1362 24.5042 46.9091 24.7293 46.7797 24.7939C46.1978 25.0858 43.9506 26.0651 43.4851 26.1619C43.1386 26.2327 42.8266 26.1609 42.6494 25.9679ZM41.2366 48.3683C40.2993 48.1076 39.2178 47.9685 38.1717 47.8336C37.2815 47.719 36.361 47.6008 35.5242 47.4073L35.4076 47.3803L32.5861 41.9966C32.3753 41.6916 32.0076 41.6951 31.7382 41.7568C31.6139 41.7853 31.4728 41.905 31.3608 42.0766L28.5903 47.3773L28.4762 47.4053C27.6048 47.6207 26.6445 47.7419 25.7156 47.8585C24.7077 47.9859 23.6655 48.1167 22.761 48.3683C22.5639 48.4233 22.3072 48.5389 22.2048 48.7778C22.1239 48.9667 22.1511 49.2036 22.283 49.4648L26.3996 53.7275L26.4166 53.7953C26.4653 53.9908 26.4556 54.1813 26.4469 54.3494L26.4431 54.4299C26.408 55.2605 26.2274 56.167 26.053 57.044C25.8834 57.895 25.7082 58.7751 25.6698 59.5716C25.657 59.8349 25.6838 60.1873 25.8832 60.3676C26.0186 60.4893 26.2341 60.5316 26.5246 60.4934C27.2827 60.1512 28.0425 59.7687 28.7777 59.3985C29.8029 58.8815 30.863 58.3478 31.9421 57.9108L32.0496 57.8675L37.4402 60.4883C37.5955 60.523 37.8802 60.553 38.0824 60.3916C38.2555 60.2535 38.3452 59.9938 38.3347 59.6602C38.3082 58.8372 38.1241 57.9205 37.9461 57.0343C37.7709 56.1614 37.5896 55.2595 37.5545 54.4304L37.5507 54.3494C37.542 54.1813 37.5323 53.9908 37.581 53.7953L37.598 53.7275L41.7146 49.4648C41.8465 49.2036 41.8737 48.9667 41.7928 48.7778C41.6904 48.5389 41.4337 48.4233 41.2366 48.3683ZM39.4294 49.774C39.4256 49.9573 39.3069 50.0892 38.2749 51.0569C37.5741 51.7138 36.1155 53.0813 36.077 53.4271C36.1292 54.3713 36.2973 55.3858 36.46 56.3662C36.5514 56.9182 36.6429 57.4698 36.7152 58.0198L36.7529 58.3065L36.4641 58.3147C36.1593 58.3132 35.8983 58.2047 35.665 58.0998C35.2703 57.9231 34.8107 57.6654 34.3241 57.3919C33.6136 56.9936 32.8087 56.5414 32.3239 56.4145C32.1807 56.3769 32.0807 56.3621 31.9569 56.3682C31.5798 56.3799 30.4698 56.9814 29.6595 57.4204C29.1204 57.7127 28.6112 57.9888 28.2844 58.1196L28.1897 58.1589C28.0138 58.2332 27.8164 58.3162 27.5852 58.3162C27.5653 58.3162 27.5452 58.3157 27.5246 58.3142L27.2396 58.2964L27.9539 53.6868C27.9695 53.6007 27.9417 53.5116 27.9066 53.3991C27.7739 52.9718 26.4849 51.7668 25.7148 51.0472C24.6899 50.0892 24.572 49.9583 24.5682 49.774L24.5667 49.7006L24.6036 49.637C24.736 49.4103 24.9328 49.3889 25.0388 49.3772C25.0591 49.3752 25.0803 49.3732 25.1017 49.3681C25.6929 49.2219 26.3402 49.1404 26.9659 49.0615C27.7079 48.9678 28.4752 48.871 29.1311 48.6673C29.4971 48.5542 29.5561 48.5099 29.7639 48.1911C30.1136 47.6563 30.4214 46.9943 30.7191 46.3541C31.0137 45.72 31.3185 45.0651 31.6738 44.5049L31.726 44.4229L32.1976 44.2808L32.306 44.4326C32.5367 44.7555 32.8347 45.3956 33.1795 46.1371C33.6088 47.06 34.1968 48.324 34.5156 48.5333C34.8993 48.7854 36.2125 48.9627 37.2678 49.1058C37.911 49.1924 38.5188 49.2749 38.896 49.3681C38.9173 49.3732 38.9385 49.3752 38.9588 49.3772C39.0648 49.3889 39.2621 49.4103 39.394 49.6375L39.431 49.7006L39.4294 49.774ZM59.905 45.115C59.9947 45.3157 59.9827 45.5739 59.873 45.828L56.3579 49.5066L57.0375 54.4512C57.0563 54.6351 56.9756 54.9274 56.8748 55.041C56.7342 55.1999 56.3423 55.3323 56.1664 55.2345L51.6296 53.0227L51.524 53.0634C50.5586 53.4322 49.6266 53.9048 48.7252 54.3621C48.1209 54.6687 47.4963 54.9855 46.8709 55.2661C46.4064 55.342 46.2129 54.9896 46.1642 54.878C46.0415 54.5969 46.068 54.2032 46.3639 53.9802L51.3439 51.5412C51.5194 51.5066 51.6971 51.5162 51.9008 51.5687C52.0493 51.6079 52.6217 51.9135 53.1269 52.1834C54.8511 53.1042 55.1193 53.205 55.335 53.0156L55.4302 52.9305L55.4218 52.8032C55.3966 52.4263 55.2978 51.9374 55.1934 51.42C55.0088 50.5063 54.7997 49.4704 54.9693 48.9199C55.0487 48.6948 56.0108 47.803 56.5277 47.3238C57.4551 46.4641 57.5509 46.3577 57.5529 46.1855L57.5547 46.0108L57.394 45.9426C56.7462 45.6671 56.0253 45.5662 55.3281 45.469C54.7462 45.3875 54.1453 45.3039 53.6087 45.1181C53.487 44.9902 53.1916 44.4774 52.7297 43.5912L52.6278 43.3972C52.5797 43.306 52.4679 43.0544 52.3467 42.782C51.9375 41.8622 51.9067 41.8174 51.8288 41.7593C51.7419 41.6931 51.6388 41.6676 51.5364 41.6865C51.3526 41.7211 51.2512 41.8861 51.1843 41.9956C51.03 42.2401 50.8336 42.6536 50.6062 43.1323C50.2698 43.8403 49.7616 44.9103 49.4906 45.0895C49.1479 45.3157 47.7384 45.4939 46.8966 45.6009C45.9442 45.7211 45.7838 45.748 45.6776 45.8499L45.6246 45.9008L45.6061 45.9721C45.5345 46.2461 45.6931 46.3913 45.7958 46.4875C46.0748 46.8501 46.4566 47.2021 46.826 47.5417C47.1469 47.8371 47.4787 48.1427 47.7298 48.4447L47.8293 48.5608C47.9185 48.6642 48.127 48.9056 48.1604 48.9718C48.3188 49.3553 48.1729 49.6548 47.9834 49.8076C47.795 49.9604 47.4688 50.0378 47.1207 49.7964C46.5574 49.4062 43.946 46.7631 43.4502 46.1213C43.2613 45.8769 43.0522 45.5265 43.1302 45.2423C43.1826 45.0524 43.3667 44.8914 43.6776 44.7646L48.6198 43.9212L51.0289 39.3708C51.194 39.1976 51.3898 39.1187 51.5953 39.1344C51.8334 39.1553 52.0577 39.3076 52.2016 39.5368L54.4829 43.8306L54.5321 43.8662C54.6642 43.9615 54.8078 43.9956 54.9235 44.0231L54.9782 44.0363C55.6268 44.1983 56.3843 44.2838 57.1172 44.3669C57.942 44.4601 58.7948 44.5563 59.4724 44.76C59.6825 44.8232 59.8281 44.9429 59.905 45.115ZM21.0442 45.3065C21.1139 45.7394 20.5178 46.3271 20.0386 46.7987C19.9021 46.9337 19.7715 47.0625 19.6594 47.1832L19.3684 47.4985C18.7114 48.2135 17.4883 49.5448 17.0274 49.8335C16.7346 50.0179 16.4155 49.9492 16.2149 49.8244C15.9931 49.6859 15.8749 49.4663 15.8991 49.2367C15.9419 48.8308 16.8889 47.9527 17.5156 47.3722C17.9592 46.9612 18.3421 46.6062 18.541 46.3378L18.5914 46.2701L18.5925 46.185C18.5958 45.8698 18.388 45.7755 15.9946 45.4063C15.6266 45.3493 15.279 45.2958 15.1795 45.2708L15.0626 45.2413C14.7772 45.1707 14.5473 44.9924 14.3728 44.7066C14.3389 44.6505 14.2375 44.4473 14.1008 44.1749C13.0094 42.0033 12.8156 41.7649 12.6063 41.7114L12.4703 41.6844L12.3725 41.7517L12.3053 41.8189C12.1222 42.0858 11.8992 42.5665 11.6407 43.1237C11.2929 43.8734 10.8167 44.9006 10.5304 45.0895C10.1852 45.3172 8.77494 45.4954 7.93258 45.6014C6.98378 45.7216 6.8236 45.748 6.71767 45.8494L6.6642 45.9008L6.64561 45.9721C6.57431 46.2461 6.7332 46.3913 6.83557 46.4875C7.08385 46.8104 7.42431 47.1226 7.75331 47.4246C8.00795 47.6579 8.24833 47.8784 8.44415 48.0984L8.48897 48.1488C9.07414 48.8058 9.20375 48.9861 9.22183 49.0166C9.34483 49.4088 9.16352 50.3454 9.0036 51.1719C8.87959 51.8126 8.76271 52.4172 8.76933 52.8246L8.77111 52.9325L8.84827 53.0074C9.05784 53.2106 9.32955 53.1088 11.082 52.1747C11.5829 51.9079 12.1502 51.6059 12.2905 51.5687C12.4881 51.5172 12.6618 51.5065 12.8334 51.5381C13.4874 51.9542 14.3287 52.3148 15.1431 52.6631C16.0743 53.0619 17.0371 53.4744 17.6872 53.9577C18.0024 54.192 18.1354 54.4981 18.0424 54.7767C17.95 55.0542 17.663 55.2376 17.3027 55.2539L12.9249 53.1133L12.5363 53.0354L7.98223 55.2432C7.71179 55.3277 7.38254 55.1984 7.22645 54.9468C7.14598 53.9027 7.33849 52.793 7.52463 51.7194C7.64431 51.0278 7.76833 50.3133 7.82027 49.6156L7.82766 49.5157L7.76654 49.4368C7.30156 48.8358 6.68456 48.2766 6.08768 47.7358C5.51015 47.2127 4.91301 46.6714 4.49004 46.1188C4.22878 45.7771 4.1203 45.5163 4.15824 45.3223C4.19313 45.144 4.35839 44.9668 4.66244 44.7819L9.68044 43.8917L12.0232 39.4344C12.1795 39.2292 12.3916 39.1253 12.6071 39.1324C12.8546 39.1446 13.095 39.301 13.2411 39.5368L15.5515 43.8922L20.5046 44.7605C20.831 44.9271 21.0126 45.1109 21.0442 45.3065Z"/>
</mask>
<path d="M26.274 25.9016C26.1872 25.9327 26.1001 25.9643 26.0151 25.9989C24.9242 26.4405 23.7429 26.8229 22.6003 27.1922C18.0233 28.6727 13.2905 30.2036 12.8767 36.0258C12.8503 36.4016 12.7876 37.2812 13.1169 37.6504C13.2213 37.767 13.3626 37.8281 13.5495 37.8358C13.7652 37.846 13.9243 37.7996 14.0318 37.6967C14.2867 37.4518 14.2847 36.8707 14.2829 36.4037C14.2821 36.2132 14.2821 36.0354 14.2956 35.8867C14.5551 33.0714 16.3223 30.9522 19.4063 29.7585L19.9841 29.5339C22.0505 28.7307 24.8804 27.6307 26.7054 27.2192L26.7635 27.2034C26.8921 27.1677 27.0858 27.1143 27.2684 27.2212C27.3423 27.2645 27.3759 27.3149 27.6101 27.6816C27.7359 27.8787 27.9086 28.1486 27.9779 28.2281C29.1304 29.541 30.7537 30.2066 32.4288 30.0472C34.195 29.8822 35.8142 28.8285 36.7605 27.2283L36.8725 27.0389L37.0783 27.1178C38.2186 27.5553 39.4256 27.95 40.5929 28.332C42.024 28.8 43.5037 29.2838 44.8895 29.8552C47.7428 31.0302 49.4517 33.1722 49.702 35.8867C49.715 36.0278 49.7157 36.1994 49.7162 36.3843C49.7178 36.8747 49.7196 37.4859 49.9915 37.7242C50.1074 37.8256 50.279 37.8597 50.5161 37.8291C50.6903 37.8067 50.8171 37.7339 50.9154 37.6C51.3218 37.0474 51.0862 35.7039 50.9856 35.1304C50.0717 29.9164 45.8291 28.5683 41.3372 27.1413C40.0044 26.7175 38.626 26.2795 37.3661 25.7351C37.1213 25.6338 36.7834 25.345 36.676 25.0791C36.5443 24.7517 36.5201 22.6045 36.6143 22.2867C36.6416 22.1945 36.7152 22.0952 37.1758 21.5304C37.4251 21.2244 37.735 20.8444 37.8259 20.6952C39.8374 17.3945 40.354 9.84638 38.1264 6.65111C35.9227 3.49048 32.5166 3.08865 30.0644 3.7655C26.9109 4.63689 24.7276 7.29282 24.5017 10.5319C24.3507 12.6938 24.2389 18.0581 26.4513 21.1658C26.5093 21.2473 26.6838 21.4367 26.8376 21.6043C27.2424 22.0443 27.3489 22.1706 27.3833 22.2872C27.4795 22.6122 27.4551 24.4456 27.4141 24.796C27.3298 25.5232 26.7444 25.7331 26.274 25.9016ZM25.9193 10.4947C26.0846 8.12499 27.5936 6.12196 29.8571 5.26789C32.1321 4.41076 34.6006 4.92056 36.3006 6.6012C36.6816 6.97757 38.4384 9.47002 37.9222 10.3002C37.7213 10.623 35.8593 10.9877 35.8412 10.9907C33.9961 11.2805 31.4896 10.8639 29.7464 9.97625C29.5243 9.86318 29.2982 9.69614 29.0794 9.5352C28.4683 9.08448 28.0362 8.80692 27.6191 9.04527C27.383 9.18074 27.259 9.33047 27.2508 9.49141C27.2361 9.78526 27.5791 10.2202 28.1464 10.6266C30.5803 12.3694 34.6128 12.9316 37.736 11.9645L38.0482 11.8677L38.0732 12.1937C38.4007 16.4646 37.3225 21.4591 33.3147 22.6682C33.0931 22.7349 32.8385 22.7619 32.5688 22.7899C31.8161 22.8683 31.3544 22.9524 31.2903 23.4494C31.2383 23.8502 31.3916 23.9979 31.5115 24.0743C32.1991 24.5118 34.1504 23.9154 34.7659 23.5258L35.1522 23.2814L35.1662 23.7382C35.1705 23.8828 35.1682 24.028 35.1659 24.1731C35.1619 24.4252 35.1583 24.6636 35.1899 24.8983C35.2092 25.0415 35.3271 25.3389 35.4218 25.5782C35.6006 26.029 35.6602 26.1996 35.6296 26.3447C35.5909 26.5306 35.1122 27.1484 35.1074 27.1545C34.3261 28.1272 33.1886 28.6844 31.9837 28.6844H31.9625C30.7687 28.6778 29.6483 28.1191 28.8887 27.1514C28.2694 26.3631 28.3634 26.033 28.5923 25.5833C28.6875 25.3959 28.7955 25.1836 28.8307 24.8337C28.8882 24.2617 28.916 22.2801 28.8167 21.837C28.7703 21.6298 28.4113 21.2717 28.1492 21.0099C27.9684 20.8292 27.7976 20.6585 27.6802 20.5037C25.819 18.0474 25.6955 13.7052 25.9193 10.4947ZM4.85267 36.3945C4.14502 36.013 3.67647 35.6356 3.37446 34.8356C2.86136 33.4763 3.1738 29.9464 3.77247 28.58C4.78901 26.2607 6.71513 25.4346 8.75457 24.5602C9.42072 24.2745 10.1098 23.9791 10.7854 23.6256L10.8773 23.5773L10.9111 23.479C10.9865 23.259 10.9618 21.2116 10.9076 21.0268C10.8808 20.9371 10.8093 20.8424 10.4561 20.4008C10.1513 20.0194 9.73367 19.4974 9.61501 19.2575C8.80906 17.6278 8.70058 13.4786 9.41791 11.7328C10.2325 9.74961 12.0845 8.4438 14.2516 8.32412C14.3588 8.31801 14.4655 8.31495 14.5719 8.31495C16.6045 8.31495 18.4399 9.39006 19.4147 11.1741C20.4037 12.9831 20.4539 17.3721 19.5074 19.2712C19.3831 19.5208 18.925 20.082 18.6217 20.4538C18.2815 20.8704 18.225 20.9437 18.2003 21.0268C18.1221 21.2911 18.1275 23.1041 18.1741 23.3578C18.1914 23.4515 18.2319 23.672 18.4799 23.783L21.475 25.0868C21.7595 25.374 21.8529 25.7096 21.719 25.9709C21.5792 26.2429 21.2189 26.361 20.7791 26.2775C20.3597 26.198 17.7552 25.0639 17.2179 24.7939C17.1242 24.7451 16.8237 24.4542 16.7529 24.3366V21.6832L16.3386 21.9847C15.9852 22.2419 15.4392 22.2709 15.0957 22.0484C14.8673 21.9007 14.7835 21.6735 14.8467 21.3736C14.9253 20.9993 15.1573 20.9223 15.5951 20.8078C15.7443 20.7685 15.8945 20.7283 16.0356 20.6708C17.9403 19.8951 18.9821 17.8941 18.6897 15.5723L18.661 15.3436L18.4305 15.3441H18.4117C16.9403 15.3441 15.4741 14.9479 14.1655 14.1952C13.7224 13.94 12.9804 13.5132 12.8828 13.0442C12.8487 12.8792 12.8979 12.7106 13.0331 12.5288C13.3893 12.049 13.7632 12.2334 14.4739 12.7325C14.6391 12.8491 14.798 12.9602 14.9452 13.0401C16.1823 13.7159 17.3605 14.0144 18.4516 13.9263L18.705 13.9059L18.691 13.6523C18.5599 11.2668 16.7504 9.98999 15.0152 9.78221C13.3048 9.58206 11.2735 10.3827 10.5923 12.6419C10.3107 13.5769 10.299 17.1383 10.5748 18.0097C10.8123 18.7594 11.2745 19.2738 11.7217 19.7714C11.9307 20.0046 12.1467 20.2445 12.3338 20.5052L12.3119 24.3804C12.2516 24.4991 12.0204 24.7293 11.8897 24.7945C11.273 25.1046 10.5977 25.3582 9.88289 25.6266C7.70849 26.4425 5.46025 27.2869 4.77526 29.8033C4.52265 30.7312 4.48802 33.1381 4.60108 34.1007C4.66499 34.6451 4.9339 34.8457 5.3067 35.0698C5.78797 35.3586 6.47474 35.6234 7.13911 35.8791C7.93003 36.1836 8.74795 36.4984 9.18568 36.8391C9.45152 37.0464 9.53836 37.354 9.40671 37.6229C9.28371 37.8745 8.92823 38.1128 8.33593 37.9646C7.71103 37.8062 5.56898 36.7815 4.85267 36.3945ZM42.6494 25.9679C42.4925 25.7972 42.4543 25.5406 42.5422 25.2457C42.6333 24.9381 43.6904 24.5434 44.3219 24.3071C44.8513 24.1095 45.3084 23.9389 45.5645 23.7565C45.7153 23.6491 45.7848 23.5696 45.8235 23.3573C45.8701 23.1041 45.8755 21.2916 45.7973 21.0268C45.7705 20.9371 45.699 20.8424 45.3458 20.4008C45.041 20.0194 44.6234 19.4974 44.5047 19.2575C43.6659 17.5616 43.5951 13.4165 44.3741 11.6111C45.232 9.6228 47.1487 8.37047 49.3766 8.34297C49.4018 8.34246 49.4265 8.34246 49.4517 8.34246C51.6493 8.34246 53.5629 9.53979 54.458 11.4807C55.2991 13.3049 55.2662 17.5274 54.3974 19.2712C54.2731 19.5208 53.815 20.082 53.5117 20.4538C53.1715 20.8704 53.115 20.9437 53.0903 21.0268C53.0358 21.2106 53.0108 23.259 53.087 23.4795L53.1208 23.5773L53.2125 23.6256C53.8881 23.9791 54.5771 24.2745 55.2433 24.5602C57.2825 25.4346 59.2086 26.2607 60.2251 28.58C60.9419 30.2158 61.314 34.4887 60.0657 35.7798C59.6382 36.2223 56.5572 37.6672 55.7862 37.9167C55.2845 38.0797 54.8404 38.0206 54.6543 37.7675C54.4985 37.5546 54.5507 37.2175 54.7926 36.8595C55.3477 36.5208 56.0398 36.2488 56.71 35.9855C57.4276 35.7039 58.1696 35.4126 58.7617 35.0326C59.215 34.7418 59.3522 34.5198 59.3996 33.9998C59.4834 33.0846 59.4879 30.7669 59.2432 29.8782C58.5261 27.2726 56.3072 26.4445 54.1613 25.6439C53.4674 25.3852 52.7501 25.1173 52.1084 24.7945C52.0144 24.7456 51.7137 24.4542 51.6429 24.3366V21.6883L51.2304 21.9837C50.8846 22.2317 50.3478 22.2674 50.0081 22.0657C49.7819 21.9312 49.6849 21.7168 49.7203 21.4291C49.7702 21.0232 50.1267 20.8928 50.7043 20.7146C50.9747 20.631 51.2546 20.545 51.4883 20.4019C54.0052 18.8623 53.7516 15.6339 53.5838 13.498C53.3811 10.9194 51.2984 9.74503 49.4486 9.74503C47.5943 9.74503 45.5065 10.9194 45.3035 13.498C45.1625 15.2942 45.0963 17.8483 46.1489 19.2804C46.2717 19.4475 46.4471 19.6145 46.633 19.7912C46.8897 20.0352 47.2095 20.3387 47.2424 20.546C47.3437 21.1851 47.2951 22.0117 47.248 22.8113C47.2149 23.3725 47.1838 23.9037 47.1996 24.3845C47.1362 24.5042 46.9091 24.7293 46.7797 24.7939C46.1978 25.0858 43.9506 26.0651 43.4851 26.1619C43.1386 26.2327 42.8266 26.1609 42.6494 25.9679ZM41.2366 48.3683C40.2993 48.1076 39.2178 47.9685 38.1717 47.8336C37.2815 47.719 36.361 47.6008 35.5242 47.4073L35.4076 47.3803L32.5861 41.9966C32.3753 41.6916 32.0076 41.6951 31.7382 41.7568C31.6139 41.7853 31.4728 41.905 31.3608 42.0766L28.5903 47.3773L28.4762 47.4053C27.6048 47.6207 26.6445 47.7419 25.7156 47.8585C24.7077 47.9859 23.6655 48.1167 22.761 48.3683C22.5639 48.4233 22.3072 48.5389 22.2048 48.7778C22.1239 48.9667 22.1511 49.2036 22.283 49.4648L26.3996 53.7275L26.4166 53.7953C26.4653 53.9908 26.4556 54.1813 26.4469 54.3494L26.4431 54.4299C26.408 55.2605 26.2274 56.167 26.053 57.044C25.8834 57.895 25.7082 58.7751 25.6698 59.5716C25.657 59.8349 25.6838 60.1873 25.8832 60.3676C26.0186 60.4893 26.2341 60.5316 26.5246 60.4934C27.2827 60.1512 28.0425 59.7687 28.7777 59.3985C29.8029 58.8815 30.863 58.3478 31.9421 57.9108L32.0496 57.8675L37.4402 60.4883C37.5955 60.523 37.8802 60.553 38.0824 60.3916C38.2555 60.2535 38.3452 59.9938 38.3347 59.6602C38.3082 58.8372 38.1241 57.9205 37.9461 57.0343C37.7709 56.1614 37.5896 55.2595 37.5545 54.4304L37.5507 54.3494C37.542 54.1813 37.5323 53.9908 37.581 53.7953L37.598 53.7275L41.7146 49.4648C41.8465 49.2036 41.8737 48.9667 41.7928 48.7778C41.6904 48.5389 41.4337 48.4233 41.2366 48.3683ZM39.4294 49.774C39.4256 49.9573 39.3069 50.0892 38.2749 51.0569C37.5741 51.7138 36.1155 53.0813 36.077 53.4271C36.1292 54.3713 36.2973 55.3858 36.46 56.3662C36.5514 56.9182 36.6429 57.4698 36.7152 58.0198L36.7529 58.3065L36.4641 58.3147C36.1593 58.3132 35.8983 58.2047 35.665 58.0998C35.2703 57.9231 34.8107 57.6654 34.3241 57.3919C33.6136 56.9936 32.8087 56.5414 32.3239 56.4145C32.1807 56.3769 32.0807 56.3621 31.9569 56.3682C31.5798 56.3799 30.4698 56.9814 29.6595 57.4204C29.1204 57.7127 28.6112 57.9888 28.2844 58.1196L28.1897 58.1589C28.0138 58.2332 27.8164 58.3162 27.5852 58.3162C27.5653 58.3162 27.5452 58.3157 27.5246 58.3142L27.2396 58.2964L27.9539 53.6868C27.9695 53.6007 27.9417 53.5116 27.9066 53.3991C27.7739 52.9718 26.4849 51.7668 25.7148 51.0472C24.6899 50.0892 24.572 49.9583 24.5682 49.774L24.5667 49.7006L24.6036 49.637C24.736 49.4103 24.9328 49.3889 25.0388 49.3772C25.0591 49.3752 25.0803 49.3732 25.1017 49.3681C25.6929 49.2219 26.3402 49.1404 26.9659 49.0615C27.7079 48.9678 28.4752 48.871 29.1311 48.6673C29.4971 48.5542 29.5561 48.5099 29.7639 48.1911C30.1136 47.6563 30.4214 46.9943 30.7191 46.3541C31.0137 45.72 31.3185 45.0651 31.6738 44.5049L31.726 44.4229L32.1976 44.2808L32.306 44.4326C32.5367 44.7555 32.8347 45.3956 33.1795 46.1371C33.6088 47.06 34.1968 48.324 34.5156 48.5333C34.8993 48.7854 36.2125 48.9627 37.2678 49.1058C37.911 49.1924 38.5188 49.2749 38.896 49.3681C38.9173 49.3732 38.9385 49.3752 38.9588 49.3772C39.0648 49.3889 39.2621 49.4103 39.394 49.6375L39.431 49.7006L39.4294 49.774ZM59.905 45.115C59.9947 45.3157 59.9827 45.5739 59.873 45.828L56.3579 49.5066L57.0375 54.4512C57.0563 54.6351 56.9756 54.9274 56.8748 55.041C56.7342 55.1999 56.3423 55.3323 56.1664 55.2345L51.6296 53.0227L51.524 53.0634C50.5586 53.4322 49.6266 53.9048 48.7252 54.3621C48.1209 54.6687 47.4963 54.9855 46.8709 55.2661C46.4064 55.342 46.2129 54.9896 46.1642 54.878C46.0415 54.5969 46.068 54.2032 46.3639 53.9802L51.3439 51.5412C51.5194 51.5066 51.6971 51.5162 51.9008 51.5687C52.0493 51.6079 52.6217 51.9135 53.1269 52.1834C54.8511 53.1042 55.1193 53.205 55.335 53.0156L55.4302 52.9305L55.4218 52.8032C55.3966 52.4263 55.2978 51.9374 55.1934 51.42C55.0088 50.5063 54.7997 49.4704 54.9693 48.9199C55.0487 48.6948 56.0108 47.803 56.5277 47.3238C57.4551 46.4641 57.5509 46.3577 57.5529 46.1855L57.5547 46.0108L57.394 45.9426C56.7462 45.6671 56.0253 45.5662 55.3281 45.469C54.7462 45.3875 54.1453 45.3039 53.6087 45.1181C53.487 44.9902 53.1916 44.4774 52.7297 43.5912L52.6278 43.3972C52.5797 43.306 52.4679 43.0544 52.3467 42.782C51.9375 41.8622 51.9067 41.8174 51.8288 41.7593C51.7419 41.6931 51.6388 41.6676 51.5364 41.6865C51.3526 41.7211 51.2512 41.8861 51.1843 41.9956C51.03 42.2401 50.8336 42.6536 50.6062 43.1323C50.2698 43.8403 49.7616 44.9103 49.4906 45.0895C49.1479 45.3157 47.7384 45.4939 46.8966 45.6009C45.9442 45.7211 45.7838 45.748 45.6776 45.8499L45.6246 45.9008L45.6061 45.9721C45.5345 46.2461 45.6931 46.3913 45.7958 46.4875C46.0748 46.8501 46.4566 47.2021 46.826 47.5417C47.1469 47.8371 47.4787 48.1427 47.7298 48.4447L47.8293 48.5608C47.9185 48.6642 48.127 48.9056 48.1604 48.9718C48.3188 49.3553 48.1729 49.6548 47.9834 49.8076C47.795 49.9604 47.4688 50.0378 47.1207 49.7964C46.5574 49.4062 43.946 46.7631 43.4502 46.1213C43.2613 45.8769 43.0522 45.5265 43.1302 45.2423C43.1826 45.0524 43.3667 44.8914 43.6776 44.7646L48.6198 43.9212L51.0289 39.3708C51.194 39.1976 51.3898 39.1187 51.5953 39.1344C51.8334 39.1553 52.0577 39.3076 52.2016 39.5368L54.4829 43.8306L54.5321 43.8662C54.6642 43.9615 54.8078 43.9956 54.9235 44.0231L54.9782 44.0363C55.6268 44.1983 56.3843 44.2838 57.1172 44.3669C57.942 44.4601 58.7948 44.5563 59.4724 44.76C59.6825 44.8232 59.8281 44.9429 59.905 45.115ZM21.0442 45.3065C21.1139 45.7394 20.5178 46.3271 20.0386 46.7987C19.9021 46.9337 19.7715 47.0625 19.6594 47.1832L19.3684 47.4985C18.7114 48.2135 17.4883 49.5448 17.0274 49.8335C16.7346 50.0179 16.4155 49.9492 16.2149 49.8244C15.9931 49.6859 15.8749 49.4663 15.8991 49.2367C15.9419 48.8308 16.8889 47.9527 17.5156 47.3722C17.9592 46.9612 18.3421 46.6062 18.541 46.3378L18.5914 46.2701L18.5925 46.185C18.5958 45.8698 18.388 45.7755 15.9946 45.4063C15.6266 45.3493 15.279 45.2958 15.1795 45.2708L15.0626 45.2413C14.7772 45.1707 14.5473 44.9924 14.3728 44.7066C14.3389 44.6505 14.2375 44.4473 14.1008 44.1749C13.0094 42.0033 12.8156 41.7649 12.6063 41.7114L12.4703 41.6844L12.3725 41.7517L12.3053 41.8189C12.1222 42.0858 11.8992 42.5665 11.6407 43.1237C11.2929 43.8734 10.8167 44.9006 10.5304 45.0895C10.1852 45.3172 8.77494 45.4954 7.93258 45.6014C6.98378 45.7216 6.8236 45.748 6.71767 45.8494L6.6642 45.9008L6.64561 45.9721C6.57431 46.2461 6.7332 46.3913 6.83557 46.4875C7.08385 46.8104 7.42431 47.1226 7.75331 47.4246C8.00795 47.6579 8.24833 47.8784 8.44415 48.0984L8.48897 48.1488C9.07414 48.8058 9.20375 48.9861 9.22183 49.0166C9.34483 49.4088 9.16352 50.3454 9.0036 51.1719C8.87959 51.8126 8.76271 52.4172 8.76933 52.8246L8.77111 52.9325L8.84827 53.0074C9.05784 53.2106 9.32955 53.1088 11.082 52.1747C11.5829 51.9079 12.1502 51.6059 12.2905 51.5687C12.4881 51.5172 12.6618 51.5065 12.8334 51.5381C13.4874 51.9542 14.3287 52.3148 15.1431 52.6631C16.0743 53.0619 17.0371 53.4744 17.6872 53.9577C18.0024 54.192 18.1354 54.4981 18.0424 54.7767C17.95 55.0542 17.663 55.2376 17.3027 55.2539L12.9249 53.1133L12.5363 53.0354L7.98223 55.2432C7.71179 55.3277 7.38254 55.1984 7.22645 54.9468C7.14598 53.9027 7.33849 52.793 7.52463 51.7194C7.64431 51.0278 7.76833 50.3133 7.82027 49.6156L7.82766 49.5157L7.76654 49.4368C7.30156 48.8358 6.68456 48.2766 6.08768 47.7358C5.51015 47.2127 4.91301 46.6714 4.49004 46.1188C4.22878 45.7771 4.1203 45.5163 4.15824 45.3223C4.19313 45.144 4.35839 44.9668 4.66244 44.7819L9.68044 43.8917L12.0232 39.4344C12.1795 39.2292 12.3916 39.1253 12.6071 39.1324C12.8546 39.1446 13.095 39.301 13.2411 39.5368L15.5515 43.8922L20.5046 44.7605C20.831 44.9271 21.0126 45.1109 21.0442 45.3065Z" fill="white"/>
<path d="M26.274 25.9016C26.1872 25.9327 26.1001 25.9643 26.0151 25.9989C24.9242 26.4405 23.7429 26.8229 22.6003 27.1922C18.0233 28.6727 13.2905 30.2036 12.8767 36.0258C12.8503 36.4016 12.7876 37.2812 13.1169 37.6504C13.2213 37.767 13.3626 37.8281 13.5495 37.8358C13.7652 37.846 13.9243 37.7996 14.0318 37.6967C14.2867 37.4518 14.2847 36.8707 14.2829 36.4037C14.2821 36.2132 14.2821 36.0354 14.2956 35.8867C14.5551 33.0714 16.3223 30.9522 19.4063 29.7585L19.9841 29.5339C22.0505 28.7307 24.8804 27.6307 26.7054 27.2192L26.7635 27.2034C26.8921 27.1677 27.0858 27.1143 27.2684 27.2212C27.3423 27.2645 27.3759 27.3149 27.6101 27.6816C27.7359 27.8787 27.9086 28.1486 27.9779 28.2281C29.1304 29.541 30.7537 30.2066 32.4288 30.0472C34.195 29.8822 35.8142 28.8285 36.7605 27.2283L36.8725 27.0389L37.0783 27.1178C38.2186 27.5553 39.4256 27.95 40.5929 28.332C42.024 28.8 43.5037 29.2838 44.8895 29.8552C47.7428 31.0302 49.4517 33.1722 49.702 35.8867C49.715 36.0278 49.7157 36.1994 49.7162 36.3843C49.7178 36.8747 49.7196 37.4859 49.9915 37.7242C50.1074 37.8256 50.279 37.8597 50.5161 37.8291C50.6903 37.8067 50.8171 37.7339 50.9154 37.6C51.3218 37.0474 51.0862 35.7039 50.9856 35.1304C50.0717 29.9164 45.8291 28.5683 41.3372 27.1413C40.0044 26.7175 38.626 26.2795 37.3661 25.7351C37.1213 25.6338 36.7834 25.345 36.676 25.0791C36.5443 24.7517 36.5201 22.6045 36.6143 22.2867C36.6416 22.1945 36.7152 22.0952 37.1758 21.5304C37.4251 21.2244 37.735 20.8444 37.8259 20.6952C39.8374 17.3945 40.354 9.84638 38.1264 6.65111C35.9227 3.49048 32.5166 3.08865 30.0644 3.7655C26.9109 4.63689 24.7276 7.29282 24.5017 10.5319C24.3507 12.6938 24.2389 18.0581 26.4513 21.1658C26.5093 21.2473 26.6838 21.4367 26.8376 21.6043C27.2424 22.0443 27.3489 22.1706 27.3833 22.2872C27.4795 22.6122 27.4551 24.4456 27.4141 24.796C27.3298 25.5232 26.7444 25.7331 26.274 25.9016ZM25.9193 10.4947C26.0846 8.12499 27.5936 6.12196 29.8571 5.26789C32.1321 4.41076 34.6006 4.92056 36.3006 6.6012C36.6816 6.97757 38.4384 9.47002 37.9222 10.3002C37.7213 10.623 35.8593 10.9877 35.8412 10.9907C33.9961 11.2805 31.4896 10.8639 29.7464 9.97625C29.5243 9.86318 29.2982 9.69614 29.0794 9.5352C28.4683 9.08448 28.0362 8.80692 27.6191 9.04527C27.383 9.18074 27.259 9.33047 27.2508 9.49141C27.2361 9.78526 27.5791 10.2202 28.1464 10.6266C30.5803 12.3694 34.6128 12.9316 37.736 11.9645L38.0482 11.8677L38.0732 12.1937C38.4007 16.4646 37.3225 21.4591 33.3147 22.6682C33.0931 22.7349 32.8385 22.7619 32.5688 22.7899C31.8161 22.8683 31.3544 22.9524 31.2903 23.4494C31.2383 23.8502 31.3916 23.9979 31.5115 24.0743C32.1991 24.5118 34.1504 23.9154 34.7659 23.5258L35.1522 23.2814L35.1662 23.7382C35.1705 23.8828 35.1682 24.028 35.1659 24.1731C35.1619 24.4252 35.1583 24.6636 35.1899 24.8983C35.2092 25.0415 35.3271 25.3389 35.4218 25.5782C35.6006 26.029 35.6602 26.1996 35.6296 26.3447C35.5909 26.5306 35.1122 27.1484 35.1074 27.1545C34.3261 28.1272 33.1886 28.6844 31.9837 28.6844H31.9625C30.7687 28.6778 29.6483 28.1191 28.8887 27.1514C28.2694 26.3631 28.3634 26.033 28.5923 25.5833C28.6875 25.3959 28.7955 25.1836 28.8307 24.8337C28.8882 24.2617 28.916 22.2801 28.8167 21.837C28.7703 21.6298 28.4113 21.2717 28.1492 21.0099C27.9684 20.8292 27.7976 20.6585 27.6802 20.5037C25.819 18.0474 25.6955 13.7052 25.9193 10.4947ZM4.85267 36.3945C4.14502 36.013 3.67647 35.6356 3.37446 34.8356C2.86136 33.4763 3.1738 29.9464 3.77247 28.58C4.78901 26.2607 6.71513 25.4346 8.75457 24.5602C9.42072 24.2745 10.1098 23.9791 10.7854 23.6256L10.8773 23.5773L10.9111 23.479C10.9865 23.259 10.9618 21.2116 10.9076 21.0268C10.8808 20.9371 10.8093 20.8424 10.4561 20.4008C10.1513 20.0194 9.73367 19.4974 9.61501 19.2575C8.80906 17.6278 8.70058 13.4786 9.41791 11.7328C10.2325 9.74961 12.0845 8.4438 14.2516 8.32412C14.3588 8.31801 14.4655 8.31495 14.5719 8.31495C16.6045 8.31495 18.4399 9.39006 19.4147 11.1741C20.4037 12.9831 20.4539 17.3721 19.5074 19.2712C19.3831 19.5208 18.925 20.082 18.6217 20.4538C18.2815 20.8704 18.225 20.9437 18.2003 21.0268C18.1221 21.2911 18.1275 23.1041 18.1741 23.3578C18.1914 23.4515 18.2319 23.672 18.4799 23.783L21.475 25.0868C21.7595 25.374 21.8529 25.7096 21.719 25.9709C21.5792 26.2429 21.2189 26.361 20.7791 26.2775C20.3597 26.198 17.7552 25.0639 17.2179 24.7939C17.1242 24.7451 16.8237 24.4542 16.7529 24.3366V21.6832L16.3386 21.9847C15.9852 22.2419 15.4392 22.2709 15.0957 22.0484C14.8673 21.9007 14.7835 21.6735 14.8467 21.3736C14.9253 20.9993 15.1573 20.9223 15.5951 20.8078C15.7443 20.7685 15.8945 20.7283 16.0356 20.6708C17.9403 19.8951 18.9821 17.8941 18.6897 15.5723L18.661 15.3436L18.4305 15.3441H18.4117C16.9403 15.3441 15.4741 14.9479 14.1655 14.1952C13.7224 13.94 12.9804 13.5132 12.8828 13.0442C12.8487 12.8792 12.8979 12.7106 13.0331 12.5288C13.3893 12.049 13.7632 12.2334 14.4739 12.7325C14.6391 12.8491 14.798 12.9602 14.9452 13.0401C16.1823 13.7159 17.3605 14.0144 18.4516 13.9263L18.705 13.9059L18.691 13.6523C18.5599 11.2668 16.7504 9.98999 15.0152 9.78221C13.3048 9.58206 11.2735 10.3827 10.5923 12.6419C10.3107 13.5769 10.299 17.1383 10.5748 18.0097C10.8123 18.7594 11.2745 19.2738 11.7217 19.7714C11.9307 20.0046 12.1467 20.2445 12.3338 20.5052L12.3119 24.3804C12.2516 24.4991 12.0204 24.7293 11.8897 24.7945C11.273 25.1046 10.5977 25.3582 9.88289 25.6266C7.70849 26.4425 5.46025 27.2869 4.77526 29.8033C4.52265 30.7312 4.48802 33.1381 4.60108 34.1007C4.66499 34.6451 4.9339 34.8457 5.3067 35.0698C5.78797 35.3586 6.47474 35.6234 7.13911 35.8791C7.93003 36.1836 8.74795 36.4984 9.18568 36.8391C9.45152 37.0464 9.53836 37.354 9.40671 37.6229C9.28371 37.8745 8.92823 38.1128 8.33593 37.9646C7.71103 37.8062 5.56898 36.7815 4.85267 36.3945ZM42.6494 25.9679C42.4925 25.7972 42.4543 25.5406 42.5422 25.2457C42.6333 24.9381 43.6904 24.5434 44.3219 24.3071C44.8513 24.1095 45.3084 23.9389 45.5645 23.7565C45.7153 23.6491 45.7848 23.5696 45.8235 23.3573C45.8701 23.1041 45.8755 21.2916 45.7973 21.0268C45.7705 20.9371 45.699 20.8424 45.3458 20.4008C45.041 20.0194 44.6234 19.4974 44.5047 19.2575C43.6659 17.5616 43.5951 13.4165 44.3741 11.6111C45.232 9.6228 47.1487 8.37047 49.3766 8.34297C49.4018 8.34246 49.4265 8.34246 49.4517 8.34246C51.6493 8.34246 53.5629 9.53979 54.458 11.4807C55.2991 13.3049 55.2662 17.5274 54.3974 19.2712C54.2731 19.5208 53.815 20.082 53.5117 20.4538C53.1715 20.8704 53.115 20.9437 53.0903 21.0268C53.0358 21.2106 53.0108 23.259 53.087 23.4795L53.1208 23.5773L53.2125 23.6256C53.8881 23.9791 54.5771 24.2745 55.2433 24.5602C57.2825 25.4346 59.2086 26.2607 60.2251 28.58C60.9419 30.2158 61.314 34.4887 60.0657 35.7798C59.6382 36.2223 56.5572 37.6672 55.7862 37.9167C55.2845 38.0797 54.8404 38.0206 54.6543 37.7675C54.4985 37.5546 54.5507 37.2175 54.7926 36.8595C55.3477 36.5208 56.0398 36.2488 56.71 35.9855C57.4276 35.7039 58.1696 35.4126 58.7617 35.0326C59.215 34.7418 59.3522 34.5198 59.3996 33.9998C59.4834 33.0846 59.4879 30.7669 59.2432 29.8782C58.5261 27.2726 56.3072 26.4445 54.1613 25.6439C53.4674 25.3852 52.7501 25.1173 52.1084 24.7945C52.0144 24.7456 51.7137 24.4542 51.6429 24.3366V21.6883L51.2304 21.9837C50.8846 22.2317 50.3478 22.2674 50.0081 22.0657C49.7819 21.9312 49.6849 21.7168 49.7203 21.4291C49.7702 21.0232 50.1267 20.8928 50.7043 20.7146C50.9747 20.631 51.2546 20.545 51.4883 20.4019C54.0052 18.8623 53.7516 15.6339 53.5838 13.498C53.3811 10.9194 51.2984 9.74503 49.4486 9.74503C47.5943 9.74503 45.5065 10.9194 45.3035 13.498C45.1625 15.2942 45.0963 17.8483 46.1489 19.2804C46.2717 19.4475 46.4471 19.6145 46.633 19.7912C46.8897 20.0352 47.2095 20.3387 47.2424 20.546C47.3437 21.1851 47.2951 22.0117 47.248 22.8113C47.2149 23.3725 47.1838 23.9037 47.1996 24.3845C47.1362 24.5042 46.9091 24.7293 46.7797 24.7939C46.1978 25.0858 43.9506 26.0651 43.4851 26.1619C43.1386 26.2327 42.8266 26.1609 42.6494 25.9679ZM41.2366 48.3683C40.2993 48.1076 39.2178 47.9685 38.1717 47.8336C37.2815 47.719 36.361 47.6008 35.5242 47.4073L35.4076 47.3803L32.5861 41.9966C32.3753 41.6916 32.0076 41.6951 31.7382 41.7568C31.6139 41.7853 31.4728 41.905 31.3608 42.0766L28.5903 47.3773L28.4762 47.4053C27.6048 47.6207 26.6445 47.7419 25.7156 47.8585C24.7077 47.9859 23.6655 48.1167 22.761 48.3683C22.5639 48.4233 22.3072 48.5389 22.2048 48.7778C22.1239 48.9667 22.1511 49.2036 22.283 49.4648L26.3996 53.7275L26.4166 53.7953C26.4653 53.9908 26.4556 54.1813 26.4469 54.3494L26.4431 54.4299C26.408 55.2605 26.2274 56.167 26.053 57.044C25.8834 57.895 25.7082 58.7751 25.6698 59.5716C25.657 59.8349 25.6838 60.1873 25.8832 60.3676C26.0186 60.4893 26.2341 60.5316 26.5246 60.4934C27.2827 60.1512 28.0425 59.7687 28.7777 59.3985C29.8029 58.8815 30.863 58.3478 31.9421 57.9108L32.0496 57.8675L37.4402 60.4883C37.5955 60.523 37.8802 60.553 38.0824 60.3916C38.2555 60.2535 38.3452 59.9938 38.3347 59.6602C38.3082 58.8372 38.1241 57.9205 37.9461 57.0343C37.7709 56.1614 37.5896 55.2595 37.5545 54.4304L37.5507 54.3494C37.542 54.1813 37.5323 53.9908 37.581 53.7953L37.598 53.7275L41.7146 49.4648C41.8465 49.2036 41.8737 48.9667 41.7928 48.7778C41.6904 48.5389 41.4337 48.4233 41.2366 48.3683ZM39.4294 49.774C39.4256 49.9573 39.3069 50.0892 38.2749 51.0569C37.5741 51.7138 36.1155 53.0813 36.077 53.4271C36.1292 54.3713 36.2973 55.3858 36.46 56.3662C36.5514 56.9182 36.6429 57.4698 36.7152 58.0198L36.7529 58.3065L36.4641 58.3147C36.1593 58.3132 35.8983 58.2047 35.665 58.0998C35.2703 57.9231 34.8107 57.6654 34.3241 57.3919C33.6136 56.9936 32.8087 56.5414 32.3239 56.4145C32.1807 56.3769 32.0807 56.3621 31.9569 56.3682C31.5798 56.3799 30.4698 56.9814 29.6595 57.4204C29.1204 57.7127 28.6112 57.9888 28.2844 58.1196L28.1897 58.1589C28.0138 58.2332 27.8164 58.3162 27.5852 58.3162C27.5653 58.3162 27.5452 58.3157 27.5246 58.3142L27.2396 58.2964L27.9539 53.6868C27.9695 53.6007 27.9417 53.5116 27.9066 53.3991C27.7739 52.9718 26.4849 51.7668 25.7148 51.0472C24.6899 50.0892 24.572 49.9583 24.5682 49.774L24.5667 49.7006L24.6036 49.637C24.736 49.4103 24.9328 49.3889 25.0388 49.3772C25.0591 49.3752 25.0803 49.3732 25.1017 49.3681C25.6929 49.2219 26.3402 49.1404 26.9659 49.0615C27.7079 48.9678 28.4752 48.871 29.1311 48.6673C29.4971 48.5542 29.5561 48.5099 29.7639 48.1911C30.1136 47.6563 30.4214 46.9943 30.7191 46.3541C31.0137 45.72 31.3185 45.0651 31.6738 44.5049L31.726 44.4229L32.1976 44.2808L32.306 44.4326C32.5367 44.7555 32.8347 45.3956 33.1795 46.1371C33.6088 47.06 34.1968 48.324 34.5156 48.5333C34.8993 48.7854 36.2125 48.9627 37.2678 49.1058C37.911 49.1924 38.5188 49.2749 38.896 49.3681C38.9173 49.3732 38.9385 49.3752 38.9588 49.3772C39.0648 49.3889 39.2621 49.4103 39.394 49.6375L39.431 49.7006L39.4294 49.774ZM59.905 45.115C59.9947 45.3157 59.9827 45.5739 59.873 45.828L56.3579 49.5066L57.0375 54.4512C57.0563 54.6351 56.9756 54.9274 56.8748 55.041C56.7342 55.1999 56.3423 55.3323 56.1664 55.2345L51.6296 53.0227L51.524 53.0634C50.5586 53.4322 49.6266 53.9048 48.7252 54.3621C48.1209 54.6687 47.4963 54.9855 46.8709 55.2661C46.4064 55.342 46.2129 54.9896 46.1642 54.878C46.0415 54.5969 46.068 54.2032 46.3639 53.9802L51.3439 51.5412C51.5194 51.5066 51.6971 51.5162 51.9008 51.5687C52.0493 51.6079 52.6217 51.9135 53.1269 52.1834C54.8511 53.1042 55.1193 53.205 55.335 53.0156L55.4302 52.9305L55.4218 52.8032C55.3966 52.4263 55.2978 51.9374 55.1934 51.42C55.0088 50.5063 54.7997 49.4704 54.9693 48.9199C55.0487 48.6948 56.0108 47.803 56.5277 47.3238C57.4551 46.4641 57.5509 46.3577 57.5529 46.1855L57.5547 46.0108L57.394 45.9426C56.7462 45.6671 56.0253 45.5662 55.3281 45.469C54.7462 45.3875 54.1453 45.3039 53.6087 45.1181C53.487 44.9902 53.1916 44.4774 52.7297 43.5912L52.6278 43.3972C52.5797 43.306 52.4679 43.0544 52.3467 42.782C51.9375 41.8622 51.9067 41.8174 51.8288 41.7593C51.7419 41.6931 51.6388 41.6676 51.5364 41.6865C51.3526 41.7211 51.2512 41.8861 51.1843 41.9956C51.03 42.2401 50.8336 42.6536 50.6062 43.1323C50.2698 43.8403 49.7616 44.9103 49.4906 45.0895C49.1479 45.3157 47.7384 45.4939 46.8966 45.6009C45.9442 45.7211 45.7838 45.748 45.6776 45.8499L45.6246 45.9008L45.6061 45.9721C45.5345 46.2461 45.6931 46.3913 45.7958 46.4875C46.0748 46.8501 46.4566 47.2021 46.826 47.5417C47.1469 47.8371 47.4787 48.1427 47.7298 48.4447L47.8293 48.5608C47.9185 48.6642 48.127 48.9056 48.1604 48.9718C48.3188 49.3553 48.1729 49.6548 47.9834 49.8076C47.795 49.9604 47.4688 50.0378 47.1207 49.7964C46.5574 49.4062 43.946 46.7631 43.4502 46.1213C43.2613 45.8769 43.0522 45.5265 43.1302 45.2423C43.1826 45.0524 43.3667 44.8914 43.6776 44.7646L48.6198 43.9212L51.0289 39.3708C51.194 39.1976 51.3898 39.1187 51.5953 39.1344C51.8334 39.1553 52.0577 39.3076 52.2016 39.5368L54.4829 43.8306L54.5321 43.8662C54.6642 43.9615 54.8078 43.9956 54.9235 44.0231L54.9782 44.0363C55.6268 44.1983 56.3843 44.2838 57.1172 44.3669C57.942 44.4601 58.7948 44.5563 59.4724 44.76C59.6825 44.8232 59.8281 44.9429 59.905 45.115ZM21.0442 45.3065C21.1139 45.7394 20.5178 46.3271 20.0386 46.7987C19.9021 46.9337 19.7715 47.0625 19.6594 47.1832L19.3684 47.4985C18.7114 48.2135 17.4883 49.5448 17.0274 49.8335C16.7346 50.0179 16.4155 49.9492 16.2149 49.8244C15.9931 49.6859 15.8749 49.4663 15.8991 49.2367C15.9419 48.8308 16.8889 47.9527 17.5156 47.3722C17.9592 46.9612 18.3421 46.6062 18.541 46.3378L18.5914 46.2701L18.5925 46.185C18.5958 45.8698 18.388 45.7755 15.9946 45.4063C15.6266 45.3493 15.279 45.2958 15.1795 45.2708L15.0626 45.2413C14.7772 45.1707 14.5473 44.9924 14.3728 44.7066C14.3389 44.6505 14.2375 44.4473 14.1008 44.1749C13.0094 42.0033 12.8156 41.7649 12.6063 41.7114L12.4703 41.6844L12.3725 41.7517L12.3053 41.8189C12.1222 42.0858 11.8992 42.5665 11.6407 43.1237C11.2929 43.8734 10.8167 44.9006 10.5304 45.0895C10.1852 45.3172 8.77494 45.4954 7.93258 45.6014C6.98378 45.7216 6.8236 45.748 6.71767 45.8494L6.6642 45.9008L6.64561 45.9721C6.57431 46.2461 6.7332 46.3913 6.83557 46.4875C7.08385 46.8104 7.42431 47.1226 7.75331 47.4246C8.00795 47.6579 8.24833 47.8784 8.44415 48.0984L8.48897 48.1488C9.07414 48.8058 9.20375 48.9861 9.22183 49.0166C9.34483 49.4088 9.16352 50.3454 9.0036 51.1719C8.87959 51.8126 8.76271 52.4172 8.76933 52.8246L8.77111 52.9325L8.84827 53.0074C9.05784 53.2106 9.32955 53.1088 11.082 52.1747C11.5829 51.9079 12.1502 51.6059 12.2905 51.5687C12.4881 51.5172 12.6618 51.5065 12.8334 51.5381C13.4874 51.9542 14.3287 52.3148 15.1431 52.6631C16.0743 53.0619 17.0371 53.4744 17.6872 53.9577C18.0024 54.192 18.1354 54.4981 18.0424 54.7767C17.95 55.0542 17.663 55.2376 17.3027 55.2539L12.9249 53.1133L12.5363 53.0354L7.98223 55.2432C7.71179 55.3277 7.38254 55.1984 7.22645 54.9468C7.14598 53.9027 7.33849 52.793 7.52463 51.7194C7.64431 51.0278 7.76833 50.3133 7.82027 49.6156L7.82766 49.5157L7.76654 49.4368C7.30156 48.8358 6.68456 48.2766 6.08768 47.7358C5.51015 47.2127 4.91301 46.6714 4.49004 46.1188C4.22878 45.7771 4.1203 45.5163 4.15824 45.3223C4.19313 45.144 4.35839 44.9668 4.66244 44.7819L9.68044 43.8917L12.0232 39.4344C12.1795 39.2292 12.3916 39.1253 12.6071 39.1324C12.8546 39.1446 13.095 39.301 13.2411 39.5368L15.5515 43.8922L20.5046 44.7605C20.831 44.9271 21.0126 45.1109 21.0442 45.3065Z" stroke="white" stroke-width="0.5" mask="url(#path-1-outside-1_825_4)"/>
</svg>
