<svg width="64" height="64" viewBox="0 0 64 64" fill="none" xmlns="http://www.w3.org/2000/svg">
<path d="M40 5.3335H16C14.5855 5.3335 13.229 5.8954 12.2288 6.89559C11.2286 7.89579 10.6667 9.25234 10.6667 10.6668V53.3335C10.6667 54.748 11.2286 56.1045 12.2288 57.1047C13.229 58.1049 14.5855 58.6668 16 58.6668H48C49.4145 58.6668 50.7711 58.1049 51.7713 57.1047C52.7715 56.1045 53.3334 54.748 53.3334 53.3335V18.6668L40 5.3335Z" stroke="white" stroke-width="5.33333" stroke-linecap="round" stroke-linejoin="round"/>
<path d="M37.3333 5.3335V16.0002C37.3333 17.4147 37.8952 18.7712 38.8954 19.7714C39.8956 20.7716 41.2522 21.3335 42.6666 21.3335H53.3333" stroke="white" stroke-width="5.33333" stroke-linecap="round" stroke-linejoin="round"/>
<path d="M26.6666 24H21.3333" stroke="white" stroke-width="5.33333" stroke-linecap="round" stroke-linejoin="round"/>
<path d="M42.6666 34.6665H21.3333" stroke="white" stroke-width="5.33333" stroke-linecap="round" stroke-linejoin="round"/>
<path d="M42.6666 45.3335H21.3333" stroke="white" stroke-width="5.33333" stroke-linecap="round" stroke-linejoin="round"/>
</svg>
