<svg width="22" height="24" viewBox="0 0 22 24" fill="none" xmlns="http://www.w3.org/2000/svg">
<path d="M22.0078 12.9961C22.0078 13.2695 21.9062 13.5078 21.7031 13.7109L11.7539 23.6602C11.6445 23.7695 11.5312 23.8555 11.4141 23.918C11.2969 23.9727 11.1602 24 11.0039 24C10.7227 24 10.4844 23.9023 10.2891 23.707L0.292969 13.7109C0.0976562 13.5156 0 13.2773 0 12.9961C0 12.7227 0.0976562 12.4883 0.292969 12.293C0.488281 12.0977 0.722656 12 0.996094 12C1.27734 12 1.51562 12.0977 1.71094 12.293L9.99609 20.5781V0.996094C9.99609 0.855469 10.0234 0.726562 10.0781 0.609375C10.1328 0.484375 10.2031 0.378906 10.2891 0.292969C10.3828 0.199219 10.4883 0.128906 10.6055 0.0820312C10.7305 0.0273437 10.8633 0 11.0039 0C11.2773 0 11.5117 0.0976562 11.707 0.292969C11.9023 0.488281 12 0.722656 12 0.996094V20.5898L20.2969 12.293C20.4922 12.0977 20.7266 12 21 12C21.1406 12 21.2695 12.0273 21.3867 12.082C21.5117 12.1289 21.6172 12.1992 21.7031 12.293C21.7969 12.3789 21.8711 12.4844 21.9258 12.6094C21.9805 12.7266 22.0078 12.8555 22.0078 12.9961Z" fill="white"/>
</svg>
