<svg width="12" height="17" viewBox="0 0 12 17" fill="none" xmlns="http://www.w3.org/2000/svg">
<path d="M1 9.5C1 9.36458 1.04948 9.2474 1.14844 9.14844C1.2474 9.04948 1.36458 9 1.5 9C1.63542 9 1.7526 9.04948 1.85156 9.14844L5.5 12.7891V1C5.5 0.864583 5.54948 0.747396 5.64844 0.648438C5.7474 0.549479 5.86458 0.5 6 0.5C6.13542 0.5 6.2526 0.549479 6.35156 0.648438C6.45052 0.747396 6.5 0.864583 6.5 1V12.7891L10.1484 9.14844C10.2474 9.04948 10.3646 9 10.5 9C10.6354 9 10.7526 9.04948 10.8516 9.14844C10.9505 9.2474 11 9.36458 11 9.5C11 9.63542 10.9505 9.7526 10.8516 9.85156L6.375 14.3281C6.31771 14.3854 6.26042 14.4297 6.20312 14.4609C6.15104 14.487 6.08333 14.5 6 14.5C5.91667 14.5 5.84635 14.487 5.78906 14.4609C5.73698 14.4297 5.68229 14.3854 5.625 14.3281L1.14844 9.85156C1.04948 9.7526 1 9.63542 1 9.5ZM11 15.5C11.1354 15.5 11.2526 15.5495 11.3516 15.6484C11.4505 15.7474 11.5 15.8646 11.5 16C11.5 16.1354 11.4505 16.2526 11.3516 16.3516C11.2526 16.4505 11.1354 16.5 11 16.5H1C0.864583 16.5 0.747396 16.4505 0.648438 16.3516C0.549479 16.2526 0.5 16.1354 0.5 16C0.5 15.8646 0.549479 15.7474 0.648438 15.6484C0.747396 15.5495 0.864583 15.5 1 15.5H11Z" fill="black"/>
</svg>
