<svg width="48" height="48" viewBox="0 0 48 48" fill="none" xmlns="http://www.w3.org/2000/svg">
<g clip-path="url(#clip0_783_51)">
<path d="M47.9404 4.76197L47.942 27.3021C47.7082 29.816 45.7156 31.8086 43.2564 32.0364L26.3062 32.0342C25.6692 31.9115 25.4419 31.4591 25.443 31.0703C25.4441 30.6869 25.6834 30.2016 26.2656 30.1019L43.0757 30.0943C43.7773 30.0329 44.5452 29.689 45.0315 29.2201C45.554 28.7173 45.933 27.9133 45.9993 27.1235L45.9955 4.85617C45.8328 3.33137 44.6093 2.1089 43.0264 1.94349L20.3877 1.94569C19.0102 2.06508 18.0391 3.12105 17.8496 4.76635L17.8464 21.5961C17.7505 22.2665 17.2937 22.5174 16.8977 22.5294C16.5423 22.5491 16.0554 22.3279 15.9064 21.7024L15.9042 4.65023C16.0877 2.10671 17.8754 0.195225 20.2064 0.00243569L43.2049 0.000244141C45.7611 0.234659 47.7531 2.25568 47.9404 4.76197ZM19.1203 27.4905C16.631 29.988 14.1412 32.4866 11.6486 34.982C11.1036 35.5275 10.4962 36.0927 9.87839 36.6678C8.8038 37.669 7.69251 38.703 6.85344 39.6911C6.29588 40.3462 6.41801 40.9169 6.71816 41.2323C7.00406 41.5347 7.5408 41.6836 8.0414 41.3002L39.6416 9.72853V16.6318C39.6597 16.5901 39.7648 16.8749 39.8032 16.9418C40.0086 17.2737 40.3657 17.4424 40.7649 17.3843C41.1412 17.3306 41.4298 17.0929 41.5492 16.7435L41.5859 7.21019C41.5712 7.07108 41.5186 6.48832 40.6423 6.35249L31.2536 6.37878C30.8636 6.44451 30.6199 6.81804 30.5498 7.14337C30.4807 7.46323 30.547 7.89482 30.9392 8.15005C30.9824 8.17305 31.1517 8.25411 31.2579 8.30012H37.9865L36.9628 9.65732C30.954 15.6152 24.938 21.652 19.1203 27.4905ZM22.5916 34.8505C22.3539 34.213 21.8977 34.0257 21.5439 34.0706C21.1665 34.1155 20.7065 34.4573 20.6506 35.2711C20.5487 36.7499 20.5964 38.3306 20.6418 39.8598C20.6845 41.2761 20.7284 42.7407 20.6566 44.1472C20.466 45.19 19.6362 45.8977 18.6296 45.9426L4.05249 45.9437C2.95106 45.9042 2.07748 45.0717 2.00025 44.007C2.01449 42.0079 2.00792 40.0515 2.0008 38.0951C1.98984 35.1112 1.97889 32.0266 2.05393 28.9956L2.08241 28.8335C2.3694 27.9648 3.11537 27.3875 4.07659 27.2911C5.52417 27.1454 7.10812 27.2188 8.64223 27.2922C10.1594 27.3645 11.7274 27.439 13.1065 27.2911C13.278 27.2725 13.496 27.1663 13.6241 27.0403C13.898 26.7686 13.9752 26.3841 13.8317 26.0139C13.7112 25.7028 13.4072 25.3632 12.9154 25.3435C11.7674 25.5067 10.3204 25.43 8.78957 25.3468C3.90023 25.0806 0.651814 25.2066 0.0581055 29.15L0.0619383 44.3455C0.288688 46.212 1.82718 47.6952 3.8 47.8858C4.71083 47.831 5.65452 47.8113 6.6119 47.8113C8.07317 47.8113 9.56785 47.8584 11.033 47.9055C13.6471 47.9899 16.3495 48.0764 18.8684 47.8858C20.7914 47.7423 22.429 46.1978 22.5971 44.3707C22.7412 42.8042 22.6765 41.0779 22.6141 39.4085C22.5571 37.8935 22.4985 36.3293 22.5916 34.8505Z" fill="white"/>
</g>
<defs>
<clipPath id="clip0_783_51">
<rect width="48" height="48" fill="white"/>
</clipPath>
</defs>
</svg>
