<svg width="48" height="48" viewBox="0 0 48 48" fill="none" xmlns="http://www.w3.org/2000/svg">
<path d="M19.3421 8.27181C19.4523 7.11249 19.9908 6.0359 20.8523 5.25237C21.7139 4.46884 22.8366 4.03467 24.0011 4.03467C25.1657 4.03467 26.2884 4.46884 27.1499 5.25237C28.0115 6.0359 28.5499 7.11249 28.6601 8.27181C28.7264 9.02072 28.972 9.74265 29.3764 10.3765C29.7807 11.0103 30.3318 11.5374 30.983 11.9132C31.6343 12.2889 32.3664 12.5022 33.1175 12.5351C33.8686 12.5679 34.6166 12.4193 35.2981 12.1018C36.3563 11.6214 37.5555 11.5519 38.6621 11.9068C39.7688 12.2617 40.7038 13.0157 41.2852 14.022C41.8665 15.0283 42.0527 16.215 41.8074 17.351C41.5621 18.487 40.9029 19.491 39.9581 20.1678C39.3429 20.5995 38.8407 21.173 38.4939 21.8399C38.1472 22.5067 37.9662 23.2472 37.9662 23.9988C37.9662 24.7504 38.1472 25.4909 38.4939 26.1578C38.8407 26.8246 39.3429 27.3981 39.9581 27.8298C40.9029 28.5066 41.5621 29.5107 41.8074 30.6467C42.0527 31.7827 41.8665 32.9693 41.2852 33.9756C40.7038 34.9819 39.7688 35.7359 38.6621 36.0908C37.5555 36.4458 36.3563 36.3763 35.2981 35.8958C34.6166 35.5783 33.8686 35.4297 33.1175 35.4626C32.3664 35.4954 31.6343 35.7087 30.983 36.0845C30.3318 36.4602 29.7807 36.9873 29.3764 37.6211C28.972 38.255 28.7264 38.9769 28.6601 39.7258C28.5499 40.8851 28.0115 41.9617 27.1499 42.7453C26.2884 43.5288 25.1657 43.963 24.0011 43.963C22.8366 43.963 21.7139 43.5288 20.8523 42.7453C19.9908 41.9617 19.4523 40.8851 19.3421 39.7258C19.276 38.9766 19.0303 38.2544 18.6259 37.6204C18.2214 36.9863 17.6701 36.459 17.0186 36.0833C16.3671 35.7075 15.6347 35.4942 14.8833 35.4616C14.1319 35.429 13.3837 35.5779 12.7021 35.8958C11.6439 36.3763 10.4448 36.4458 9.33812 36.0908C8.23147 35.7359 7.29647 34.9819 6.71509 33.9756C6.13371 32.9693 5.94755 31.7827 6.19284 30.6467C6.43813 29.5107 7.09732 28.5066 8.04212 27.8298C8.65736 27.3981 9.15958 26.8246 9.5063 26.1578C9.85301 25.4909 10.034 24.7504 10.034 23.9988C10.034 23.2472 9.85301 22.5067 9.5063 21.8399C9.15958 21.173 8.65736 20.5995 8.04212 20.1678C7.09865 19.4907 6.44062 18.487 6.19592 17.3518C5.95123 16.2166 6.13734 15.0309 6.71809 14.0252C7.29884 13.0196 8.23275 12.2658 9.3383 11.9103C10.4439 11.5548 11.6421 11.6231 12.7001 12.1018C13.3816 12.4193 14.1296 12.5679 14.8807 12.5351C15.6318 12.5022 16.364 12.2889 17.0152 11.9132C17.6664 11.5374 18.2175 11.0103 18.6219 10.3765C19.0262 9.74265 19.2719 9.02072 19.3381 8.27181" stroke="#FF4172" stroke-width="4" stroke-linecap="round" stroke-linejoin="round"/>
<path d="M24 30C27.3137 30 30 27.3137 30 24C30 20.6863 27.3137 18 24 18C20.6863 18 18 20.6863 18 24C18 27.3137 20.6863 30 24 30Z" stroke="#FF4172" stroke-width="4" stroke-linecap="round" stroke-linejoin="round"/>
</svg>
