<svg width="124" height="124" viewBox="0 0 124 124" fill="none" xmlns="http://www.w3.org/2000/svg">
<rect width="124" height="124" rx="62" fill="#0B2014"/>
<path d="M88.1358 56.6665C89.3536 62.6432 88.4857 68.8569 85.6767 74.2712C82.8677 79.6856 78.2875 83.9733 72.6998 86.4193C67.1121 88.8653 60.8548 89.3219 54.9712 87.7128C49.0877 86.1037 43.9336 82.5262 40.3685 77.5769C36.8034 72.6276 35.0428 66.6058 35.3802 60.5155C35.7177 54.4252 38.1328 48.6347 42.2228 44.1096C46.3129 39.5845 51.8307 36.5983 57.856 35.649C63.8812 34.6997 70.0499 35.8447 75.3331 38.8931" stroke="#40FF1E" stroke-width="2.66667" stroke-linecap="round" stroke-linejoin="round"/>
<path d="M54.0005 59.3331L62.0005 67.3331L88.6672 40.6665" stroke="#40FF1E" stroke-width="2.66667" stroke-linecap="round" stroke-linejoin="round"/>
</svg>
