<svg width="24" height="24" viewBox="0 0 24 24" fill="none" xmlns="http://www.w3.org/2000/svg">
<rect width="24" height="24" rx="12" fill="#1ECA00" fill-opacity="0.2"/>
<mask id="path-2-outside-1_560_88" maskUnits="userSpaceOnUse" x="5" y="7" width="14" height="10" fill="black">
<rect fill="white" x="5" y="7" width="14" height="10"/>
<path d="M6 12.5C6 12.3646 6.04948 12.2474 6.14844 12.1484C6.2474 12.0495 6.36458 12 6.5 12C6.63542 12 6.7526 12.0495 6.85156 12.1484L10 15.2891L17.1484 8.14844C17.2474 8.04948 17.3646 8 17.5 8C17.6354 8 17.7526 8.04948 17.8516 8.14844C17.9505 8.2474 18 8.36458 18 8.5C18 8.63542 17.9505 8.7526 17.8516 8.85156L10.3516 16.3516C10.2526 16.4505 10.1354 16.5 10 16.5C9.86458 16.5 9.7474 16.4505 9.64844 16.3516L6.14844 12.8516C6.04948 12.7526 6 12.6354 6 12.5Z"/>
</mask>
<path d="M6 12.5C6 12.3646 6.04948 12.2474 6.14844 12.1484C6.2474 12.0495 6.36458 12 6.5 12C6.63542 12 6.7526 12.0495 6.85156 12.1484L10 15.2891L17.1484 8.14844C17.2474 8.04948 17.3646 8 17.5 8C17.6354 8 17.7526 8.04948 17.8516 8.14844C17.9505 8.2474 18 8.36458 18 8.5C18 8.63542 17.9505 8.7526 17.8516 8.85156L10.3516 16.3516C10.2526 16.4505 10.1354 16.5 10 16.5C9.86458 16.5 9.7474 16.4505 9.64844 16.3516L6.14844 12.8516C6.04948 12.7526 6 12.6354 6 12.5Z" fill="#169000"/>
<path d="M6 12.5C6 12.3646 6.04948 12.2474 6.14844 12.1484C6.2474 12.0495 6.36458 12 6.5 12C6.63542 12 6.7526 12.0495 6.85156 12.1484L10 15.2891L17.1484 8.14844C17.2474 8.04948 17.3646 8 17.5 8C17.6354 8 17.7526 8.04948 17.8516 8.14844C17.9505 8.2474 18 8.36458 18 8.5C18 8.63542 17.9505 8.7526 17.8516 8.85156L10.3516 16.3516C10.2526 16.4505 10.1354 16.5 10 16.5C9.86458 16.5 9.7474 16.4505 9.64844 16.3516L6.14844 12.8516C6.04948 12.7526 6 12.6354 6 12.5Z" fill="#1ECA00"/>
<path d="M6.85156 12.1484L6.49801 12.502L6.49845 12.5024L6.85156 12.1484ZM10 15.2891L9.64689 15.6431L10.0002 15.9955L10.3534 15.6428L10 15.2891ZM17.1484 8.14844L17.5018 8.50218L17.502 8.50199L17.1484 8.14844ZM10.3516 16.3516L9.99801 15.998L10.3516 16.3516ZM9.64844 16.3516L10.002 15.998L9.64844 16.3516ZM6.14844 12.8516L6.50199 12.498L6.14844 12.8516ZM6 12.5H6.5C6.5 12.4967 6.50028 12.4963 6.49995 12.498C6.49961 12.4997 6.49889 12.5023 6.49773 12.505C6.49658 12.5078 6.49562 12.5092 6.49566 12.5091C6.49576 12.509 6.49746 12.5065 6.50199 12.502L6.14844 12.1484L5.79488 11.7949C5.60566 11.9841 5.5 12.2271 5.5 12.5H6ZM6.14844 12.1484L6.50199 12.502C6.50652 12.4975 6.50899 12.4958 6.50913 12.4957C6.50919 12.4956 6.50776 12.4966 6.50503 12.4977C6.50229 12.4989 6.49973 12.4996 6.49797 12.5C6.49628 12.5003 6.49674 12.5 6.5 12.5V12V11.5C6.2271 11.5 5.9841 11.6057 5.79488 11.7949L6.14844 12.1484ZM6.5 12V12.5C6.50326 12.5 6.50372 12.5003 6.50203 12.5C6.50027 12.4996 6.49771 12.4989 6.49497 12.4977C6.49224 12.4966 6.49081 12.4956 6.49087 12.4957C6.49101 12.4958 6.49348 12.4975 6.49801 12.502L6.85156 12.1484L7.20512 11.7949C7.0159 11.6057 6.7729 11.5 6.5 11.5V12ZM6.85156 12.1484L6.49845 12.5024L9.64689 15.6431L10 15.2891L10.3531 14.9351L7.20468 11.7944L6.85156 12.1484ZM10 15.2891L10.3534 15.6428L17.5018 8.50218L17.1484 8.14844L16.7951 7.79469L9.64664 14.9353L10 15.2891ZM17.1484 8.14844L17.502 8.50199C17.5065 8.49746 17.509 8.49576 17.5091 8.49566C17.5092 8.49562 17.5078 8.49658 17.505 8.49773C17.5023 8.49889 17.4997 8.49961 17.498 8.49995C17.4963 8.50028 17.4967 8.5 17.5 8.5V8V7.5C17.2271 7.5 16.9841 7.60566 16.7949 7.79488L17.1484 8.14844ZM17.5 8V8.5C17.5033 8.5 17.5037 8.50028 17.502 8.49995C17.5003 8.49961 17.4977 8.49889 17.495 8.49773C17.4922 8.49658 17.4908 8.49562 17.4909 8.49566C17.491 8.49576 17.4935 8.49746 17.498 8.50199L17.8516 8.14844L18.2051 7.79488C18.0159 7.60566 17.7729 7.5 17.5 7.5V8ZM17.8516 8.14844L17.498 8.50199C17.5025 8.50652 17.5042 8.50899 17.5043 8.50913C17.5044 8.50919 17.5034 8.50776 17.5023 8.50503C17.5011 8.50229 17.5004 8.49973 17.5 8.49797C17.4997 8.49628 17.5 8.49674 17.5 8.5H18H18.5C18.5 8.2271 18.3943 7.9841 18.2051 7.79488L17.8516 8.14844ZM18 8.5H17.5C17.5 8.50326 17.4997 8.50372 17.5 8.50203C17.5004 8.50027 17.5011 8.49771 17.5023 8.49497C17.5034 8.49224 17.5044 8.49081 17.5043 8.49087C17.5042 8.49101 17.5025 8.49348 17.498 8.49801L17.8516 8.85156L18.2051 9.20512C18.3943 9.0159 18.5 8.7729 18.5 8.5H18ZM17.8516 8.85156L17.498 8.49801L9.99801 15.998L10.3516 16.3516L10.7051 16.7051L18.2051 9.20512L17.8516 8.85156ZM10.3516 16.3516L9.99801 15.998C9.99348 16.0025 9.99101 16.0042 9.99087 16.0043C9.99081 16.0044 9.99224 16.0034 9.99497 16.0023C9.99771 16.0011 10.0003 16.0004 10.002 16C10.0037 15.9997 10.0033 16 10 16V16.5V17C10.2729 17 10.5159 16.8943 10.7051 16.7051L10.3516 16.3516ZM10 16.5V16C9.99674 16 9.99628 15.9997 9.99797 16C9.99973 16.0004 10.0023 16.0011 10.005 16.0023C10.0078 16.0034 10.0092 16.0044 10.0091 16.0043C10.009 16.0042 10.0065 16.0025 10.002 15.998L9.64844 16.3516L9.29488 16.7051C9.4841 16.8943 9.7271 17 10 17V16.5ZM9.64844 16.3516L10.002 15.998L6.50199 12.498L6.14844 12.8516L5.79488 13.2051L9.29488 16.7051L9.64844 16.3516ZM6.14844 12.8516L6.50199 12.498C6.49746 12.4935 6.49576 12.491 6.49566 12.4909C6.49562 12.4908 6.49658 12.4922 6.49773 12.495C6.49889 12.4977 6.49961 12.5003 6.49995 12.502C6.50028 12.5037 6.5 12.5033 6.5 12.5H6H5.5C5.5 12.7729 5.60566 13.0159 5.79488 13.2051L6.14844 12.8516Z" fill="#1ECA00" mask="url(#path-2-outside-1_560_88)"/>
</svg>
