<svg width="48" height="48" viewBox="0 0 48 48" fill="none" xmlns="http://www.w3.org/2000/svg">
<path d="M10.5 27H15C15.7956 27 16.5587 27.3161 17.1213 27.8787C17.6839 28.4413 18 29.2044 18 30V34.5C18 35.2956 17.6839 36.0587 17.1213 36.6213C16.5587 37.1839 15.7956 37.5 15 37.5H13.5C12.7044 37.5 11.9413 37.1839 11.3787 36.6213C10.8161 36.0587 10.5 35.2956 10.5 34.5V24C10.5 20.4196 11.9223 16.9858 14.4541 14.4541C16.9858 11.9223 20.4196 10.5 24 10.5C27.5804 10.5 31.0142 11.9223 33.5459 14.4541C36.0777 16.9858 37.5 20.4196 37.5 24V34.5C37.5 35.2956 37.1839 36.0587 36.6213 36.6213C36.0587 37.1839 35.2956 37.5 34.5 37.5H33C32.2044 37.5 31.4413 37.1839 30.8787 36.6213C30.3161 36.0587 30 35.2956 30 34.5V30C30 29.2044 30.3161 28.4413 30.8787 27.8787C31.4413 27.3161 32.2044 27 33 27H37.5" stroke="#FF4D7A" stroke-width="4" stroke-linecap="round" stroke-linejoin="round"/>
</svg>
