<svg width="64" height="64" viewBox="0 0 64 64" fill="none" xmlns="http://www.w3.org/2000/svg">
<path d="M22.2293 5.13779C23.892 4.91391 25.4784 5.47886 26.3072 6.9885C26.4901 7.32171 26.54 7.96856 26.9458 8.01915C28.1884 8.17409 30.1069 8.01434 31.4348 8.018C31.8125 8.01904 32.192 8.01903 32.5697 8.018C34.1191 8.01377 35.6688 8.0234 37.2178 8.0025C37.5389 7.53846 37.6226 7.02992 37.9784 6.56683C40.3464 3.48531 45.2197 5.46988 44.7312 9.454C44.6839 9.83913 44.3668 10.2007 44.5602 10.5225L53.5287 19.4803C53.9587 19.5168 54.3009 19.2904 54.7964 19.2556C58.9866 18.9618 60.4509 24.4152 57.012 26.3032C56.6787 26.4861 56.0319 26.536 55.9813 26.9417C55.8297 28.1576 55.9846 30.0435 55.9826 31.343C55.982 31.7766 55.9815 32.22 55.9826 32.6535C55.9866 34.1736 55.977 35.694 55.998 37.2137C56.462 37.5349 56.9705 37.6185 57.4336 37.9744C60.5101 40.3385 58.5316 45.2158 54.5465 44.7271C54.1613 44.6799 53.7997 44.3628 53.4779 44.5562L44.5202 53.5247C44.4836 53.9546 44.7101 54.2969 44.7448 54.7924C45.0379 58.9719 39.5889 60.4536 37.6973 57.0079C37.5144 56.6747 37.4645 56.0279 37.0587 55.9773C35.8161 55.8223 33.8976 55.9821 32.5697 55.9784C32.192 55.9774 31.8125 55.9774 31.4348 55.9784C29.8854 55.9826 28.3357 55.973 26.7867 55.9939C26.4723 56.4386 26.3605 56.9928 26.0282 57.4317C23.6955 60.5117 18.7836 58.5364 19.2733 54.5424C19.3206 54.1573 19.6377 53.7957 19.4443 53.4739L10.4758 44.5161C10.0458 44.4796 9.7036 44.706 9.20807 44.7408C5.35515 45.0109 3.57735 40.2379 6.56876 37.9723C6.94885 37.6844 7.70477 37.5007 7.93111 37.314C8.02955 37.2328 8.00985 37.1618 8.02319 37.0547C8.17803 35.8117 8.0184 33.8939 8.02203 32.5657C8.02307 32.188 8.02307 31.8085 8.02203 31.4307C8.0178 29.8814 8.02743 28.3317 8.00653 26.7827C7.56189 26.4682 7.00758 26.3565 6.56876 26.0241C3.48617 23.6891 5.47257 18.7806 9.45803 19.2693C9.84317 19.3165 10.2048 19.6337 10.5266 19.4402L19.4443 10.5225C19.6377 10.2007 19.3206 9.83913 19.2733 9.454C19.0427 7.57283 20.256 5.4035 22.2293 5.13779ZM22.5791 6.80567C21.4684 6.98333 20.7881 8.10108 20.9568 9.17678C21.0462 9.74695 21.1968 9.56959 21.4154 9.85965C21.6083 10.1156 21.5326 10.3367 21.9054 10.5996C23.0777 11.4267 24.8759 10.583 25.054 9.1931C25.2488 7.67349 24.0926 6.56358 22.5791 6.80567ZM40.5907 6.8073C38.132 7.16169 38.5057 11.2094 41.2614 10.9033C43.8611 10.6144 43.6235 6.37015 40.5907 6.8073ZM31.1237 9.68345H26.6432C26.1218 12.0582 23.6062 13.2204 21.3991 12.2481C21.1356 12.132 20.7396 11.7222 20.4958 11.8323L11.8781 20.4418C11.6784 20.7363 12.1112 21.0751 12.2521 21.395C13.2242 23.6026 12.0626 26.1175 9.68749 26.6392V31.1197H14.3437C14.5917 22.2185 22.2195 14.5868 31.1237 14.3397L31.1237 9.68345ZM37.3613 9.68345C37.2056 9.52239 33.4253 9.80639 32.8808 9.68345V14.3397C41.7855 14.5824 49.4097 22.2171 49.6608 31.1197H54.317V26.6392C51.9419 26.1175 50.7803 23.6026 51.7524 21.395C51.8933 21.0751 52.3261 20.7363 52.1264 20.4418L43.5087 11.8323C43.2649 11.7222 42.8689 12.132 42.6054 12.2481C40.4795 13.1846 38.2978 12.1955 37.4298 10.097C37.3712 9.9553 37.3759 9.69852 37.3613 9.68345ZM37.0977 22.6858C36.0489 18.444 32.3703 12.49 28.5928 18.6174C27.8314 19.8526 27.2791 21.2821 26.9068 22.6858H37.0977ZM19 22.6858H25.1497C25.5751 20.9181 26.2735 19.2186 27.1874 17.6513L27.9162 16.5352C24.3389 17.4032 21.0863 19.674 19 22.6858ZM45.0045 22.6858C43.3027 20.2208 40.7111 18.1778 37.9115 17.084C37.3491 16.8643 36.617 16.5728 36.044 16.5795C37.426 18.3702 38.309 20.4969 38.8548 22.6858H45.0045ZM8.43458 20.9502C6.22524 21.2979 6.23788 24.7845 8.51099 25.0477C11.7814 25.4263 11.6018 20.4519 8.43458 20.9502ZM54.8229 20.952C52.2769 21.3192 52.607 25.3826 55.4935 25.0477C58.0508 24.751 57.6924 20.5382 54.8229 20.952ZM24.7104 24.4428H17.9018C16.7394 26.462 16.1331 28.7916 16.0129 31.1197H24.0076C23.9825 28.8762 24.265 26.6356 24.7104 24.4428ZM25.6768 31.1197H38.3277C38.2978 28.8709 38.0499 26.6309 37.575 24.4393L26.3804 24.4436C26.0121 26.6507 25.6724 28.8732 25.6768 31.1197ZM47.9916 31.1197C47.8734 28.7902 47.2531 26.4645 46.1027 24.4428H39.2941C39.7375 26.6361 40.0235 28.8758 39.9969 31.1197H47.9916ZM14.3437 32.8767H9.68749V37.3573C9.68749 37.3782 9.9568 37.3661 10.101 37.4258C12.2033 38.2947 13.1886 40.4756 12.2521 42.6014C12.1361 42.8648 11.7262 43.2608 11.8363 43.5046L20.4458 52.1223C20.7403 52.322 21.0791 51.8892 21.3991 51.7483C23.6225 50.7693 26.1169 51.9417 26.6432 54.313H31.1237V49.6567C22.2211 49.4044 14.5915 41.7818 14.3437 32.8767ZM24.0076 32.8767H16.0129C16.1331 35.2048 16.7394 37.5344 17.9018 39.5536H24.7104C24.267 37.3604 23.9809 35.1207 24.0076 32.8767ZM38.3277 32.8767H25.6768C25.6724 35.1232 26.0121 37.3457 26.3804 39.5529L37.575 39.5571C38.0499 37.3655 38.2978 35.1255 38.3277 32.8767ZM47.9916 32.8767H39.9969C40.0235 35.1207 39.7375 37.3604 39.2941 39.5536H46.1027C47.261 37.5325 47.8592 35.2063 47.9916 32.8767ZM54.317 32.8767H49.6608C49.4095 41.7796 41.7863 49.4075 32.8808 49.6567V54.313H37.3613C37.3823 54.313 37.3701 54.0437 37.4298 53.8994C38.2993 51.7972 40.4729 50.8089 42.6054 51.7483C42.8689 51.8644 43.2649 52.2742 43.5087 52.1641L52.1264 43.5547C52.3261 43.2602 51.8933 42.9213 51.7524 42.6014C50.8133 40.4686 51.801 38.2953 53.9035 37.4258C54.0477 37.3661 54.317 37.3782 54.317 37.3573L54.317 32.8767ZM8.43654 38.9618C5.9889 39.3192 6.32165 43.3666 9.107 43.0575C11.7472 42.7646 11.4226 38.5257 8.43654 38.9618ZM54.7334 38.96C52.3217 39.3427 52.6373 43.3306 55.4057 43.0582C58.0814 42.795 57.7334 38.4839 54.7334 38.96ZM25.1497 41.3107H19C21.0844 44.3218 24.3426 46.5908 27.9162 47.4612L26.8039 45.6744C26.0924 44.2907 25.509 42.8292 25.1497 41.3107ZM37.0977 41.3107H26.9068C27.9696 45.56 31.6146 51.4964 35.4116 45.379C36.1754 44.1485 36.7238 42.7104 37.0977 41.3107ZM45.0045 41.3107H38.8548C38.304 43.494 37.4263 45.6284 36.044 47.4169C36.617 47.4236 37.3491 47.1321 37.9115 46.9124C40.7111 45.8186 43.3028 43.7755 45.0045 41.3107ZM22.6685 53.1062C20.1663 53.4628 20.3959 57.5407 23.3392 57.2021C25.906 56.9067 25.512 52.701 22.6685 53.1062ZM40.5886 53.1042C38.3799 53.4796 38.4035 56.942 40.6653 57.2021C43.992 57.5846 43.696 52.5761 40.5886 53.1042Z" fill="white"/>
</svg>
