<svg xmlns="http://www.w3.org/2000/svg" viewBox="0 0 24 24" width="24" height="24" fill="#ffffff" stroke="#ffffff" stroke-width="0" class="mr-2 h-5 w-5"><path d="M21.35 20.8H2.65c-.91 0-1.65-.74-1.65-1.65V4.85c0-.91.74-1.65 1.65-1.65h18.7c.91 0 1.65.74 1.65 1.65v14.3c0 .91-.74 1.65-1.65 1.65M2.65 4.3a.55.55 0 0 0-.55.55v14.3c0 .304.246.55.55.55h18.7a.55.55 0 0 0 .55-.55V4.85a.55.55 0 0 0-.55-.55zm8.8 3.3h-6.6a.55.55 0 0 1 0-1.1h6.6a.55.55 0 0 1 0 1.1m0 3.3h-6.6a.55.55 0 0 1 0-1.1h6.6a.55.55 0 0 1 0 1.1m0 2.2h-6.6a.55.55 0 1 1 0-1.1h6.6a.55.55 0 1 1 0 1.1m0 2.2h-6.6a.55.55 0 1 1 0-1.1h6.6a.55.55 0 1 1 0 1.1m-1.1 2.2h-5.5a.55.55 0 1 1 0-1.1h5.5a.55.55 0 1 1 0 1.1m10.387-9.302-.894-.65-.342-1.051h-1.106l-.894-.65-.894.65H15.5l-.342 1.051-.894.65.342 1.052-.342 1.052.894.65.145.446q-.002.026-.002.052v5.5a.55.55 0 0 0 .94.39l1.26-1.261 1.26 1.26a.55.55 0 0 0 .94-.39v-5.499q0-.025-.002-.052l.145-.446.895-.65-.343-1.052.343-1.052zm-5.18.42.536-.39.206-.631h.664l.537-.39.537.39h.664l.206.631.537.39-.206.632.206.631-.537.39-.206.632h-.664l-.537.39-.537-.39H16.3l-.206-.631-.537-.39.206-.632zm2.332 6.293a.55.55 0 0 0-.777 0l-.71.71v-3.619h.205l.894.65.894-.65h.206v3.62l-.71-.711z"></path></svg>