<svg width="24" height="24" viewBox="0 0 24 24" fill="none" xmlns="http://www.w3.org/2000/svg">
<path d="M22 12H2" stroke="white" stroke-width="2" stroke-linecap="round" stroke-linejoin="round"/>
<path d="M5.45 4.61L2 11.5V17.5C2 18.0304 2.21071 18.5391 2.58579 18.9142C2.96086 19.2893 3.46957 19.5 4 19.5H20C20.5304 19.5 21.0391 19.2893 21.4142 18.9142C21.7893 18.5391 22 18.0304 22 17.5V11.5L18.55 4.61C18.3844 4.27679 18.1292 3.99637 17.813 3.80028C17.4967 3.60419 17.1321 3.5002 16.76 3.5H7.24C6.86792 3.5002 6.50326 3.60419 6.18704 3.80028C5.87083 3.99637 5.61558 4.27679 5.45 4.61Z" stroke="white" stroke-width="2" stroke-linecap="round" stroke-linejoin="round"/>
<path d="M6 16H6.01" stroke="white" stroke-width="2" stroke-linecap="round" stroke-linejoin="round"/>
<path d="M10 16H10.01" stroke="white" stroke-width="2" stroke-linecap="round" stroke-linejoin="round"/>
</svg>
