<svg width="131" height="36" viewBox="0 0 131 36" fill="none" xmlns="http://www.w3.org/2000/svg">
<path d="M11.0455 0.0340452C12.5001 0.0454092 13.9092 0.340864 15.2728 0.92041C16.6478 1.48859 17.8865 2.40905 18.9887 3.68177C20.091 4.94314 20.966 6.62495 21.6137 8.72723C22.2615 10.8181 22.5853 13.392 22.5853 16.4488C22.5853 19.3011 22.3353 21.9147 21.8353 24.2897C21.3353 26.6647 20.5853 28.7215 19.5853 30.4602C18.5967 32.1875 17.3467 33.5284 15.8353 34.4829C14.3353 35.4261 12.5796 35.8977 10.5683 35.8977C8.69327 35.8977 7.0285 35.5056 5.57395 34.7215C4.13077 33.9375 2.96032 32.8522 2.06259 31.4659C1.16486 30.0681 0.608043 28.4545 0.392134 26.625H3.5285C3.83532 28.4886 4.58532 30.0227 5.7785 31.2272C6.98304 32.4318 8.57963 33.034 10.5683 33.034C13.4205 33.034 15.6365 31.7045 17.216 29.0454C18.7955 26.3863 19.5853 22.6022 19.5853 17.6931H19.3637C18.8183 18.7159 18.1024 19.6079 17.216 20.3693C16.341 21.1306 15.341 21.7272 14.216 22.159C13.091 22.5795 11.9035 22.7897 10.6535 22.7897C8.71032 22.7897 6.93191 22.3011 5.31827 21.3238C3.70463 20.3352 2.41486 18.9886 1.44895 17.284C0.483043 15.5681 8.88109e-05 13.6136 8.88109e-05 11.4204C8.88109e-05 9.35223 0.454634 7.4545 1.36373 5.72723C2.28418 3.98859 3.56827 2.60223 5.216 1.56814C6.87509 0.522681 8.81827 0.0113173 11.0455 0.0340452ZM11.0455 2.89768C9.53418 2.89768 8.17623 3.28405 6.97168 4.05677C5.7785 4.81814 4.82963 5.84655 4.12509 7.142C3.43191 8.42609 3.08532 9.85223 3.08532 11.4204C3.08532 13 3.43191 14.4375 4.12509 15.7329C4.82963 17.017 5.7785 18.0397 6.97168 18.8011C8.17623 19.5511 9.53418 19.9261 11.0455 19.9261C12.2046 19.9261 13.2842 19.6931 14.2842 19.2272C15.2842 18.75 16.1478 18.1022 16.8751 17.284C17.6137 16.4659 18.1705 15.5397 18.5455 14.5056C18.9319 13.4602 19.0853 12.3636 19.0058 11.2159C18.8694 9.62495 18.4433 8.2045 17.7274 6.9545C17.0228 5.69314 16.091 4.7045 14.9319 3.98859C13.7842 3.26132 12.4887 2.89768 11.0455 2.89768ZM40.2955 0.0340452C41.7501 0.0454092 43.1592 0.340864 44.5228 0.92041C45.8978 1.48859 47.1365 2.40905 48.2387 3.68177C49.341 4.94314 50.216 6.62495 50.8637 8.72723C51.5115 10.8181 51.8353 13.392 51.8353 16.4488C51.8353 19.3011 51.5853 21.9147 51.0853 24.2897C50.5853 26.6647 49.8353 28.7215 48.8353 30.4602C47.8467 32.1875 46.5967 33.5284 45.0853 34.4829C43.5853 35.4261 41.8296 35.8977 39.8183 35.8977C37.9433 35.8977 36.2785 35.5056 34.824 34.7215C33.3808 33.9375 32.2103 32.8522 31.3126 31.4659C30.4149 30.0681 29.858 28.4545 29.6421 26.625H32.7785C33.0853 28.4886 33.8353 30.0227 35.0285 31.2272C36.233 32.4318 37.8296 33.034 39.8183 33.034C42.6705 33.034 44.8865 31.7045 46.466 29.0454C48.0455 26.3863 48.8353 22.6022 48.8353 17.6931H48.6137C48.0683 18.7159 47.3524 19.6079 46.466 20.3693C45.591 21.1306 44.591 21.7272 43.466 22.159C42.341 22.5795 41.1535 22.7897 39.9035 22.7897C37.9603 22.7897 36.1819 22.3011 34.5683 21.3238C32.9546 20.3352 31.6649 18.9886 30.699 17.284C29.733 15.5681 29.2501 13.6136 29.2501 11.4204C29.2501 9.35223 29.7046 7.4545 30.6137 5.72723C31.5342 3.98859 32.8183 2.60223 34.466 1.56814C36.1251 0.522681 38.0683 0.0113173 40.2955 0.0340452ZM40.2955 2.89768C38.7842 2.89768 37.4262 3.28405 36.2217 4.05677C35.0285 4.81814 34.0796 5.84655 33.3751 7.142C32.6819 8.42609 32.3353 9.85223 32.3353 11.4204C32.3353 13 32.6819 14.4375 33.3751 15.7329C34.0796 17.017 35.0285 18.0397 36.2217 18.8011C37.4262 19.5511 38.7842 19.9261 40.2955 19.9261C41.4546 19.9261 42.5342 19.6931 43.5342 19.2272C44.5342 18.75 45.3978 18.1022 46.1251 17.284C46.8637 16.4659 47.4205 15.5397 47.7955 14.5056C48.1819 13.4602 48.3353 12.3636 48.2558 11.2159C48.1194 9.62495 47.6933 8.2045 46.9774 6.9545C46.2728 5.69314 45.341 4.7045 44.1819 3.98859C43.0342 3.26132 41.7387 2.89768 40.2955 2.89768ZM60.1322 35.6761C59.4617 35.6761 58.8822 35.4375 58.3936 34.9602C57.9163 34.4715 57.6776 33.892 57.6776 33.2215C57.6776 32.5397 57.9163 31.9602 58.3936 31.4829C58.8822 31.0056 59.4617 30.767 60.1322 30.767C60.814 30.767 61.3936 31.0056 61.8708 31.4829C62.3481 31.9602 62.5867 32.5397 62.5867 33.2215C62.5867 33.6647 62.4731 34.0738 62.2458 34.4488C62.0299 34.8238 61.7345 35.125 61.3595 35.3522C60.9958 35.5681 60.5867 35.6761 60.1322 35.6761ZM80.7487 0.0340452C82.2032 0.0454092 83.6123 0.340864 84.9759 0.92041C86.3509 1.48859 87.5896 2.40905 88.6919 3.68177C89.7941 4.94314 90.6691 6.62495 91.3169 8.72723C91.9646 10.8181 92.2884 13.392 92.2884 16.4488C92.2884 19.3011 92.0384 21.9147 91.5384 24.2897C91.0384 26.6647 90.2884 28.7215 89.2884 30.4602C88.2998 32.1875 87.0498 33.5284 85.5384 34.4829C84.0384 35.4261 82.2828 35.8977 80.2714 35.8977C78.3964 35.8977 76.7316 35.5056 75.2771 34.7215C73.8339 33.9375 72.6634 32.8522 71.7657 31.4659C70.868 30.0681 70.3112 28.4545 70.0953 26.625H73.2316C73.5384 28.4886 74.2884 30.0227 75.4816 31.2272C76.6862 32.4318 78.2828 33.034 80.2714 33.034C83.1237 33.034 85.3396 31.7045 86.9191 29.0454C88.4987 26.3863 89.2884 22.6022 89.2884 17.6931H89.0669C88.5214 18.7159 87.8055 19.6079 86.9191 20.3693C86.0441 21.1306 85.0441 21.7272 83.9191 22.159C82.7941 22.5795 81.6066 22.7897 80.3566 22.7897C78.4134 22.7897 76.635 22.3011 75.0214 21.3238C73.4078 20.3352 72.118 18.9886 71.1521 17.284C70.1862 15.5681 69.7032 13.6136 69.7032 11.4204C69.7032 9.35223 70.1578 7.4545 71.0669 5.72723C71.9873 3.98859 73.2714 2.60223 74.9191 1.56814C76.5782 0.522681 78.5214 0.0113173 80.7487 0.0340452ZM80.7487 2.89768C79.2373 2.89768 77.8794 3.28405 76.6748 4.05677C75.4816 4.81814 74.5328 5.84655 73.8282 7.142C73.135 8.42609 72.7884 9.85223 72.7884 11.4204C72.7884 13 73.135 14.4375 73.8282 15.7329C74.5328 17.017 75.4816 18.0397 76.6748 18.8011C77.8794 19.5511 79.2373 19.9261 80.7487 19.9261C81.9078 19.9261 82.9873 19.6931 83.9873 19.2272C84.9873 18.75 85.8509 18.1022 86.5782 17.284C87.3169 16.4659 87.8737 15.5397 88.2487 14.5056C88.635 13.4602 88.7884 12.3636 88.7089 11.2159C88.5725 9.62495 88.1464 8.2045 87.4305 6.9545C86.7259 5.69314 85.7941 4.7045 84.635 3.98859C83.4873 3.26132 82.1919 2.89768 80.7487 2.89768ZM117.158 28.9431V27.3579C117.158 26.0511 117.419 24.875 117.942 23.8295C118.465 22.7727 119.209 21.9375 120.175 21.3238C121.141 20.7102 122.288 20.4034 123.618 20.4034C124.959 20.4034 126.107 20.7102 127.061 21.3238C128.016 21.9375 128.749 22.7727 129.26 23.8295C129.771 24.875 130.027 26.0511 130.027 27.3579V28.9431C130.027 30.25 129.766 31.4261 129.243 32.4715C128.732 33.517 127.999 34.3522 127.044 34.9772C126.09 35.5909 124.948 35.8977 123.618 35.8977C122.266 35.8977 121.107 35.5909 120.141 34.9772C119.186 34.3522 118.448 33.517 117.925 32.4715C117.413 31.4261 117.158 30.25 117.158 28.9431ZM119.834 27.3579V28.9431C119.834 30.2272 120.146 31.3238 120.771 32.2329C121.408 33.1306 122.357 33.5795 123.618 33.5795C124.845 33.5795 125.771 33.1306 126.396 32.2329C127.021 31.3238 127.334 30.2272 127.334 28.9431V27.3579C127.334 26.0738 127.027 24.9829 126.413 24.0852C125.8 23.1761 124.868 22.7215 123.618 22.7215C122.379 22.7215 121.436 23.1761 120.788 24.0852C120.152 24.9829 119.834 26.0738 119.834 27.3579ZM99.5669 8.57382V6.98859C99.5669 5.68177 99.8282 4.50564 100.351 3.46018C100.874 2.41473 101.618 1.58518 102.584 0.971545C103.55 0.346545 104.698 0.0340452 106.027 0.0340452C107.368 0.0340452 108.516 0.346545 109.47 0.971545C110.425 1.58518 111.158 2.41473 111.669 3.46018C112.18 4.50564 112.436 5.68177 112.436 6.98859V8.57382C112.436 9.88064 112.175 11.0625 111.652 12.1193C111.141 13.1647 110.408 13.9943 109.453 14.6079C108.499 15.2215 107.357 15.5284 106.027 15.5284C104.675 15.5284 103.516 15.2215 102.55 14.6079C101.595 13.9943 100.857 13.1647 100.334 12.1193C99.8225 11.0625 99.5669 9.88064 99.5669 8.57382ZM102.243 6.98859V8.57382C102.243 9.85791 102.555 10.9545 103.18 11.8636C103.817 12.7613 104.766 13.2102 106.027 13.2102C107.254 13.2102 108.18 12.7613 108.805 11.8636C109.43 10.9545 109.743 9.85791 109.743 8.57382V6.98859C109.743 5.7045 109.436 4.61359 108.823 3.71586C108.209 2.80677 107.277 2.35223 106.027 2.35223C104.788 2.35223 103.845 2.80677 103.198 3.71586C102.561 4.61359 102.243 5.7045 102.243 6.98859ZM101.135 35.4204L125.118 0.511318H128.135L104.152 35.4204H101.135Z" fill="white"/>
</svg>
