<svg width="64" height="64" viewBox="0 0 64 64" fill="none" xmlns="http://www.w3.org/2000/svg">
<path d="M52.5013 10.4319C51.742 10.2689 51.7708 9.08579 52.5273 8.81676L56.9146 8.53303C57.7661 8.58668 58.7467 8.23933 58.8789 9.35646C59.0791 11.0494 58.6206 12.9382 58.7423 14.653C58.6842 15.2238 58.1023 15.4844 57.5789 15.3305C56.671 15.0634 57.262 12.5098 57.2406 11.7608C57.2351 11.57 57.3239 11.3897 57.0477 11.4429L44.8725 22.2529C49.2718 27.3816 49.0374 34.9504 44.4941 39.892C46.4357 41.9931 48.3636 44.1404 50.0896 46.4239C50.8184 47.3881 52.2749 49.111 52.4275 50.2719C53.0411 54.9399 47.5199 57.4001 44.6328 53.6481C43.7848 52.5461 43.039 50.6979 42.4428 49.3997C41.4875 47.3193 40.653 45.1853 39.8188 43.0536C39.7123 42.9785 37.6444 43.6418 37.2956 43.703C26.8691 45.5303 19.0081 34.8329 23.2744 25.3343C22.6656 25.2383 21.7663 24.4464 21.1898 24.4569C20.8745 24.4627 19.7785 25.2638 18.9025 25.3163C18.3621 25.3487 17.5578 24.9762 17.2736 25.1909L11.8817 32.0548C11.6743 32.5373 12.3203 33.0926 12.4086 33.7345C12.9475 37.6507 8.2558 39.7701 5.85813 36.7501C3.83535 34.2023 5.9844 30.3652 9.16817 30.7902C9.56759 30.8435 10.1789 31.2183 10.467 31.0225L15.7679 24.3124C15.9134 23.9775 15.0721 22.9035 14.9744 22.3316C14.4054 19.0003 18.0781 16.545 20.8115 18.6407C22.3343 19.8082 22.4492 21.2421 22.1516 23.0455C22.6829 23.0091 23.5741 23.8239 23.9766 23.8147C24.2502 23.8084 24.7386 22.8304 24.979 22.5495C29.8259 16.8871 37.7883 16.2731 43.5145 21.0198L55.468 10.4319C54.6142 10.3072 53.2884 10.6008 52.5013 10.4319ZM18.4497 19.5458C15.8597 19.9087 16.1969 24.0217 19.1658 23.5523C20.0274 23.416 20.7816 22.3403 20.744 21.4959C20.6967 20.4381 19.5012 19.3985 18.4497 19.5458ZM34.1079 19.5591C25.0055 20.3174 20.3711 31.0796 26.3099 38.1381C31.542 44.3568 41.604 43.2668 45.185 35.9384C49.0123 28.1057 42.7706 18.8373 34.1079 19.5591ZM8.60561 32.4243C5.92445 32.6348 6.23991 36.8957 9.19273 36.4289C11.4355 36.0744 11.1836 32.222 8.60561 32.4243ZM43.064 41.1264C42.8648 41.1752 41.3364 42.2565 41.331 42.4257C41.3195 42.7916 42.3102 45.1172 42.53 45.6515C43.2999 47.5234 44.6822 50.9197 45.7682 52.5127C47.6254 55.237 51.8415 53.1508 50.4815 49.9456C50.2638 49.4327 49.456 48.4413 49.082 47.9364C47.3601 45.6121 45.3565 43.4889 43.4822 41.291C43.3648 41.1566 43.2523 41.0803 43.064 41.1264Z" fill="white"/>
<path d="M34.2466 37.9643C34.2063 37.9175 33.385 37.7236 33.0821 37.5512C32.6385 37.2987 31.9951 36.6762 31.7543 36.2278C31.3972 35.5629 30.7447 33.5493 31.8258 33.3066C33.0439 33.0331 32.8174 34.2455 33.0881 35.0203C34.0304 37.7181 38.1243 36.3322 37.1274 33.2535C36.5598 31.5008 35.1289 31.9748 33.813 31.5181C31.054 30.5604 30.3854 26.7259 32.5012 24.7688C32.8755 24.4225 34.1466 23.899 34.2014 23.818C34.4784 23.4092 33.8343 21.9091 35.0804 21.9126C36.392 21.9163 35.6605 23.4063 35.9559 23.8206C35.9977 23.8793 36.9865 24.1845 37.2812 24.3889C38.2942 25.0916 39.2896 26.8729 38.8747 28.1128C38.7185 28.5796 38.1627 28.6791 37.7503 28.4676C37.0706 28.1191 37.3797 26.7948 36.6569 26.0231C34.7667 24.0051 31.674 26.8658 33.3767 29.177C34.3194 30.4565 35.7728 29.8501 37.0772 30.6525C39.5038 32.1453 39.5651 35.6782 37.278 37.3726C36.9918 37.5847 36.0117 37.9924 35.9614 38.0758C35.7096 38.4924 36.2847 40.1547 34.9802 39.9493C33.846 39.7706 34.4295 38.1764 34.2466 37.9643Z" fill="white"/>
</svg>
