<svg width="54" height="32" viewBox="0 0 54 32" fill="none" xmlns="http://www.w3.org/2000/svg">
<path d="M36.5964 4.49699L32.2697 6.96275L34.302 10.8256L51.6446 1.00697C52.3999 0.603364 53.3218 1.09402 53.3467 1.95269V30.8693C53.3273 31.6755 52.6152 31.9983 51.8893 31.9947H1.47627C0.242374 32.0947 -0.583918 30.7689 0.510146 29.9378L19.0181 19.4503C18.1085 18.2934 17.4535 16.9577 16.7665 15.6612L12.3533 18.0783C12.3285 18.1909 12.4388 18.1695 12.5188 18.2014C13.2318 18.4855 14.2222 18.4347 14.2752 19.45C14.3202 20.3106 13.7487 20.7434 12.9157 20.6383C12.1541 20.5422 9.90211 19.8707 9.14097 19.581C8.33325 19.2736 8.23611 18.7725 8.39466 17.9927C8.52971 17.3284 9.24517 14.5798 9.53359 14.1335C10.1891 13.1191 11.6496 13.6895 11.5981 14.7747C11.5862 15.0257 11.1704 16.0305 11.2704 16.161L15.5663 13.7445C15.6345 13.611 15.4642 13.3828 15.3949 13.2434C14.2585 10.9573 12.2208 8.90302 14.8593 6.54544L25.179 0.702018C28.4677 -0.604521 29.7452 2.37619 30.9766 4.74323L31.221 4.91198L35.5139 2.57974C35.6177 2.44149 34.3364 2.1575 34.2081 2.09552C33.0614 1.5416 33.5475 -0.196375 34.9529 0.0182521C35.7462 0.139399 38.0377 0.790946 38.7876 1.09861C39.276 1.29903 39.4913 1.59817 39.5824 2.1201C39.2582 3.2934 39.0015 4.50206 38.6383 5.66323C38.3643 6.53887 37.9469 7.48775 36.8429 6.87556C35.6458 6.21174 36.7891 4.7502 36.5964 4.49699ZM26.2432 2.68313L16.4072 8.17661C15.8049 8.59793 15.7072 9.07728 15.9571 9.76552L20.2824 17.4376C20.6891 17.9817 21.0628 18.1336 21.7441 17.9293C24.7993 15.9692 28.357 14.4529 31.3736 12.4787C32.4015 11.806 32.1194 11.3453 31.6418 10.4105C30.4062 7.99201 28.8225 5.65154 27.5844 3.22042C27.2101 2.7205 26.892 2.54895 26.2432 2.68313ZM51.094 29.7414V3.91378L28.7713 16.5009L32.1828 22.8259C32.3597 22.8526 32.317 22.8333 32.3678 22.721C32.5192 22.3869 32.5307 21.917 32.7023 21.5558C33.2189 20.4688 34.8377 20.896 34.8326 22.0351C34.8306 22.4912 33.9257 25.6068 33.7052 26.1411C33.4227 26.8255 33.0573 26.9708 32.3436 26.8708C31.5531 26.76 29.31 26.1288 28.5536 25.8293C27.3089 25.3364 27.6318 23.6298 28.8902 23.653C29.3729 23.6619 29.8667 23.9782 30.3481 23.9515L26.7255 17.6769L5.43752 29.7413L51.094 29.7414Z" fill="white"/>
</svg>
