<svg width="48" height="48" viewBox="0 0 48 48" fill="none" xmlns="http://www.w3.org/2000/svg">
<path d="M30.7802 8.78018C31.0316 9.03184 31.3456 9.21189 31.6898 9.30177C32.034 9.39166 32.3959 9.38812 32.7382 9.29153C33.0806 9.19494 33.391 9.00878 33.6374 8.75226C33.8839 8.49574 34.0574 8.17813 34.1402 7.83218C34.3478 6.96797 34.782 6.17473 35.3981 5.53413C36.0143 4.89353 36.79 4.42874 37.6454 4.18762C38.5009 3.9465 39.4052 3.93777 40.2651 4.16232C41.1251 4.38687 41.9096 4.83659 42.538 5.46516C43.1664 6.09374 43.6158 6.87845 43.8401 7.73848C44.0644 8.59851 44.0553 9.50278 43.8139 10.3582C43.5725 11.2135 43.1075 11.9891 42.4667 12.605C41.8259 13.2209 41.0325 13.6549 40.1682 13.8622C39.8223 13.945 39.5047 14.1185 39.2481 14.365C38.9916 14.6114 38.8055 14.9218 38.7089 15.2642C38.6123 15.6065 38.6087 15.9684 38.6986 16.3126C38.7885 16.6568 38.9686 16.9708 39.2202 17.2222L42.5862 20.5862C43.0346 21.0345 43.3902 21.5667 43.6329 22.1525C43.8755 22.7383 44.0004 23.3661 44.0004 24.0002C44.0004 24.6342 43.8755 25.2621 43.6329 25.8478C43.3902 26.4336 43.0346 26.9659 42.5862 27.4142L39.2202 30.7802C38.9688 31.0318 38.6548 31.2119 38.3107 31.3018C37.9665 31.3917 37.6046 31.3881 37.2622 31.2915C36.9198 31.1949 36.6095 31.0088 36.363 30.7523C36.1166 30.4957 35.943 30.1781 35.8602 29.8322C35.6526 28.968 35.2184 28.1747 34.6023 27.5341C33.9862 26.8935 33.2104 26.4287 32.355 26.1876C31.4995 25.9465 30.5953 25.9378 29.7353 26.1623C28.8753 26.3869 28.0908 26.8366 27.4624 27.4652C26.834 28.0937 26.3846 28.8784 26.1603 29.7385C25.9361 30.5985 25.9451 31.5028 26.1865 32.3582C26.4279 33.2135 26.893 33.9891 27.5338 34.605C28.1746 35.2209 28.9679 35.6549 29.8322 35.8622C30.1782 35.945 30.4958 36.1185 30.7523 36.365C31.0088 36.6114 31.195 36.9218 31.2916 37.2642C31.3882 37.6065 31.3917 37.9684 31.3018 38.3126C31.2119 38.6568 31.0319 38.9708 30.7802 39.2222L27.4142 42.5862C26.9659 43.0345 26.4336 43.3902 25.8479 43.6328C25.2621 43.8755 24.6343 44.0004 24.0002 44.0004C23.3662 44.0004 22.7383 43.8755 22.1526 43.6328C21.5668 43.3902 21.0345 43.0345 20.5862 42.5862L17.2202 39.2202C16.9688 38.9685 16.6548 38.7885 16.3107 38.6986C15.9665 38.6087 15.6046 38.6122 15.2622 38.7088C14.9199 38.8054 14.6095 38.9916 14.363 39.2481C14.1166 39.5046 13.943 39.8222 13.8602 40.1682C13.6526 41.0324 13.2184 41.8256 12.6023 42.4662C11.9862 43.1068 11.2104 43.5716 10.355 43.8127C9.49953 44.0538 8.59526 44.0626 7.7353 43.838C6.87534 43.6135 6.09078 43.1638 5.46241 42.5352C4.83405 41.9066 4.38459 41.1219 4.16032 40.2619C3.93606 39.4018 3.94509 38.4976 4.1865 37.6422C4.4279 36.7868 4.89295 36.0112 5.53375 35.3953C6.17455 34.7795 6.96794 34.3455 7.83222 34.1382C8.17817 34.0554 8.49577 33.8818 8.7523 33.6354C9.00882 33.3889 9.19498 33.0785 9.29157 32.7362C9.38816 32.3938 9.3917 32.0319 9.30181 31.6877C9.21193 31.3436 9.03187 31.0296 8.78021 30.7782L5.41422 27.4142C4.96587 26.9659 4.61022 26.4336 4.36757 25.8478C4.12493 25.2621 4.00004 24.6342 4.00004 24.0002C4.00004 23.3661 4.12493 22.7383 4.36757 22.1525C4.61022 21.5667 4.96587 21.0345 5.41422 20.5862L8.78021 17.2202C9.03162 16.9685 9.3456 16.7885 9.68977 16.6986C10.0339 16.6087 10.3959 16.6122 10.7382 16.7088C11.0806 16.8054 11.391 16.9916 11.6374 17.2481C11.8839 17.5046 12.0574 17.8222 12.1402 18.1682C12.3478 19.0324 12.782 19.8256 13.3981 20.4662C14.0143 21.1068 14.79 21.5716 15.6454 21.8127C16.5009 22.0539 17.4052 22.0626 18.2651 21.838C19.1251 21.6135 19.9096 21.1638 20.538 20.5352C21.1664 19.9066 21.6158 19.1219 21.8401 18.2619C22.0644 17.4018 22.0553 16.4976 21.8139 15.6422C21.5725 14.7868 21.1075 14.0112 20.4667 13.3953C19.8259 12.7795 19.0325 12.3455 18.1682 12.1382C17.8223 12.0554 17.5047 11.8818 17.2481 11.6354C16.9916 11.3889 16.8055 11.0785 16.7089 10.7362C16.6123 10.3938 16.6087 10.0319 16.6986 9.68773C16.7885 9.34356 16.9686 9.02958 17.2202 8.77818L20.5862 5.41418C21.0345 4.96583 21.5668 4.61018 22.1526 4.36753C22.7383 4.12489 23.3662 4 24.0002 4C24.6343 4 25.2621 4.12489 25.8479 4.36753C26.4336 4.61018 26.9659 4.96583 27.4142 5.41418L30.7802 8.78018Z" stroke="black" stroke-width="4" stroke-linecap="round" stroke-linejoin="round"/>
</svg>
