<svg width="68" height="68" viewBox="0 0 68 68" fill="none" xmlns="http://www.w3.org/2000/svg">
<rect width="68" height="68" rx="6" fill="#FF4172" fill-opacity="0.1"/>
<path d="M42 36L52.446 42.964C52.5966 43.0643 52.7715 43.1217 52.9522 43.1304C53.1329 43.139 53.3125 43.0985 53.472 43.0131C53.6315 42.9277 53.7648 42.8007 53.8578 42.6456C53.9508 42.4904 53.9999 42.3129 54 42.132V25.74C54.0001 25.5641 53.9537 25.3912 53.8656 25.2389C53.7774 25.0866 53.6507 24.9603 53.4981 24.8726C53.3456 24.785 53.1726 24.7392 52.9966 24.7398C52.8207 24.7403 52.648 24.7874 52.496 24.876L42 31" stroke="#FF4172" stroke-width="4" stroke-linecap="round" stroke-linejoin="round"/>
<path d="M38 22H18C15.7909 22 14 23.7909 14 26V42C14 44.2091 15.7909 46 18 46H38C40.2091 46 42 44.2091 42 42V26C42 23.7909 40.2091 22 38 22Z" stroke="#FF4172" stroke-width="4" stroke-linecap="round" stroke-linejoin="round"/>
</svg>
