<svg width="19" height="19" viewBox="0 0 19 19" fill="none" xmlns="http://www.w3.org/2000/svg">
<path d="M18.75 9.375C18.75 10.2409 18.6361 11.0742 18.4082 11.875C18.1868 12.6693 17.8711 13.4147 17.4609 14.1113C17.0573 14.8014 16.569 15.4329 15.9961 16.0059C15.4297 16.5723 14.7982 17.0605 14.1016 17.4707C13.4115 17.8743 12.666 18.1901 11.8652 18.418C11.0645 18.6393 10.2344 18.75 9.375 18.75C8.50911 18.75 7.67578 18.6393 6.875 18.418C6.07422 18.1966 5.32552 17.8841 4.62891 17.4805C3.9388 17.0703 3.30729 16.582 2.73438 16.0156C2.16797 15.4427 1.67969 14.8112 1.26953 14.1211C0.865885 13.4245 0.553385 12.6758 0.332031 11.875C0.110677 11.0742 0 10.2409 0 9.375C0 8.50911 0.110677 7.67904 0.332031 6.88477C0.553385 6.08398 0.865885 5.33529 1.26953 4.63867C1.67969 3.94206 2.16797 3.31055 2.73438 2.74414C3.30729 2.17122 3.94206 1.68294 4.63867 1.2793C5.33529 0.869141 6.08073 0.553385 6.875 0.332031C7.67578 0.110677 8.50911 0 9.375 0C10.2344 0 11.0612 0.113932 11.8555 0.341797C12.6562 0.563151 13.4049 0.878906 14.1016 1.28906C14.7982 1.69271 15.4297 2.18099 15.9961 2.75391C16.569 3.32031 17.0573 3.95182 17.4609 4.64844C17.8711 5.34505 18.1868 6.09375 18.4082 6.89453C18.6361 7.6888 18.75 8.51562 18.75 9.375ZM1.25 9.375C1.25 10.3516 1.41602 11.2923 1.74805 12.1973C2.08659 13.1022 2.57161 13.9258 3.20312 14.668L14.668 3.20312C13.9258 2.57161 13.1022 2.08984 12.1973 1.75781C11.2923 1.41927 10.3516 1.25 9.375 1.25C8.6263 1.25 7.90365 1.34766 7.20703 1.54297C6.51693 1.73177 5.86914 2.00521 5.26367 2.36328C4.66471 2.71484 4.11784 3.13802 3.62305 3.63281C3.13477 4.12109 2.71159 4.66797 2.35352 5.27344C2.00195 5.8724 1.72852 6.52018 1.5332 7.2168C1.3444 7.9069 1.25 8.6263 1.25 9.375ZM17.5 9.375C17.5 8.39844 17.3307 7.45768 16.9922 6.55273C16.6602 5.64779 16.1784 4.82422 15.5469 4.08203L4.08203 15.5469C4.82422 16.1784 5.64779 16.6634 6.55273 17.002C7.45768 17.334 8.39844 17.5 9.375 17.5C10.1237 17.5 10.8431 17.4056 11.5332 17.2168C12.2298 17.0215 12.8776 16.748 13.4766 16.3965C14.082 16.0449 14.6322 15.6217 15.127 15.127C15.6217 14.6322 16.0449 14.0853 16.3965 13.4863C16.748 12.8809 17.0182 12.2331 17.207 11.543C17.4023 10.8464 17.5 10.1237 17.5 9.375Z" fill="#FF4D7A"/>
</svg>
