<svg width="42" height="32" viewBox="0 0 42 32" fill="none" xmlns="http://www.w3.org/2000/svg">
<path d="M15.8992 2.29527C18.136 1.01735 20.8188 0.195022 23.2599 0.0391859C28.813 -0.31786 34.0218 1.7783 37.5461 5.78466C41.0138 9.72631 42.2445 14.8786 40.9223 19.9207C39.7002 24.5817 36.344 28.4311 31.7142 30.4822C27.0659 32.5416 21.7771 32.5036 17.2044 30.3785C16.1462 29.8868 13.4065 28.2767 13.1257 27.5217C12.8995 26.9125 13.174 26.4298 13.5064 26.1809C13.7029 26.0337 13.9769 25.9243 14.2892 25.9243C14.5342 25.9243 14.8028 25.9916 15.0766 26.1612C15.5001 26.4234 15.8758 26.6909 16.2393 26.9493C16.9352 27.4444 17.5926 27.9119 18.5308 28.3258C23.5555 30.5429 29.1409 29.9147 33.4719 26.647C37.7448 23.4231 39.7092 18.2634 38.5985 13.1822C37.6513 8.84819 34.4981 5.22045 30.1632 3.47799C25.7663 1.71098 20.9535 2.08253 16.9579 4.49669C16.7463 4.62463 16.428 4.86043 16.0909 5.11036C15.5903 5.48154 14.9047 5.98959 14.6601 6.05058C14.189 6.16811 13.7129 6.03608 13.3858 5.69763C13.0622 5.36327 12.965 4.90543 13.1257 4.47289C13.3189 3.95331 14.8638 2.88663 15.8992 2.29527ZM22.7849 15.9378L29.3499 22.1768C29.9407 22.5692 30.5638 22.349 30.9092 22.0347C31.2547 21.7212 31.514 21.1414 31.118 20.5337L25.1195 14.7781L25.085 7.7235C25.0203 7.37166 24.8383 7.0704 24.5612 6.88332C24.279 6.69215 23.9104 6.62632 23.4949 6.69476C23.087 6.76096 22.6109 7.25934 22.5853 7.64688C22.6698 8.83034 22.6193 10.1194 22.5706 11.3661C22.5176 12.7166 22.4629 14.1131 22.5822 15.3933C22.6064 15.6525 22.6688 15.8203 22.7849 15.9378ZM15.0936 14.806L2.91233 14.8165C2.17827 15.0192 1.92427 15.5622 1.93229 16.0062C1.94011 16.4406 2.21719 17.0078 2.97079 17.1886L15.0529 17.1949C15.8167 17.0499 16.1161 16.4797 16.1286 16.0364C16.1413 15.5904 15.8773 15.0035 15.0936 14.806ZM18.0578 22.3572C17.9981 21.8253 17.5625 21.2782 16.7234 21.2544L5.08633 21.273C4.27621 21.3478 3.9391 21.8982 3.89667 22.3479C3.84974 22.847 4.13288 23.438 4.86967 23.6441L17.064 23.6418C17.8804 23.4399 18.1102 22.8255 18.0578 22.3572ZM14.1812 9.66828C14.2559 9.10036 13.8674 8.58599 13.1893 8.35056L0.941294 8.36283C0.170676 8.56962 -0.0442218 9.17363 0.00720623 9.63147C0.0658682 10.1536 0.482367 10.6967 1.28036 10.7331C1.93268 10.6963 2.60416 10.6825 3.28404 10.6825C4.41582 10.6825 5.57087 10.7212 6.70245 10.7591C8.73371 10.8276 10.8348 10.8982 12.7724 10.7409C13.7182 10.6639 14.1224 10.115 14.1812 9.66828Z" fill="white"/>
</svg>
