<svg width="48" height="48" viewBox="0 0 48 48" fill="none" xmlns="http://www.w3.org/2000/svg">
<path d="M36 9H12C10.3431 9 9 10.3431 9 12V18C9 19.6569 10.3431 21 12 21H36C37.6569 21 39 19.6569 39 18V12C39 10.3431 37.6569 9 36 9Z" stroke="#FF4D7A" stroke-width="3" stroke-linecap="round" stroke-linejoin="round"/>
<path d="M36 27H12C10.3431 27 9 28.3431 9 30V36C9 37.6569 10.3431 39 12 39H36C37.6569 39 39 37.6569 39 36V30C39 28.3431 37.6569 27 36 27Z" stroke="#FF4D7A" stroke-width="3" stroke-linecap="round" stroke-linejoin="round"/>
<path d="M15 15H15.015" stroke="#FF4D7A" stroke-width="3" stroke-linecap="round" stroke-linejoin="round"/>
<path d="M15 33H15.015" stroke="#FF4D7A" stroke-width="3" stroke-linecap="round" stroke-linejoin="round"/>
</svg>
