<svg data-bbox="2 2 20 20" aria-hidden="true" class="lucide lucide-server w-5 h-5" stroke-linejoin="round" stroke-linecap="round" stroke-width="2" stroke="#ffffff" viewBox="0 0 24 24" height="24px" width="24px" xmlns="http://www.w3.org/2000/svg" data-type="ugc" data-originalstrokecolor="#9b1fe8" transform="rotate(0) scale(1, 1)">
    <g>
        <path d="M22 4v4a2 2 0 0 1-2 2H4a2 2 0 0 1-2-2V4a2 2 0 0 1 2-2h16a2 2 0 0 1 2 2" fill="none"/>
        <path d="M22 16v4a2 2 0 0 1-2 2H4a2 2 0 0 1-2-2v-4a2 2 0 0 1 2-2h16a2 2 0 0 1 2 2" fill="none"/>
        <path d="M6 6h.01" fill="none"/>
        <path d="M6 18h.01" fill="none"/>
    </g>
</svg>