<svg width="18" height="20" viewBox="0 0 18 20" fill="none" xmlns="http://www.w3.org/2000/svg">
<path d="M0 9.375V3.75C0 3.56771 0.0488281 3.43099 0.146484 3.33984C0.250651 3.2487 0.380859 3.18034 0.537109 3.13477C0.680339 3.0957 0.830078 3.06966 0.986328 3.05664C1.14258 3.03711 1.29232 3.01107 1.43555 2.97852C1.68294 2.93294 1.92708 2.88411 2.16797 2.83203C2.41536 2.77344 2.66276 2.70833 2.91016 2.63672C3.41797 2.49349 3.90625 2.33398 4.375 2.1582C4.84375 1.98242 5.29948 1.79036 5.74219 1.58203C6.19141 1.3737 6.63411 1.14583 7.07031 0.898438C7.50651 0.651042 7.94922 0.38737 8.39844 0.107422C8.45703 0.0748698 8.51237 0.0488281 8.56445 0.0292969C8.61654 0.00976562 8.67839 0 8.75 0C8.82161 0 8.88346 0.00976562 8.93555 0.0292969C8.98763 0.0488281 9.04297 0.0748698 9.10156 0.107422C9.55078 0.38737 9.99349 0.651042 10.4297 0.898438C10.8659 1.14583 11.3053 1.3737 11.748 1.58203C12.1973 1.79036 12.6562 1.98242 13.125 2.1582C13.5938 2.33398 14.082 2.49349 14.5898 2.63672C14.8372 2.70833 15.0814 2.77344 15.3223 2.83203C15.5697 2.88411 15.8171 2.93294 16.0645 2.97852C16.2077 3.01107 16.3574 3.03711 16.5137 3.05664C16.6699 3.06966 16.8197 3.0957 16.9629 3.13477C17.1191 3.18034 17.2461 3.2487 17.3438 3.33984C17.4479 3.43099 17.5 3.56771 17.5 3.75V9.375C17.5 10.7487 17.2819 11.9889 16.8457 13.0957C16.4095 14.196 15.8073 15.179 15.0391 16.0449C14.2773 16.9043 13.3757 17.6562 12.334 18.3008C11.2988 18.9453 10.179 19.4987 8.97461 19.9609C8.91602 19.987 8.84115 20 8.75 20C8.71745 20 8.67839 19.9967 8.63281 19.9902C8.59375 19.9837 8.55794 19.974 8.52539 19.9609C7.32096 19.5052 6.19792 18.9551 5.15625 18.3105C4.12109 17.6595 3.2194 16.901 2.45117 16.0352C1.68945 15.1628 1.09049 14.1764 0.654297 13.0762C0.218099 11.9759 0 10.7422 0 9.375ZM16.25 9.375V4.28711C14.9154 4.05924 13.6165 3.70117 12.3535 3.21289C11.0905 2.72461 9.88932 2.10938 8.75 1.36719C7.61068 2.10938 6.40951 2.72461 5.14648 3.21289C3.88346 3.70117 2.58464 4.05924 1.25 4.28711V9.375C1.25 10.5924 1.44206 11.6862 1.82617 12.6562C2.21029 13.6198 2.73763 14.4792 3.4082 15.2344C4.08529 15.9896 4.87956 16.6536 5.79102 17.2266C6.70247 17.793 7.6888 18.2845 8.75 18.7012C9.8112 18.2845 10.7975 17.793 11.709 17.2266C12.6204 16.6536 13.4115 15.9896 14.082 15.2344C14.7591 14.4792 15.2897 13.6198 15.6738 12.6562C16.0579 11.6862 16.25 10.5924 16.25 9.375Z" fill="#FF4D7A"/>
</svg>
