<svg width="64" height="64" viewBox="0 0 64 64" fill="none" xmlns="http://www.w3.org/2000/svg">
<path d="M17.3171 7.67725C16.3858 7.79536 15.6727 8.16431 15.1736 8.72412C14.674 9.28458 14.3795 10.0475 14.3054 10.9692V53.0317C14.3871 54.046 14.7213 54.8342 15.2761 55.3892C15.8331 55.946 16.6257 56.2806 17.6443 56.3608H46.3552C47.3587 56.2817 48.1522 55.9408 48.7136 55.3794C49.2731 54.8199 49.6135 54.0303 49.6941 53.0317V10.9692C49.6125 9.95455 49.2785 9.16589 48.7234 8.61084C48.1677 8.05538 47.3781 7.72144 46.363 7.64014L17.3171 7.67725ZM52.1257 53.4048C51.8934 56.3669 49.6995 58.5593 46.739 58.7915L46.7292 58.7925V58.7915H17.2595C15.8662 58.6646 14.5306 58.1308 13.533 57.1333C12.5354 56.1357 12.0018 54.8 11.8748 53.4067L11.8728 53.395H11.8738V10.5952L11.9021 10.3208C12.2446 7.50306 14.3968 5.43319 17.2605 5.2085H46.739L47.0154 5.23682C49.8521 5.5795 51.8994 7.71069 52.1257 10.5952L52.1267 10.605H52.1257V53.4048Z" fill="white" stroke="white" stroke-width="0.25"/>
<path d="M23.96 34.0908C25.0622 33.9581 26.322 33.9267 27.4004 34.251C28.4856 34.5773 29.3927 35.2671 29.7598 36.5693C29.8489 36.8858 29.912 37.4584 29.9561 38.1484C30.0004 38.843 30.0255 39.6687 30.0342 40.498C30.0515 42.1535 30.0038 43.8371 29.9111 44.5283C29.8025 45.3378 29.5286 45.9588 29.1318 46.4277C28.7354 46.8961 28.2221 47.206 27.6465 47.4043C26.5003 47.7989 25.0896 47.7571 23.8037 47.6416C22.4671 47.5215 21.2359 46.4231 20.8867 45.1465C20.7941 44.8079 20.7326 44.2685 20.6924 43.6357C20.652 43 20.6327 42.26 20.6279 41.5146C20.6185 40.0242 20.6674 38.5052 20.7207 37.7422C20.7899 36.7507 21.0747 35.8989 21.6104 35.2627C22.1476 34.6248 22.9272 34.2152 23.96 34.0908ZM25.2715 36.5615C24.9695 36.5624 24.6691 36.5692 24.418 36.5811C24.1635 36.5931 23.9692 36.6104 23.873 36.6318C23.5348 36.7074 23.283 37.0423 23.2754 37.3926L23.3311 44.5791C23.3935 44.7063 23.4882 44.8404 23.6025 44.9512C23.7241 45.069 23.8606 45.1537 23.9941 45.1836C24.0786 45.2024 24.2697 45.2184 24.5264 45.2285C24.7791 45.2385 25.0846 45.2423 25.3896 45.2402C25.6949 45.2381 25.999 45.2303 26.248 45.2158C26.5033 45.2009 26.6853 45.1797 26.7588 45.1572C26.9026 45.1132 27.0642 44.9864 27.1914 44.8174C27.3187 44.6483 27.395 44.4586 27.3936 44.3047L27.3369 37.1123C27.2181 36.8373 26.9989 36.6607 26.7021 36.6143C26.4809 36.5797 25.88 36.5598 25.2715 36.5615Z" fill="white" stroke="white" stroke-width="0.25"/>
<path d="M35.2275 34.0825C35.6737 34.0385 36.0104 34.2346 36.2373 34.5288C36.4605 34.8183 36.5799 35.2034 36.6133 35.5591C36.7761 37.2922 36.7142 39.151 36.6416 41.0073C36.5689 42.8668 36.4859 44.7236 36.6016 46.4663L36.6025 46.4868L36.5977 46.5054C36.39 47.3249 35.8065 47.7274 35.2256 47.6724C34.6464 47.6173 34.1336 47.1132 34.0508 46.2583C33.8851 44.5477 33.9502 42.7058 34.0244 40.8667C34.0988 39.0241 34.1822 37.1842 34.0566 35.4634V35.4526L34.0645 35.3335C34.0962 35.0546 34.2218 34.7785 34.4033 34.5581C34.6105 34.3065 34.9009 34.1149 35.2275 34.0825Z" fill="white" stroke="white" stroke-width="0.25"/>
</svg>
