<svg width="64" height="64" viewBox="0 0 64 64" fill="none" xmlns="http://www.w3.org/2000/svg">
<path d="M26.3502 60.0231V48.2717C14.7429 48.2717 5.33325 38.8621 5.33325 27.2547V20.8705C5.33325 18.0935 7.58448 15.8423 10.3615 15.8423H42.9039C45.6809 15.8423 47.9321 18.0935 47.9321 20.8705V26.8027" stroke="white" stroke-width="2.66667" stroke-linecap="round" stroke-linejoin="round"/>
<path d="M15.5027 3.97803V15.8424" stroke="white" stroke-width="2.66667" stroke-miterlimit="10" stroke-linecap="round"/>
<path d="M37.3105 3.97803V15.8424" stroke="white" stroke-width="2.66667" stroke-miterlimit="10" stroke-linecap="round"/>
<path d="M45.1074 59.457C52.596 59.457 58.6667 53.3863 58.6667 45.8977C58.6667 38.4091 52.596 32.3384 45.1074 32.3384C37.6188 32.3384 31.5481 38.4091 31.5481 45.8977C31.5481 53.3863 37.6188 59.457 45.1074 59.457Z" stroke="white" stroke-width="2.66667" stroke-miterlimit="10" stroke-linecap="round"/>
<path d="M40.3613 40.7007L50.2483 50.5877" stroke="white" stroke-width="2.66667" stroke-miterlimit="10" stroke-linecap="round"/>
<path d="M50.2483 40.7007L40.3613 50.5877" stroke="white" stroke-width="2.66667" stroke-miterlimit="10" stroke-linecap="round"/>
</svg>
