<svg width="39" height="43" viewBox="0 0 39 43" fill="none" xmlns="http://www.w3.org/2000/svg">
<path d="M3.00682 25.0052C2.62835 25.0065 2.25728 24.9004 1.93673 24.6992C1.61617 24.498 1.35929 24.2099 1.19592 23.8685C1.03255 23.5271 0.969406 23.1464 1.01382 22.7705C1.05823 22.3947 1.20838 22.0391 1.44682 21.7452L21.2468 1.34521C21.3953 1.17377 21.5977 1.05792 21.8208 1.01667C22.0438 0.975427 22.2743 1.01123 22.4743 1.11822C22.6743 1.2252 22.832 1.397 22.9215 1.60542C23.011 1.81385 23.027 2.04651 22.9668 2.26521L19.1268 14.3052C19.0136 14.6083 18.9756 14.9342 19.016 15.2552C19.0564 15.5762 19.1741 15.8826 19.359 16.1481C19.5439 16.4136 19.7904 16.6302 20.0774 16.7795C20.3644 16.9288 20.6833 17.0063 21.0068 17.0052H35.0068C35.3853 17.0039 35.7564 17.11 36.0769 17.3113C36.3975 17.5125 36.6544 17.8005 36.8177 18.1419C36.9811 18.4833 37.0442 18.864 36.9998 19.2399C36.9554 19.6158 36.8053 19.9713 36.5668 20.2652L16.7668 40.6652C16.6183 40.8366 16.4159 40.9525 16.1929 40.9937C15.9698 41.035 15.7394 40.9992 15.5394 40.8922C15.3393 40.7852 15.1817 40.6134 15.0921 40.405C15.0026 40.1966 14.9867 39.9639 15.0468 39.7452L18.8868 27.7052C19.0001 27.4022 19.0381 27.0762 18.9976 26.7552C18.9572 26.4342 18.8395 26.1278 18.6546 25.8624C18.4698 25.5969 18.2233 25.3802 17.9363 25.2309C17.6493 25.0816 17.3303 25.0042 17.0068 25.0052H3.00682Z" stroke="white" stroke-width="2" stroke-linecap="round" stroke-linejoin="round"/>
</svg>
