<svg width="15" height="15" viewBox="0 0 15 15" fill="none" xmlns="http://www.w3.org/2000/svg">
<path d="M2.16674 8.8334C2.04059 8.83383 1.9169 8.79846 1.81005 8.73139C1.70319 8.66432 1.61757 8.56831 1.56311 8.45451C1.50865 8.34071 1.4876 8.21379 1.50241 8.08851C1.51721 7.96322 1.56726 7.84471 1.64674 7.74673L8.24674 0.946735C8.29625 0.889589 8.36372 0.850972 8.43806 0.837223C8.51241 0.823474 8.58923 0.83541 8.6559 0.871071C8.72257 0.906732 8.77513 0.963999 8.80497 1.03347C8.8348 1.10295 8.84013 1.1805 8.82008 1.2534L7.54008 5.26673C7.50233 5.36775 7.48966 5.47641 7.50314 5.58341C7.51662 5.6904 7.55585 5.79252 7.61747 5.88102C7.67909 5.96952 7.76126 6.04174 7.85693 6.09151C7.95259 6.14127 8.05891 6.16709 8.16674 6.16673H12.8334C12.9596 6.1663 13.0833 6.20168 13.1901 6.26875C13.297 6.33582 13.3826 6.43183 13.437 6.54563C13.4915 6.65943 13.5125 6.78634 13.4977 6.91163C13.4829 7.03692 13.4329 7.15543 13.3534 7.2534L6.75341 14.0534C6.7039 14.1105 6.63644 14.1492 6.56209 14.1629C6.48774 14.1767 6.41093 14.1647 6.34426 14.1291C6.27759 14.0934 6.22502 14.0361 6.19519 13.9667C6.16535 13.8972 6.16002 13.8196 6.18008 13.7467L7.46008 9.7334C7.49782 9.63239 7.5105 9.52372 7.49702 9.41673C7.48354 9.30974 7.4443 9.20761 7.38268 9.11912C7.32106 9.03062 7.23889 8.95839 7.14323 8.90863C7.04756 8.85886 6.94125 8.83305 6.83341 8.8334H2.16674Z" stroke="white" stroke-width="1.33333" stroke-linecap="round" stroke-linejoin="round"/>
</svg>
