<svg width="77" height="35" viewBox="0 0 77 35" fill="none" xmlns="http://www.w3.org/2000/svg">
<path d="M15.5391 9.375C15.5391 8.34375 15.375 7.44531 15.0469 6.67969C14.7344 5.91406 14.2969 5.28125 13.7344 4.78125C13.1875 4.26562 12.5391 3.88281 11.7891 3.63281C11.0391 3.38281 10.2266 3.25781 9.35156 3.25781C8.60156 3.25781 7.86719 3.35938 7.14844 3.5625C6.42969 3.76562 5.72656 4.04688 5.03906 4.40625C4.36719 4.76562 3.71094 5.19531 3.07031 5.69531C2.44531 6.19531 1.85938 6.75 1.3125 7.35938V3.23438C2.39062 2.1875 3.59375 1.39062 4.92188 0.84375C6.26562 0.28125 7.89844 0 9.82031 0C11.1953 0 12.4688 0.203125 13.6406 0.609375C14.8125 1 15.8281 1.57812 16.6875 2.34375C17.5469 3.10938 18.2188 4.05469 18.7031 5.17969C19.2031 6.30469 19.4531 7.59375 19.4531 9.04688C19.4531 10.375 19.2969 11.5781 18.9844 12.6562C18.6875 13.7344 18.2266 14.75 17.6016 15.7031C16.9922 16.6562 16.2188 17.5703 15.2812 18.4453C14.3438 19.3203 13.2422 20.2109 11.9766 21.1172C10.3984 22.2422 9.09375 23.2031 8.0625 24C7.04688 24.7969 6.23438 25.5469 5.625 26.25C5.03125 26.9375 4.60938 27.6328 4.35938 28.3359C4.125 29.0234 4.00781 29.8203 4.00781 30.7266H20.7422V34.1719H0V32.5078C0 31.0703 0.15625 29.8047 0.46875 28.7109C0.78125 27.6172 1.29688 26.5781 2.01562 25.5938C2.73438 24.6094 3.67188 23.625 4.82812 22.6406C6 21.6562 7.42969 20.5469 9.11719 19.3125C10.3359 18.4375 11.3516 17.6016 12.1641 16.8047C12.9922 16.0078 13.6562 15.2109 14.1562 14.4141C14.6562 13.6172 15.0078 12.8125 15.2109 12C15.4297 11.1719 15.5391 10.2969 15.5391 9.375ZM46.0312 23.9062C46.0312 25.5469 45.75 27.0312 45.1875 28.3594C44.625 29.6875 43.8203 30.8281 42.7734 31.7812C41.7422 32.7344 40.4922 33.4688 39.0234 33.9844C37.5547 34.5 35.9219 34.7578 34.125 34.7578C31 34.7578 28.6797 34.2891 27.1641 33.3516V29.2734C29.4453 30.7422 31.7812 31.4766 34.1719 31.4766C35.3906 31.4766 36.4844 31.2969 37.4531 30.9375C38.4375 30.5781 39.2734 30.0781 39.9609 29.4375C40.6484 28.7969 41.1719 28.0234 41.5312 27.1172C41.9062 26.2109 42.0938 25.2188 42.0938 24.1406C42.0938 21.9531 41.3594 20.2422 39.8906 19.0078C38.4219 17.7578 36.2891 17.1328 33.4922 17.1328C33.0391 17.1328 32.5625 17.1406 32.0625 17.1562C31.5625 17.1719 31.0625 17.1953 30.5625 17.2266C30.0625 17.2422 29.5703 17.2656 29.0859 17.2969C28.6172 17.3281 28.1875 17.3672 27.7969 17.4141L28.9453 0.5625H44.4844V4.03125H32.2734L31.5938 13.8984C32.0938 13.8672 32.625 13.8438 33.1875 13.8281C33.75 13.7969 34.25 13.7812 34.6875 13.7812C36.4688 13.7812 38.0625 14.0156 39.4688 14.4844C40.875 14.9531 42.0625 15.625 43.0312 16.5C44.0156 17.3594 44.7578 18.4219 45.2578 19.6875C45.7734 20.9375 46.0312 22.3438 46.0312 23.9062ZM76.6641 21.75H67.1953V31.1953H64.0781V21.75H54.6328V18.6094H64.0781V9.16406H67.1953V18.6094H76.6641V21.75Z" fill="white"/>
</svg>
