<svg width="110" height="64" viewBox="0 0 110 64" fill="none" xmlns="http://www.w3.org/2000/svg">
<path d="M14.3082 49V46.6648L25.7116 33.8466C27.2003 32.1648 28.3991 30.7273 29.3082 29.5341C30.2173 28.3409 30.8764 27.2386 31.2855 26.2273C31.706 25.2159 31.9162 24.1648 31.9162 23.0739C31.9162 21.7443 31.6037 20.5852 30.9787 19.5966C30.3651 18.5966 29.5185 17.8182 28.4389 17.2614C27.3594 16.7045 26.1435 16.4261 24.7912 16.4261C23.3594 16.4261 22.1037 16.733 21.0241 17.3466C19.956 17.9602 19.1264 18.8011 18.5355 19.8693C17.9446 20.9375 17.6491 22.1648 17.6491 23.5511H14.598C14.598 21.6193 15.0412 19.9091 15.9276 18.4205C16.8253 16.9205 18.0469 15.7443 19.5923 14.892C21.1491 14.0398 22.9105 13.6136 24.8764 13.6136C26.8196 13.6136 28.5469 14.0341 30.0582 14.875C31.5696 15.7045 32.7571 16.8352 33.6207 18.267C34.4844 19.6989 34.9162 21.3011 34.9162 23.0739C34.9162 24.358 34.6889 25.6023 34.2344 26.8068C33.7912 28.0114 33.0241 29.3523 31.9332 30.8295C30.8423 32.3068 29.331 34.1136 27.3991 36.25L18.7401 45.9148V46.1364H36.0071V49H14.3082ZM53.8153 49.4773C51.8722 49.4773 50.1335 49.0852 48.5994 48.3011C47.0767 47.5057 45.8608 46.4148 44.9517 45.0284C44.054 43.642 43.5767 42.0568 43.5199 40.2727H46.6051C46.7074 42.125 47.4347 43.6477 48.7869 44.8409C50.1392 46.0227 51.8153 46.6136 53.8153 46.6136C55.3722 46.6136 56.7585 46.2443 57.9744 45.5057C59.1903 44.7557 60.1392 43.733 60.821 42.4375C61.5142 41.1307 61.8608 39.6591 61.8608 38.0227C61.8494 36.3182 61.4801 34.8182 60.7528 33.5227C60.0256 32.2159 59.0369 31.1932 57.7869 30.4545C56.5483 29.7159 55.1563 29.3466 53.6108 29.3466C52.4403 29.3352 51.2926 29.5284 50.1676 29.9261C49.0426 30.3239 48.1051 30.8352 47.3551 31.4602L44.1676 31.0511L46.2642 14.0909H63.5142V16.9545H48.9403L47.5426 28.6307H47.7131C48.4858 27.983 49.4233 27.4545 50.5256 27.0455C51.6392 26.6364 52.8153 26.4318 54.054 26.4318C56.1108 26.4318 57.9574 26.9261 59.5938 27.9148C61.2415 28.9034 62.5426 30.267 63.4972 32.0057C64.4631 33.733 64.946 35.7216 64.946 37.9716C64.946 40.1761 64.4631 42.1477 63.4972 43.8864C62.5426 45.6136 61.2244 46.9773 59.5426 47.9773C57.8722 48.9773 55.9631 49.4773 53.8153 49.4773ZM82.4943 42.3864V20.7898H85.4091V42.3864H82.4943ZM73.1534 33.0455V30.1307H94.75V33.0455H73.1534Z" fill="white"/>
</svg>
