<svg width="112" height="64" viewBox="0 0 112 64" fill="none" xmlns="http://www.w3.org/2000/svg">
<path d="M13.772 49V45.1818L25.5845 32.9432C26.8459 31.6136 27.8857 30.4489 28.7038 29.4489C29.5334 28.4375 30.1527 27.4773 30.5618 26.5682C30.9709 25.6591 31.1754 24.6932 31.1754 23.6705C31.1754 22.5114 30.9027 21.5114 30.3572 20.6705C29.8118 19.8182 29.0675 19.1648 28.1243 18.7102C27.1811 18.2443 26.1186 18.0114 24.9368 18.0114C23.6868 18.0114 22.5959 18.267 21.6641 18.7784C20.7322 19.2898 20.0163 20.0114 19.5163 20.9432C19.0163 21.875 18.7663 22.9659 18.7663 24.2159H13.7379C13.7379 22.0909 14.2266 20.233 15.2038 18.642C16.1811 17.0511 17.522 15.8182 19.2266 14.9432C20.9311 14.0568 22.8686 13.6136 25.0391 13.6136C27.2322 13.6136 29.1641 14.0511 30.8345 14.9261C32.5163 15.7898 33.8288 16.9716 34.772 18.4716C35.7152 19.9602 36.1868 21.642 36.1868 23.517C36.1868 24.8125 35.9425 26.0795 35.4538 27.3182C34.9766 28.5568 34.1413 29.9375 32.9482 31.4602C31.755 32.9716 30.0959 34.8068 27.9709 36.9659L21.0334 44.2273V44.483H36.7493V49H13.772ZM54.7322 49.4773C52.5959 49.4773 50.6754 49.0682 48.9709 48.25C47.2777 47.4205 45.9254 46.2841 44.9141 44.8409C43.9027 43.3977 43.3629 41.75 43.2947 39.8977H48.4084C48.5334 41.3977 49.1982 42.6307 50.4027 43.5966C51.6072 44.5625 53.0504 45.0455 54.7322 45.0455C56.0732 45.0455 57.2607 44.7386 58.2947 44.125C59.3402 43.5 60.1584 42.642 60.7493 41.5511C61.3516 40.4602 61.6527 39.2159 61.6527 37.8182C61.6527 36.3977 61.3459 35.1307 60.7322 34.017C60.1186 32.9034 59.272 32.0284 58.1925 31.392C57.1243 30.7557 55.897 30.4318 54.5107 30.4205C53.4538 30.4205 52.3913 30.6023 51.3232 30.9659C50.255 31.3295 49.3913 31.8068 48.7322 32.3977L43.9084 31.6818L45.8686 14.0909H65.0618V18.608H50.2493L49.1413 28.375H49.3459C50.0277 27.7159 50.9311 27.1648 52.0561 26.7216C53.1925 26.2784 54.4084 26.0568 55.7038 26.0568C57.8288 26.0568 59.7209 26.5625 61.38 27.5739C63.0504 28.5852 64.3629 29.9659 65.3175 31.7159C66.2834 33.4545 66.7607 35.4545 66.7493 37.7159C66.7607 39.9773 66.2493 41.9943 65.2152 43.767C64.1925 45.5398 62.772 46.9375 60.9538 47.9602C59.147 48.9716 57.0732 49.4773 54.7322 49.4773ZM83.3047 43.1364V20.0909H87.8899V43.1364H83.3047ZM74.0831 33.8977V29.3295H97.1286V33.8977H74.0831Z" fill="white"/>
</svg>
