<svg width="48" height="48" viewBox="0 0 48 48" fill="none" xmlns="http://www.w3.org/2000/svg">
<path d="M30 37.5V34.5C30 32.9087 29.3679 31.3826 28.2426 30.2574C27.1174 29.1321 25.5913 28.5 24 28.5H15C13.4087 28.5 11.8826 29.1321 10.7574 30.2574C9.63214 31.3826 9 32.9087 9 34.5V37.5" stroke="#FF4D7A" stroke-width="3" stroke-linecap="round" stroke-linejoin="round"/>
<path d="M30 10.6919C31.2866 11.0254 32.4261 11.7768 33.2395 12.828C34.0529 13.8792 34.4943 15.1707 34.4943 16.4999C34.4943 17.8291 34.0529 19.1206 33.2395 20.1718C32.4261 21.223 31.2866 21.9743 30 22.3079" stroke="#FF4D7A" stroke-width="3" stroke-linecap="round" stroke-linejoin="round"/>
<path d="M39 37.4998V34.4998C38.999 33.1704 38.5565 31.879 37.742 30.8283C36.9276 29.7776 35.7872 29.0272 34.5 28.6948" stroke="#FF4D7A" stroke-width="3" stroke-linecap="round" stroke-linejoin="round"/>
<path d="M19.5 22.5C22.8137 22.5 25.5 19.8137 25.5 16.5C25.5 13.1863 22.8137 10.5 19.5 10.5C16.1863 10.5 13.5 13.1863 13.5 16.5C13.5 19.8137 16.1863 22.5 19.5 22.5Z" stroke="#FF4D7A" stroke-width="3" stroke-linecap="round" stroke-linejoin="round"/>
</svg>
