<?xml version="1.0" encoding="UTF-8"?>
<svg id="Layer_1" xmlns="http://www.w3.org/2000/svg" version="1.1" viewBox="0 0 24 24">
  <!-- Generator: Adobe Illustrator 30.2.1, SVG Export Plug-In . SVG Version: 2.1.1 Build 1)  -->
  <defs>
    <style>
      .st0 {
        fill: #ff4172;
      }
    </style>
  </defs>
  <path class="st0"
    d="M9.89117,14.166781c.219924,0,.427236-.053008.611978-.144851v1.32743c0,.246623-.199959.446581-.446581.446581s-.446581-.199959-.446581-.446581v-1.211513c.090834.018862.184844.028933.281185.028933ZM10.503147,11.549446v-2.898806c0-.246623-.199959-.446581-.446581-.446581s-.446581.199959-.446581.446581v2.782888c.090834-.018862.184844-.028933.281185-.028933.219924,0,.427236.053008.611978.144851ZM12.570657,9.329909v-.679269c0-.246623-.199959-.446581-.446581-.446581s-.446581.199959-.446581.446581v.679262c.140306-.048136.290152-.075516.446581-.075516s.306275.02738.446581.075523ZM11.677495,11.941056v3.408303c0,.246623.199959.446581.446581.446581s.446581-.199959.446581-.446581v-3.408317c-.140306.048143-.290152.07553-.446581.07553s-.306275-.02738-.446581-.075516ZM13.745005,14.778125v.571235c0,.246623.199959.446581.446581.446581s.446581-.199959.446581-.446581v-.626853c-.163134.067966-.341818.10586-.52928.10586-.126105,0-.247734-.018433-.363883-.050242ZM14.638168,12.172034v-3.521393c0-.246623-.199959-.446581-.446581-.446581s-.446581.199959-.446581.446581v3.465782c.11615-.031809.237778-.050242.363883-.050242.187461,0,.366145.037887.52928.105853ZM10.503147,12.081111c-.164143-.142773-.377866-.229935-.611978-.229935-.097969,0-.192381.015319-.281185.0434-.378302.119632-.653354.47377-.653354.891084,0,.417355.275052.771507.653354.891139.088804.028082.183216.0434.281185.0434.234112,0,.447835-.087162.611978-.229935.197131-.171468.322507-.42342.322507-.704604,0-.281158-.125376-.533096-.322507-.70455ZM12.570657,9.814848c-.13277-.072545-.284926-.11388-.446581-.11388-.161662,0-.313812.041329-.446581.11386-.290459.158684-.487958.466997-.487958.820624,0,.353662.197499.661995.487958.820679.13277.072538.284919.11386.446581.11386.161655,0,.313812-.041329.446581-.11388.290418-.158691.487903-.467011.487903-.820659,0-.353614-.197485-.661913-.487903-.820604ZM14.638168,12.67794c-.150609-.103945-.332844-.165178-.52928-.165178-.129008,0-.251986.026296-.363883.073772-.335059.142167-.570656.474438-.570656.860713,0,.386316.235597.718601.570656.860767.111897.047475.234875.073772.363883.073772.196436,0,.37867-.061226.52928-.165178.244456-.168722.405205-.450493.405205-.769361,0-.318834-.160749-.600584-.405205-.769306ZM22.538206,14.611474c.466261.519358.590008,1.242545.322888,1.88734-.267066.644795-.865905,1.068699-1.562871,1.106205l-1.756997.094637c-.996249.053642-1.787961.845354-1.841603,1.841548l-.094582,1.756997c-.037506.696911-.461355,1.295751-1.10615,1.562871-.225199.093274-.459992.138902-.692332.138902-.432844.000055-.857074-.15831-1.195063-.461736l-1.309325-1.175547c-.742431-.666492-1.8621-.666601-2.604313,0l-1.309325,1.175547c-.519249.466152-1.242599.590118-1.88734.322834-.644795-.267066-1.068699-.865905-1.106205-1.562871l-.094637-1.756997c-.053642-.996195-.845354-1.787906-1.841548-1.841548l-1.757051-.094637c-.696911-.037506-1.295805-.461409-1.562871-1.106205-.267066-.64485-.143373-1.367982.322888-1.88734l1.175492-1.309325c.666547-.742376.666547-1.861937,0-2.604313l-1.175492-1.309325c-.466261-.519358-.589954-1.24249-.322888-1.88734.267066-.644795.86596-1.068699,1.562926-1.106205l1.756997-.094637c.996195-.053642,1.787906-.845354,1.841548-1.841548l.094637-1.757051c.037506-.696911.461409-1.295751,1.106205-1.562817.644577-.267229,1.367928-.143373,1.88734.322888l1.309325,1.175492c.742321.666383,1.861991.666492,2.604313,0l1.30927-1.175492c.519467-.466261,1.242545-.590008,1.887449-.322888.644795.267066,1.068644.86596,1.10615,1.562871l.094582,1.757051c.053642.99614.845354,1.787852,1.841603,1.841494l1.757051.094637c.696911.037506,1.295751.461409,1.562817,1.106205.26712.644795.143373,1.367982-.322888,1.88734l-1.175492,1.309325c-.666492.742321-.666492,1.861991,0,2.604313l1.175492,1.309325ZM21.873567,15.208188l-1.175492-1.309325c-.971881-1.082545-.971881-2.715195,0-3.79774l1.175492-1.309325c.23801-.265049.298684-.619773.162398-.948822-.13634-.329103-.430063-.537021-.785715-.556155l-1.757106-.094637c-1.452698-.078228-2.607147-1.232678-2.685375-2.685321l-.094582-1.757106c-.019135-.355651-.227052-.649375-.556101-.78566-.329212-.136558-.683937-.075666-.948931.162344l-1.30927,1.175492c-1.082545.971772-2.715195.971772-3.79774,0l-1.309325-1.175492c-.265049-.237955-.61961-.298575-.948822-.162344-.329103.136286-.537021.430009-.556155.78566l-.094637,1.757106c-.078228,1.452643-1.232678,2.607093-2.685321,2.685321l-1.757051.094637c-.355706.019189-.649484.227052-.785769.556155-.13634.329103-.075611.683773.162344.948822l1.175492,1.309325c.971936,1.082545.971936,2.715195,0,3.79774l-1.175492,1.309325c-.237955.265049-.298684.619719-.162344.948822.136286.329103.430063.537021.785715.556155l1.757106.094637c1.452643.078228,2.607093,1.232678,2.685321,2.685321l.094637,1.757051c.019135.355706.227052.649429.556155.785769.328994.136122.683773.07572.948822-.162344l1.309325-1.175547c.541273-.485886,1.22003-.728856,1.898843-.728856s1.35757.242916,1.898897.728856l1.30927,1.175547c.265049.238064.619828.298629.948931.162289.329048-.136286.536966-.430009.556101-.78566l.094582-1.757051c.078228-1.452698,1.232678-2.607147,2.685375-2.685375l1.757051-.094637c.355706-.019135.649429-.227052.785769-.556155.136286-.329048.075611-.683773-.162398-.948822ZM18.387799,12.000027c0,3.522225-2.865545,6.38777-6.387824,6.38777-3.522225,0-6.38777-2.865545-6.38777-6.38777,0-3.522279,2.865545-6.387824,6.38777-6.387824,3.522279,0,6.387824,2.865545,6.387824,6.387824ZM17.494636,12.000027c0-3.029742-2.464919-5.494662-5.494662-5.494662s-5.494607,2.464919-5.494607,5.494662,2.464865,5.494607,5.494607,5.494607,5.494662-2.464865,5.494662-5.494607Z" />
</svg>