<svg width="25" height="30" viewBox="0 0 25 30" fill="none" xmlns="http://www.w3.org/2000/svg">
<path d="M23.4168 16.6665C23.4168 23.3332 18.7502 26.6665 13.2035 28.5999C12.913 28.6983 12.5975 28.6936 12.3102 28.5865C6.75016 26.6665 2.0835 23.3332 2.0835 16.6665V7.3332C2.0835 6.97958 2.22397 6.64044 2.47402 6.39039C2.72407 6.14034 3.06321 5.99987 3.41683 5.99987C6.0835 5.99987 9.41683 4.39987 11.7368 2.3732C12.0193 2.13187 12.3786 1.99927 12.7502 1.99927C13.1217 1.99927 13.481 2.13187 13.7635 2.3732C16.0968 4.4132 19.4168 5.99987 22.0835 5.99987C22.4371 5.99987 22.7763 6.14034 23.0263 6.39039C23.2764 6.64044 23.4168 6.97958 23.4168 7.3332V16.6665Z" stroke="white" stroke-width="2.66667" stroke-linecap="round" stroke-linejoin="round"/>
</svg>
