<?xml version="1.0" encoding="UTF-8"?>
<svg id="Layer_1" fill="white" xmlns="http://www.w3.org/2000/svg" version="1.1" viewBox="0 0 267.075017 80.460759">
  <!-- Generator: Adobe Illustrator 30.2.1, SVG Export Plug-In . SVG Version: 2.1.1 Build 1)  -->
  <path d="M184.585153,28.389141v33.332845c0,.728265-.520057,1.144203-1.257747,1.144203h-10.171433c-.515464,0-.907901-.167795-1.106684-.851263-.226848-.796773-4.932029-18.654865-6.847147-25.927643-.023711-.06126-.04259-.118137-.052044-.167795-.151302-.62173-.245728-.740106-.46339-.829938-.23171-.099257-.836977-.084971-1.068657.01187-.250619.104119-.387635.24355-.430254.709386v27.055384h-6.256136V29.533344c0-.728265.520057-1.144203,1.257747-1.144203h10.171433c.515464,0,.907901.167795,1.106684.851263.226848.796773,4.932029,18.654865,6.847147,25.927643.023711.06126.04259.118137.052044.167795.151302.62173.245728.740106.46339.829938.23171.099257.836977.084971,1.068657-.01187.250619-.104119.387635-.24355.430254-.709386v-27.055384h6.256136ZM214.277317,37.752644c-2.427005,0-4.907358.876575-6.529545,2.34144v-1.622188c0-.126779-.077616-.196236-.204186-.196236h-5.548994c-.130754,0-.200211.065482-.200211.196236s-.003975,24.20164-.003975,24.303942c0,.151047.028452.204163.175733.204163.142888,0,5.405688.020525,5.556958.020525.155218,0,.224674-.042887.224674-.194166v-15.557622c0-2.819477,1.487459-5.291461,5.13623-5.291461,2.357758,0,3.78371,1.180971,3.78371,4.989134v15.88654c0,.128662.077616.198119.204395.198119h5.528283c.134938,0,.200224-.067365.200224-.198119v-16.086728c0-6.210924-2.022623-8.99358-8.323296-8.99358ZM247.904716,37.621093c-4.125511,0-7.69147.561614-10.600563,1.669172,1.211882,1.055809,1.957401,2.477987,2.271608,4.331683,2.207695-1.386304,4.868556-2.207489,7.181811-2.207489,5.914676,0,7.103054,2.741888,7.103054,7.165936,0,8.325244-4.029022,9.22395-5.761283,9.22395-1.709994,0-2.951153-1.305896-2.951153-3.104957,0-1.8605,1.112094-3.402052,3.215466-4.458067,1.21518-.609033,2.697148-.773765,3.330098-.84407.027627-.003093.054017-.005979.078758-.008659.069274-1.331256-.163289-3.193199-.369873-3.752133-1.248993.090922-3.617914.385749-6.078376,1.344451-4.240143,1.653091-7.089446,5.04236-7.435816,8.845623-.008659.092571-.019793.184524-.030926.276271-.021854.177514-.042472.345339-.042472.517493,0,1.177657.297301,2.263774.883655,3.228248,1.212294,1.993482,3.561835,3.097947,6.615662,3.110318h.116694c4.751863-.020205,7.197481-2.174501,8.028356-3.099803l.063089-.070099h.305135l.032988.211121v2.958781h7.09893l-.000825-5.874884c-.000825-4.101801-.001237-6.425365.000825-6.485361.123703-3.775018-.935198-6.848018-3.146604-9.13344-2.364386-2.442937-5.975703-3.844086-9.908236-3.844086ZM233.201349,38.662331h-5.757649c-.146331,0-.219471.073372-.219471.211043v26.929963c0,1.488978-.460486,2.306632-2.917598,2.306632-.665035,0-1.298526-.083345-1.890473-.259983v4.547958c.563083.045899,1.144206.073397,1.752775.073397,7.022981,0,9.243485-1.609485,9.243485-5.295127v-28.30284c0-.116539-.094504-.211043-.211069-.211043ZM65.055257,37.463402c-.042472,0-.073397.009896-.164938.039585-.31132.100612-1.258477.407397-2.688077.407397-1.406509,0-2.327687-.303486-2.630348-.403273-.099787-.032575-.1336-.043709-.178958-.043709-.247819,0-.413994.166587-.413994.414407,0,.069686.002886,6.976464.00536,13.462649.002474,5.742315.004536,11.155167.004536,11.203411,0,.27957.130301.421417.387192.421417.074634,0,1.446506.00536,2.819202.010721,1.375583.005773,2.75199.011133,2.827037.011133.391315,0,.433787-.286992.433787-.410283v-24.695337c0-.249881-.161227-.418118-.400799-.418118ZM62.219561,35.72578c2.618803,0,3.786563-.981381,3.786563-3.181653,0-2.201097-1.167761-3.18289-3.786563-3.18289-2.621689,0-3.790687.981793-3.790687,3.18289,0,2.200272,1.168998,3.181653,3.790687,3.181653ZM195.556475,37.463402c-.042472,0-.073397.009896-.16535.039585-.31132.101025-1.258889.407397-2.687664.407397-1.406509,0-2.327687-.303486-2.630348-.403273-.099787-.032575-.1336-.043709-.178958-.043709-.247819,0-.413994.166587-.413994.414407,0,.069686.002886,6.976464.00536,13.462649.002474,5.742315.004536,11.155167.004536,11.203411,0,.27957.130301.421417.387192.421417.074634,0,1.446506.00536,2.819202.010721,1.37517.005773,2.751578.011133,2.826624.011133.391728,0,.434199-.286992.434199-.410283v-24.695337c0-.249881-.161227-.418118-.400799-.418118ZM192.720367,35.72578c2.619215,0,3.786976-.981381,3.786976-3.181653,0-2.201097-1.167761-3.18289-3.786976-3.18289-2.621277,0-3.790275.981793-3.790275,3.18289,0,2.200272,1.168998,3.181653,3.790275,3.181653ZM71.017449,27.822328v34.913301c0,.23887.193642.432512.432512.432512h5.073058c.23887,0,.432512-.193642.432512-.432512V27.822328c0-.23887-.193642-.432512-.432512-.432512h-5.073058c-.23887,0-.432512.193642-.432512.432512ZM102.397213,28.644993h-5.958796c-.264313,0-.435436.167412-.435436.426777v27.521549c0,1.454341-.414407,2.146255-2.770546,2.146255-4.009642,0-6.042502-2.97713-6.042502-8.848922,0-2.202747.350081-9.389094,4.854949-9.389094.829638,0,1.390427.156691,1.739683.274622.068449.023091.278745.095252.449456-.027215.176896-.12659.176896-.373172.176896-.453992,0-.613157-.224728-2.640657-.642021-3.619564-.135661-.314619-.325752-.503885-.613982-.612332-.811082-.317506-1.679481-.465125-2.73261-.465125-6.53979,0-9.961429,7.207789-9.961429,14.328161,0,9.341674,4.013353,13.692738,12.630537,13.692738,7.040377,0,9.657943-1.524027,9.657943-5.622735v-28.924347c0-.283281-.118343-.426777-.352143-.426777ZM42.850688,63.031071c2.427005,0,4.907358-.876575,6.529545-2.34144v1.622188c0,.126779.077616.196236.204186.196236h5.548994c.130754,0,.200211-.065482.200211-.196236s.003975-24.20164.003975-24.303942c0-.151047-.028452-.204163-.175733-.204163-.142888,0-5.405688-.020525-5.556958-.020525-.155218,0-.224674.042887-.224674.194166v15.557622c0,2.819477-1.487459,5.291461-5.13623,5.291461-2.357758,0-3.78371-1.180971-3.78371-4.989134v-15.88654c0-.128662-.077616-.198119-.204395-.198119h-5.528283c-.134938,0-.200224.067365-.200224.198119v16.086728c0,6.210924,2.022623,8.99358,8.323296,8.99358ZM6.807477,63.136552h13.5412c6.929311,0,10.394314-3.172682,10.394314-9.518395,0-5.285132-1.62225-8.035533-7.368338-8.250855,2.611731-.307129,3.404053-1.183049,4.879249-2.62741,1.490178-1.444013,2.235441-3.28766,2.235441-5.531115,0-2.904053-.737598-5.147159-2.212446-6.729668-1.475196-1.582334-4.133267-2.373937-7.974212-2.373937H6.853522c-.412982,0-.747771.334788-.747771.747771v33.581884c0,.387552.314173.701725.701725.701725ZM11.683206,33.682627h7.536252c3.794954,0,5.692431,1.436696,5.692431,4.30974,0,3.53399-2.066459,5.300637-6.199378,5.300637h-7.029306v-9.610377ZM11.683206,47.994712h7.374935c2.212446,0,3.779624.384304,4.701534,1.152562.936892.768259,1.405861,2.09712,1.405861,3.986932,0,3.365008-1.790165,5.047164-5.369798,5.047164h-8.112534v-10.186658ZM120.24509,37.702492c-.145264-.090393-2.641846,1.345947-3.010498,1.581787-.35498.227051-1.79126,1.20636-1.959473,1.430664-.411133.548523.303223.885742.735596,1.201294,4.383545,3.200012,11.080322,2.916077,14.092529-1.991333.482178-.785461,1.557373-4.273438,1.315186-4.966553-.15918-.455261-2.575439-.068481-3.127441.013062-1.575928.232666-3.415283.809631-4.931396,1.34198-.486084.170654-2.52832.928406-2.812256,1.134888-.205322.149231-.071045.391663-.065186.590454-.321533.109863-.146973-.28009-.237061-.336243ZM110.379856,44.086037c.583984-.346069,1.798096-2.037231,1.075684-2.436462-.522949-.289001-3.501709.086304-3.729248.529663-.051514.100769.191406.333984.210449.454773.01709.110046-.277832.104492-.310059.269714-.42749,2.191895,1.306641,2.039612,2.753174,1.182312ZM158.80051,16.295204l-1.392578-8.305786c-10.001221,2.490845-17.285645,12.66217-18.927002,15.127747-1.702148-.343445-3.539795-.502319-5.50708-.445312-7.807129.226257-15.663086,3.400696-20.593262,9.517029-1.864258,2.312988-3.573242,5.052002-4.083984,8.021545,1.655273-.856934,3.105957-2.060852,4.725342-2.985291,6.398682-3.652954,17.327148-7.339294,24.404785-4.092163,4.385498,2.012024,6.944092,8.099976,3.230957,11.958801-4.030518,4.188843-13.600342,1.060547-18.71167.389038-5.077881-.667114-9.932129-.271118-14.749268,1.498779-2.321533,9.367554,6.292236,15.70874,14.687256,16.596985,7.752686.820312,15.800781-1.311523,22.009277-5.856506,13.79248-10.09668,11.397949-28.621399-2.325195-33.724426.004395-.004761.009033-.010132.013672-.014893,5.486084-.666992,8.806152,2.402893,8.806152,2.402893l2.028076-3.548462c-2.873047-1.357056-6.286133-1.212585-8.746338-.818481,7.356445-6.198853,15.130859-5.721497,15.130859-5.721497Z"/>
</svg>