<svg width="34" height="35" viewBox="0 0 34 35" fill="none" xmlns="http://www.w3.org/2000/svg">
<path d="M5 18C5 11.3726 10.3726 6 17 6C23.6274 6 29 11.3726 29 18C29 24.6274 23.6274 30 17 30C10.3726 30 5 24.6274 5 18Z" fill="#1ECA00" fill-opacity="0.4"/>
<path d="M17 3.5C25.0081 3.5 31.5 9.99187 31.5 18C31.5 26.0081 25.0081 32.5 17 32.5C8.99187 32.5 2.5 26.0081 2.5 18C2.5 9.99187 8.99187 3.5 17 3.5Z" stroke="#26FF00" stroke-opacity="0.1" stroke-width="5"/>
<mask id="path-3-outside-1_145_820" maskUnits="userSpaceOnUse" x="10" y="13" width="14" height="10" fill="black">
<rect fill="white" x="10" y="13" width="14" height="10"/>
<path d="M11 18.5C11 18.3646 11.0495 18.2474 11.1484 18.1484C11.2474 18.0495 11.3646 18 11.5 18C11.6354 18 11.7526 18.0495 11.8516 18.1484L15 21.2891L22.1484 14.1484C22.2474 14.0495 22.3646 14 22.5 14C22.6354 14 22.7526 14.0495 22.8516 14.1484C22.9505 14.2474 23 14.3646 23 14.5C23 14.6354 22.9505 14.7526 22.8516 14.8516L15.3516 22.3516C15.2526 22.4505 15.1354 22.5 15 22.5C14.8646 22.5 14.7474 22.4505 14.6484 22.3516L11.1484 18.8516C11.0495 18.7526 11 18.6354 11 18.5Z"/>
</mask>
<path d="M11 18.5C11 18.3646 11.0495 18.2474 11.1484 18.1484C11.2474 18.0495 11.3646 18 11.5 18C11.6354 18 11.7526 18.0495 11.8516 18.1484L15 21.2891L22.1484 14.1484C22.2474 14.0495 22.3646 14 22.5 14C22.6354 14 22.7526 14.0495 22.8516 14.1484C22.9505 14.2474 23 14.3646 23 14.5C23 14.6354 22.9505 14.7526 22.8516 14.8516L15.3516 22.3516C15.2526 22.4505 15.1354 22.5 15 22.5C14.8646 22.5 14.7474 22.4505 14.6484 22.3516L11.1484 18.8516C11.0495 18.7526 11 18.6354 11 18.5Z" fill="white"/>
<path d="M11 18.5C11 18.3646 11.0495 18.2474 11.1484 18.1484C11.2474 18.0495 11.3646 18 11.5 18C11.6354 18 11.7526 18.0495 11.8516 18.1484L15 21.2891L22.1484 14.1484C22.2474 14.0495 22.3646 14 22.5 14C22.6354 14 22.7526 14.0495 22.8516 14.1484C22.9505 14.2474 23 14.3646 23 14.5C23 14.6354 22.9505 14.7526 22.8516 14.8516L15.3516 22.3516C15.2526 22.4505 15.1354 22.5 15 22.5C14.8646 22.5 14.7474 22.4505 14.6484 22.3516L11.1484 18.8516C11.0495 18.7526 11 18.6354 11 18.5Z" fill="white"/>
<path d="M11.8516 18.1484L11.498 18.502L11.4984 18.5024L11.8516 18.1484ZM15 21.2891L14.6469 21.6431L15.0002 21.9955L15.3534 21.6428L15 21.2891ZM22.1484 14.1484L22.5018 14.5022L22.502 14.502L22.1484 14.1484ZM15.3516 22.3516L14.998 21.998L15.3516 22.3516ZM14.6484 22.3516L15.002 21.998L14.6484 22.3516ZM11.1484 18.8516L11.502 18.498L11.1484 18.8516ZM11 18.5H11.5C11.5 18.4967 11.5003 18.4963 11.5 18.498C11.4996 18.4997 11.4989 18.5023 11.4977 18.505C11.4966 18.5078 11.4956 18.5092 11.4957 18.5091C11.4958 18.509 11.4975 18.5065 11.502 18.502L11.1484 18.1484L10.7949 17.7949C10.6057 17.9841 10.5 18.2271 10.5 18.5H11ZM11.1484 18.1484L11.502 18.502C11.5065 18.4975 11.509 18.4958 11.5091 18.4957C11.5092 18.4956 11.5078 18.4966 11.505 18.4977C11.5023 18.4989 11.4997 18.4996 11.498 18.5C11.4963 18.5003 11.4967 18.5 11.5 18.5V18V17.5C11.2271 17.5 10.9841 17.6057 10.7949 17.7949L11.1484 18.1484ZM11.5 18V18.5C11.5033 18.5 11.5037 18.5003 11.502 18.5C11.5003 18.4996 11.4977 18.4989 11.495 18.4977C11.4922 18.4966 11.4908 18.4956 11.4909 18.4957C11.491 18.4958 11.4935 18.4975 11.498 18.502L11.8516 18.1484L12.2051 17.7949C12.0159 17.6057 11.7729 17.5 11.5 17.5V18ZM11.8516 18.1484L11.4984 18.5024L14.6469 21.6431L15 21.2891L15.3531 20.9351L12.2047 17.7944L11.8516 18.1484ZM15 21.2891L15.3534 21.6428L22.5018 14.5022L22.1484 14.1484L21.7951 13.7947L14.6466 20.9353L15 21.2891ZM22.1484 14.1484L22.502 14.502C22.5065 14.4975 22.509 14.4958 22.5091 14.4957C22.5092 14.4956 22.5078 14.4966 22.505 14.4977C22.5023 14.4989 22.4997 14.4996 22.498 14.5C22.4963 14.5003 22.4967 14.5 22.5 14.5V14V13.5C22.2271 13.5 21.9841 13.6057 21.7949 13.7949L22.1484 14.1484ZM22.5 14V14.5C22.5033 14.5 22.5037 14.5003 22.502 14.5C22.5003 14.4996 22.4977 14.4989 22.495 14.4977C22.4922 14.4966 22.4908 14.4956 22.4909 14.4957C22.491 14.4958 22.4935 14.4975 22.498 14.502L22.8516 14.1484L23.2051 13.7949C23.0159 13.6057 22.7729 13.5 22.5 13.5V14ZM22.8516 14.1484L22.498 14.502C22.5025 14.5065 22.5042 14.509 22.5043 14.5091C22.5044 14.5092 22.5034 14.5078 22.5023 14.505C22.5011 14.5023 22.5004 14.4997 22.5 14.498C22.4997 14.4963 22.5 14.4967 22.5 14.5H23H23.5C23.5 14.2271 23.3943 13.9841 23.2051 13.7949L22.8516 14.1484ZM23 14.5H22.5C22.5 14.5033 22.4997 14.5037 22.5 14.502C22.5004 14.5003 22.5011 14.4977 22.5023 14.495C22.5034 14.4922 22.5044 14.4908 22.5043 14.4909C22.5042 14.491 22.5025 14.4935 22.498 14.498L22.8516 14.8516L23.2051 15.2051C23.3943 15.0159 23.5 14.7729 23.5 14.5H23ZM22.8516 14.8516L22.498 14.498L14.998 21.998L15.3516 22.3516L15.7051 22.7051L23.2051 15.2051L22.8516 14.8516ZM15.3516 22.3516L14.998 21.998C14.9935 22.0025 14.991 22.0042 14.9909 22.0043C14.9908 22.0044 14.9922 22.0034 14.995 22.0023C14.9977 22.0011 15.0003 22.0004 15.002 22C15.0037 21.9997 15.0033 22 15 22V22.5V23C15.2729 23 15.5159 22.8943 15.7051 22.7051L15.3516 22.3516ZM15 22.5V22C14.9967 22 14.9963 21.9997 14.998 22C14.9997 22.0004 15.0023 22.0011 15.005 22.0023C15.0078 22.0034 15.0092 22.0044 15.0091 22.0043C15.009 22.0042 15.0065 22.0025 15.002 21.998L14.6484 22.3516L14.2949 22.7051C14.4841 22.8943 14.7271 23 15 23V22.5ZM14.6484 22.3516L15.002 21.998L11.502 18.498L11.1484 18.8516L10.7949 19.2051L14.2949 22.7051L14.6484 22.3516ZM11.1484 18.8516L11.502 18.498C11.4975 18.4935 11.4958 18.491 11.4957 18.4909C11.4956 18.4908 11.4966 18.4922 11.4977 18.495C11.4989 18.4977 11.4996 18.5003 11.5 18.502C11.5003 18.5037 11.5 18.5033 11.5 18.5H11H10.5C10.5 18.7729 10.6057 19.0159 10.7949 19.2051L11.1484 18.8516Z" fill="white" mask="url(#path-3-outside-1_145_820)"/>
</svg>
